ISO-10303-21;
HEADER;
/* Generated by software containing ST-Developer
 * from STEP Tools, Inc. (www.steptools.com) 
 */
/* OPTION: using custom renumber hook */

FILE_DESCRIPTION(
/* description */ ('STEP AP242 Edition 2',
'CAx-IF Rec.Pracs.---Representation and Presentation of Product Manufa
cturing Information (PMI)---4.0---2014-10-13',
'CAx-IF Rec.Pracs.---3D Tessellated Geometry---0.4---2014-09-14','2;1',
'CAx-IF Rec.Pracs.---User Defined Attributes---1.5---2016-08-15'),
/* implementation_level */ '2;1');

FILE_NAME(
/* name */ 'Eurorack v1 asym - endcap',
/* time_stamp */ '2026-09-02T16:08:25Z',
/* author */ (''),
/* organization */ (''),
/* preprocessor_version */ 'ST-DEVELOPER v20',
/* originating_system */ 'ONSHAPE BY PTC INC, 1.220',
/* authorisation */ '  ');

FILE_SCHEMA (('AP242_MANAGED_MODEL_BASED_3D_ENGINEERING_MIM_LF { 1 0 10303 442 3 1 4 }'));
ENDSEC;

DATA;
#10=SHAPE_REPRESENTATION_RELATIONSHIP('','',#995,#11);
#11=ADVANCED_BREP_SHAPE_REPRESENTATION('',(#993),#1607);
#12=ELLIPSE('',#1032,0.00141421356237309,0.001);
#13=ELLIPSE('',#1033,0.00141421356237309,0.001);
#14=ELLIPSE('',#1035,0.00141421356237309,0.001);
#15=ELLIPSE('',#1036,0.00141421356237309,0.001);
#16=ELLIPSE('',#1063,0.00141421356237309,0.001);
#17=ELLIPSE('',#1064,0.00141421356237309,0.001);
#18=ELLIPSE('',#1066,0.00141421356237309,0.001);
#19=ELLIPSE('',#1067,0.00141421356237309,0.001);
#20=CIRCLE('',#999,0.00165);
#21=CIRCLE('',#1000,0.00165);
#22=CIRCLE('',#1003,0.00165);
#23=CIRCLE('',#1004,0.00165);
#24=CIRCLE('',#1007,0.00165);
#25=CIRCLE('',#1008,0.00165);
#26=CIRCLE('',#1010,0.00165);
#27=CIRCLE('',#1011,0.00165);
#28=CIRCLE('',#1013,0.00165);
#29=CIRCLE('',#1014,0.00165);
#30=CIRCLE('',#1027,0.001);
#31=CIRCLE('',#1028,0.001);
#32=CIRCLE('',#1029,0.001);
#33=CIRCLE('',#1030,0.001);
#34=CYLINDRICAL_SURFACE('',#998,0.00165);
#35=CYLINDRICAL_SURFACE('',#1002,0.00165);
#36=CYLINDRICAL_SURFACE('',#1006,0.00165);
#37=CYLINDRICAL_SURFACE('',#1009,0.00165);
#38=CYLINDRICAL_SURFACE('',#1012,0.00165);
#39=CYLINDRICAL_SURFACE('',#1031,0.001);
#40=CYLINDRICAL_SURFACE('',#1034,0.001);
#41=CYLINDRICAL_SURFACE('',#1062,0.001);
#42=CYLINDRICAL_SURFACE('',#1065,0.001);
#43=ORIENTED_EDGE('',*,*,#303,.F.);
#44=ORIENTED_EDGE('',*,*,#304,.F.);
#45=ORIENTED_EDGE('',*,*,#305,.T.);
#46=ORIENTED_EDGE('',*,*,#306,.T.);
#47=ORIENTED_EDGE('',*,*,#307,.F.);
#48=ORIENTED_EDGE('',*,*,#308,.T.);
#49=ORIENTED_EDGE('',*,*,#309,.T.);
#50=ORIENTED_EDGE('',*,*,#310,.F.);
#51=ORIENTED_EDGE('',*,*,#311,.T.);
#52=ORIENTED_EDGE('',*,*,#312,.T.);
#53=ORIENTED_EDGE('',*,*,#313,.F.);
#54=ORIENTED_EDGE('',*,*,#314,.F.);
#55=ORIENTED_EDGE('',*,*,#315,.T.);
#56=ORIENTED_EDGE('',*,*,#316,.T.);
#57=ORIENTED_EDGE('',*,*,#317,.F.);
#58=ORIENTED_EDGE('',*,*,#318,.T.);
#59=ORIENTED_EDGE('',*,*,#319,.T.);
#60=ORIENTED_EDGE('',*,*,#320,.F.);
#61=ORIENTED_EDGE('',*,*,#321,.T.);
#62=ORIENTED_EDGE('',*,*,#322,.T.);
#63=ORIENTED_EDGE('',*,*,#323,.F.);
#64=ORIENTED_EDGE('',*,*,#324,.T.);
#65=ORIENTED_EDGE('',*,*,#325,.T.);
#66=ORIENTED_EDGE('',*,*,#326,.F.);
#67=ORIENTED_EDGE('',*,*,#327,.F.);
#68=ORIENTED_EDGE('',*,*,#316,.F.);
#69=ORIENTED_EDGE('',*,*,#328,.T.);
#70=ORIENTED_EDGE('',*,*,#304,.T.);
#71=ORIENTED_EDGE('',*,*,#329,.F.);
#72=ORIENTED_EDGE('',*,*,#330,.T.);
#73=ORIENTED_EDGE('',*,*,#331,.T.);
#74=ORIENTED_EDGE('',*,*,#332,.F.);
#75=ORIENTED_EDGE('',*,*,#333,.F.);
#76=ORIENTED_EDGE('',*,*,#334,.T.);
#77=ORIENTED_EDGE('',*,*,#335,.T.);
#78=ORIENTED_EDGE('',*,*,#336,.F.);
#79=ORIENTED_EDGE('',*,*,#337,.T.);
#80=ORIENTED_EDGE('',*,*,#338,.T.);
#81=ORIENTED_EDGE('',*,*,#339,.T.);
#82=ORIENTED_EDGE('',*,*,#340,.T.);
#83=ORIENTED_EDGE('',*,*,#341,.T.);
#84=ORIENTED_EDGE('',*,*,#342,.T.);
#85=ORIENTED_EDGE('',*,*,#343,.F.);
#86=ORIENTED_EDGE('',*,*,#344,.F.);
#87=ORIENTED_EDGE('',*,*,#345,.T.);
#88=ORIENTED_EDGE('',*,*,#314,.T.);
#89=ORIENTED_EDGE('',*,*,#346,.T.);
#90=ORIENTED_EDGE('',*,*,#306,.F.);
#91=ORIENTED_EDGE('',*,*,#347,.F.);
#92=ORIENTED_EDGE('',*,*,#348,.T.);
#93=ORIENTED_EDGE('',*,*,#311,.F.);
#94=ORIENTED_EDGE('',*,*,#349,.F.);
#95=ORIENTED_EDGE('',*,*,#348,.F.);
#96=ORIENTED_EDGE('',*,*,#350,.T.);
#97=ORIENTED_EDGE('',*,*,#351,.T.);
#98=ORIENTED_EDGE('',*,*,#341,.F.);
#99=ORIENTED_EDGE('',*,*,#339,.F.);
#100=ORIENTED_EDGE('',*,*,#337,.F.);
#101=ORIENTED_EDGE('',*,*,#352,.F.);
#102=ORIENTED_EDGE('',*,*,#351,.F.);
#103=ORIENTED_EDGE('',*,*,#353,.T.);
#104=ORIENTED_EDGE('',*,*,#354,.T.);
#105=ORIENTED_EDGE('',*,*,#321,.F.);
#106=ORIENTED_EDGE('',*,*,#355,.F.);
#107=ORIENTED_EDGE('',*,*,#354,.F.);
#108=ORIENTED_EDGE('',*,*,#356,.T.);
#109=ORIENTED_EDGE('',*,*,#344,.T.);
#110=ORIENTED_EDGE('',*,*,#345,.F.);
#111=ORIENTED_EDGE('',*,*,#356,.F.);
#112=ORIENTED_EDGE('',*,*,#353,.F.);
#113=ORIENTED_EDGE('',*,*,#350,.F.);
#114=ORIENTED_EDGE('',*,*,#347,.T.);
#115=ORIENTED_EDGE('',*,*,#305,.F.);
#116=ORIENTED_EDGE('',*,*,#328,.F.);
#117=ORIENTED_EDGE('',*,*,#315,.F.);
#118=ORIENTED_EDGE('',*,*,#357,.T.);
#119=ORIENTED_EDGE('',*,*,#358,.T.);
#120=ORIENTED_EDGE('',*,*,#359,.T.);
#121=ORIENTED_EDGE('',*,*,#360,.T.);
#122=ORIENTED_EDGE('',*,*,#361,.T.);
#123=ORIENTED_EDGE('',*,*,#362,.T.);
#124=ORIENTED_EDGE('',*,*,#363,.T.);
#125=ORIENTED_EDGE('',*,*,#364,.F.);
#126=ORIENTED_EDGE('',*,*,#365,.T.);
#127=ORIENTED_EDGE('',*,*,#366,.T.);
#128=ORIENTED_EDGE('',*,*,#367,.T.);
#129=ORIENTED_EDGE('',*,*,#368,.F.);
#130=ORIENTED_EDGE('',*,*,#369,.T.);
#131=ORIENTED_EDGE('',*,*,#370,.T.);
#132=ORIENTED_EDGE('',*,*,#371,.T.);
#133=ORIENTED_EDGE('',*,*,#372,.T.);
#134=ORIENTED_EDGE('',*,*,#373,.T.);
#135=ORIENTED_EDGE('',*,*,#374,.T.);
#136=ORIENTED_EDGE('',*,*,#375,.T.);
#137=ORIENTED_EDGE('',*,*,#376,.T.);
#138=ORIENTED_EDGE('',*,*,#355,.T.);
#139=ORIENTED_EDGE('',*,*,#343,.T.);
#140=ORIENTED_EDGE('',*,*,#313,.T.);
#141=ORIENTED_EDGE('',*,*,#327,.T.);
#142=ORIENTED_EDGE('',*,*,#303,.T.);
#143=ORIENTED_EDGE('',*,*,#346,.F.);
#144=ORIENTED_EDGE('',*,*,#349,.T.);
#145=ORIENTED_EDGE('',*,*,#352,.T.);
#146=ORIENTED_EDGE('',*,*,#368,.T.);
#147=ORIENTED_EDGE('',*,*,#377,.T.);
#148=ORIENTED_EDGE('',*,*,#372,.F.);
#149=ORIENTED_EDGE('',*,*,#378,.T.);
#150=ORIENTED_EDGE('',*,*,#360,.F.);
#151=ORIENTED_EDGE('',*,*,#379,.T.);
#152=ORIENTED_EDGE('',*,*,#364,.T.);
#153=ORIENTED_EDGE('',*,*,#380,.T.);
#154=ORIENTED_EDGE('',*,*,#381,.T.);
#155=ORIENTED_EDGE('',*,*,#382,.T.);
#156=ORIENTED_EDGE('',*,*,#365,.F.);
#157=ORIENTED_EDGE('',*,*,#380,.F.);
#158=ORIENTED_EDGE('',*,*,#363,.F.);
#159=ORIENTED_EDGE('',*,*,#359,.F.);
#160=ORIENTED_EDGE('',*,*,#383,.T.);
#161=ORIENTED_EDGE('',*,*,#384,.T.);
#162=ORIENTED_EDGE('',*,*,#361,.F.);
#163=ORIENTED_EDGE('',*,*,#379,.F.);
#164=ORIENTED_EDGE('',*,*,#334,.F.);
#165=ORIENTED_EDGE('',*,*,#385,.F.);
#166=ORIENTED_EDGE('',*,*,#386,.T.);
#167=ORIENTED_EDGE('',*,*,#387,.T.);
#168=ORIENTED_EDGE('',*,*,#333,.T.);
#169=ORIENTED_EDGE('',*,*,#388,.F.);
#170=ORIENTED_EDGE('',*,*,#389,.F.);
#171=ORIENTED_EDGE('',*,*,#385,.T.);
#172=ORIENTED_EDGE('',*,*,#336,.T.);
#173=ORIENTED_EDGE('',*,*,#390,.F.);
#174=ORIENTED_EDGE('',*,*,#391,.F.);
#175=ORIENTED_EDGE('',*,*,#388,.T.);
#176=ORIENTED_EDGE('',*,*,#335,.F.);
#177=ORIENTED_EDGE('',*,*,#387,.F.);
#178=ORIENTED_EDGE('',*,*,#392,.T.);
#179=ORIENTED_EDGE('',*,*,#390,.T.);
#180=ORIENTED_EDGE('',*,*,#386,.F.);
#181=ORIENTED_EDGE('',*,*,#389,.T.);
#182=ORIENTED_EDGE('',*,*,#391,.T.);
#183=ORIENTED_EDGE('',*,*,#392,.F.);
#184=ORIENTED_EDGE('',*,*,#342,.F.);
#185=ORIENTED_EDGE('',*,*,#330,.F.);
#186=ORIENTED_EDGE('',*,*,#393,.F.);
#187=ORIENTED_EDGE('',*,*,#394,.T.);
#188=ORIENTED_EDGE('',*,*,#395,.T.);
#189=ORIENTED_EDGE('',*,*,#329,.T.);
#190=ORIENTED_EDGE('',*,*,#396,.F.);
#191=ORIENTED_EDGE('',*,*,#397,.F.);
#192=ORIENTED_EDGE('',*,*,#393,.T.);
#193=ORIENTED_EDGE('',*,*,#332,.T.);
#194=ORIENTED_EDGE('',*,*,#398,.F.);
#195=ORIENTED_EDGE('',*,*,#399,.F.);
#196=ORIENTED_EDGE('',*,*,#396,.T.);
#197=ORIENTED_EDGE('',*,*,#331,.F.);
#198=ORIENTED_EDGE('',*,*,#395,.F.);
#199=ORIENTED_EDGE('',*,*,#400,.T.);
#200=ORIENTED_EDGE('',*,*,#398,.T.);
#201=ORIENTED_EDGE('',*,*,#394,.F.);
#202=ORIENTED_EDGE('',*,*,#397,.T.);
#203=ORIENTED_EDGE('',*,*,#399,.T.);
#204=ORIENTED_EDGE('',*,*,#400,.F.);
#205=ORIENTED_EDGE('',*,*,#340,.F.);
#206=ORIENTED_EDGE('',*,*,#324,.F.);
#207=ORIENTED_EDGE('',*,*,#401,.F.);
#208=ORIENTED_EDGE('',*,*,#402,.T.);
#209=ORIENTED_EDGE('',*,*,#403,.T.);
#210=ORIENTED_EDGE('',*,*,#323,.T.);
#211=ORIENTED_EDGE('',*,*,#404,.F.);
#212=ORIENTED_EDGE('',*,*,#405,.F.);
#213=ORIENTED_EDGE('',*,*,#401,.T.);
#214=ORIENTED_EDGE('',*,*,#326,.T.);
#215=ORIENTED_EDGE('',*,*,#406,.F.);
#216=ORIENTED_EDGE('',*,*,#407,.F.);
#217=ORIENTED_EDGE('',*,*,#404,.T.);
#218=ORIENTED_EDGE('',*,*,#325,.F.);
#219=ORIENTED_EDGE('',*,*,#403,.F.);
#220=ORIENTED_EDGE('',*,*,#408,.T.);
#221=ORIENTED_EDGE('',*,*,#406,.T.);
#222=ORIENTED_EDGE('',*,*,#402,.F.);
#223=ORIENTED_EDGE('',*,*,#405,.T.);
#224=ORIENTED_EDGE('',*,*,#407,.T.);
#225=ORIENTED_EDGE('',*,*,#408,.F.);
#226=ORIENTED_EDGE('',*,*,#338,.F.);
#227=ORIENTED_EDGE('',*,*,#318,.F.);
#228=ORIENTED_EDGE('',*,*,#409,.F.);
#229=ORIENTED_EDGE('',*,*,#410,.T.);
#230=ORIENTED_EDGE('',*,*,#411,.T.);
#231=ORIENTED_EDGE('',*,*,#317,.T.);
#232=ORIENTED_EDGE('',*,*,#412,.F.);
#233=ORIENTED_EDGE('',*,*,#413,.F.);
#234=ORIENTED_EDGE('',*,*,#409,.T.);
#235=ORIENTED_EDGE('',*,*,#320,.T.);
#236=ORIENTED_EDGE('',*,*,#414,.F.);
#237=ORIENTED_EDGE('',*,*,#415,.F.);
#238=ORIENTED_EDGE('',*,*,#412,.T.);
#239=ORIENTED_EDGE('',*,*,#319,.F.);
#240=ORIENTED_EDGE('',*,*,#411,.F.);
#241=ORIENTED_EDGE('',*,*,#416,.T.);
#242=ORIENTED_EDGE('',*,*,#414,.T.);
#243=ORIENTED_EDGE('',*,*,#322,.F.);
#244=ORIENTED_EDGE('',*,*,#410,.F.);
#245=ORIENTED_EDGE('',*,*,#413,.T.);
#246=ORIENTED_EDGE('',*,*,#415,.T.);
#247=ORIENTED_EDGE('',*,*,#416,.F.);
#248=ORIENTED_EDGE('',*,*,#308,.F.);
#249=ORIENTED_EDGE('',*,*,#417,.F.);
#250=ORIENTED_EDGE('',*,*,#418,.T.);
#251=ORIENTED_EDGE('',*,*,#419,.T.);
#252=ORIENTED_EDGE('',*,*,#307,.T.);
#253=ORIENTED_EDGE('',*,*,#420,.F.);
#254=ORIENTED_EDGE('',*,*,#421,.F.);
#255=ORIENTED_EDGE('',*,*,#417,.T.);
#256=ORIENTED_EDGE('',*,*,#310,.T.);
#257=ORIENTED_EDGE('',*,*,#422,.F.);
#258=ORIENTED_EDGE('',*,*,#423,.F.);
#259=ORIENTED_EDGE('',*,*,#420,.T.);
#260=ORIENTED_EDGE('',*,*,#309,.F.);
#261=ORIENTED_EDGE('',*,*,#419,.F.);
#262=ORIENTED_EDGE('',*,*,#424,.T.);
#263=ORIENTED_EDGE('',*,*,#422,.T.);
#264=ORIENTED_EDGE('',*,*,#312,.F.);
#265=ORIENTED_EDGE('',*,*,#418,.F.);
#266=ORIENTED_EDGE('',*,*,#421,.T.);
#267=ORIENTED_EDGE('',*,*,#423,.T.);
#268=ORIENTED_EDGE('',*,*,#424,.F.);
#269=ORIENTED_EDGE('',*,*,#367,.F.);
#270=ORIENTED_EDGE('',*,*,#425,.T.);
#271=ORIENTED_EDGE('',*,*,#426,.T.);
#272=ORIENTED_EDGE('',*,*,#369,.F.);
#273=ORIENTED_EDGE('',*,*,#377,.F.);
#274=ORIENTED_EDGE('',*,*,#371,.F.);
#275=ORIENTED_EDGE('',*,*,#427,.T.);
#276=ORIENTED_EDGE('',*,*,#428,.T.);
#277=ORIENTED_EDGE('',*,*,#357,.F.);
#278=ORIENTED_EDGE('',*,*,#378,.F.);
#279=ORIENTED_EDGE('',*,*,#429,.F.);
#280=ORIENTED_EDGE('',*,*,#376,.F.);
#281=ORIENTED_EDGE('',*,*,#430,.F.);
#282=ORIENTED_EDGE('',*,*,#383,.F.);
#283=ORIENTED_EDGE('',*,*,#358,.F.);
#284=ORIENTED_EDGE('',*,*,#428,.F.);
#285=ORIENTED_EDGE('',*,*,#430,.T.);
#286=ORIENTED_EDGE('',*,*,#375,.F.);
#287=ORIENTED_EDGE('',*,*,#431,.F.);
#288=ORIENTED_EDGE('',*,*,#381,.F.);
#289=ORIENTED_EDGE('',*,*,#362,.F.);
#290=ORIENTED_EDGE('',*,*,#384,.F.);
#291=ORIENTED_EDGE('',*,*,#370,.F.);
#292=ORIENTED_EDGE('',*,*,#426,.F.);
#293=ORIENTED_EDGE('',*,*,#432,.F.);
#294=ORIENTED_EDGE('',*,*,#373,.F.);
#295=ORIENTED_EDGE('',*,*,#429,.T.);
#296=ORIENTED_EDGE('',*,*,#427,.F.);
#297=ORIENTED_EDGE('',*,*,#431,.T.);
#298=ORIENTED_EDGE('',*,*,#374,.F.);
#299=ORIENTED_EDGE('',*,*,#432,.T.);
#300=ORIENTED_EDGE('',*,*,#425,.F.);
#301=ORIENTED_EDGE('',*,*,#366,.F.);
#302=ORIENTED_EDGE('',*,*,#382,.F.);
#303=EDGE_CURVE('',#433,#434,#523,.T.);
#304=EDGE_CURVE('',#435,#433,#524,.T.);
#305=EDGE_CURVE('',#435,#436,#525,.T.);
#306=EDGE_CURVE('',#436,#434,#526,.T.);
#307=EDGE_CURVE('',#437,#438,#527,.T.);
#308=EDGE_CURVE('',#437,#439,#528,.T.);
#309=EDGE_CURVE('',#439,#440,#529,.T.);
#310=EDGE_CURVE('',#438,#440,#530,.T.);
#311=EDGE_CURVE('',#441,#441,#20,.T.);
#312=EDGE_CURVE('',#442,#442,#21,.T.);
#313=EDGE_CURVE('',#443,#444,#531,.T.);
#314=EDGE_CURVE('',#445,#443,#532,.T.);
#315=EDGE_CURVE('',#445,#446,#533,.T.);
#316=EDGE_CURVE('',#446,#444,#534,.T.);
#317=EDGE_CURVE('',#447,#448,#535,.T.);
#318=EDGE_CURVE('',#447,#449,#536,.T.);
#319=EDGE_CURVE('',#449,#450,#537,.T.);
#320=EDGE_CURVE('',#448,#450,#538,.T.);
#321=EDGE_CURVE('',#451,#451,#22,.T.);
#322=EDGE_CURVE('',#452,#452,#23,.T.);
#323=EDGE_CURVE('',#453,#454,#539,.T.);
#324=EDGE_CURVE('',#453,#455,#540,.T.);
#325=EDGE_CURVE('',#455,#456,#541,.T.);
#326=EDGE_CURVE('',#454,#456,#542,.T.);
#327=EDGE_CURVE('',#444,#433,#543,.T.);
#328=EDGE_CURVE('',#446,#435,#544,.T.);
#329=EDGE_CURVE('',#457,#458,#545,.T.);
#330=EDGE_CURVE('',#457,#459,#546,.T.);
#331=EDGE_CURVE('',#459,#460,#547,.T.);
#332=EDGE_CURVE('',#458,#460,#548,.T.);
#333=EDGE_CURVE('',#461,#462,#549,.T.);
#334=EDGE_CURVE('',#461,#463,#550,.T.);
#335=EDGE_CURVE('',#463,#464,#551,.T.);
#336=EDGE_CURVE('',#462,#464,#552,.T.);
#337=EDGE_CURVE('',#465,#465,#24,.T.);
#338=EDGE_CURVE('',#466,#466,#25,.T.);
#339=EDGE_CURVE('',#467,#467,#26,.T.);
#340=EDGE_CURVE('',#468,#468,#27,.T.);
#341=EDGE_CURVE('',#469,#469,#28,.T.);
#342=EDGE_CURVE('',#470,#470,#29,.T.);
#343=EDGE_CURVE('',#471,#443,#553,.T.);
#344=EDGE_CURVE('',#472,#471,#554,.T.);
#345=EDGE_CURVE('',#472,#445,#555,.T.);
#346=EDGE_CURVE('',#473,#434,#556,.T.);
#347=EDGE_CURVE('',#474,#436,#557,.T.);
#348=EDGE_CURVE('',#474,#473,#558,.T.);
#349=EDGE_CURVE('',#473,#475,#559,.T.);
#350=EDGE_CURVE('',#474,#476,#560,.T.);
#351=EDGE_CURVE('',#476,#475,#561,.T.);
#352=EDGE_CURVE('',#475,#477,#562,.T.);
#353=EDGE_CURVE('',#476,#478,#563,.T.);
#354=EDGE_CURVE('',#478,#477,#564,.T.);
#355=EDGE_CURVE('',#477,#471,#565,.T.);
#356=EDGE_CURVE('',#478,#472,#566,.T.);
#357=EDGE_CURVE('',#479,#480,#567,.F.);
#358=EDGE_CURVE('',#480,#481,#568,.T.);
#359=EDGE_CURVE('',#481,#482,#569,.T.);
#360=EDGE_CURVE('',#482,#479,#570,.T.);
#361=EDGE_CURVE('',#483,#484,#571,.F.);
#362=EDGE_CURVE('',#484,#485,#572,.T.);
#363=EDGE_CURVE('',#485,#486,#573,.T.);
#364=EDGE_CURVE('',#483,#486,#574,.T.);
#365=EDGE_CURVE('',#487,#488,#575,.F.);
#366=EDGE_CURVE('',#488,#489,#576,.T.);
#367=EDGE_CURVE('',#489,#490,#577,.T.);
#368=EDGE_CURVE('',#487,#490,#578,.T.);
#369=EDGE_CURVE('',#491,#492,#579,.F.);
#370=EDGE_CURVE('',#492,#493,#580,.T.);
#371=EDGE_CURVE('',#493,#494,#581,.T.);
#372=EDGE_CURVE('',#494,#491,#582,.T.);
#373=EDGE_CURVE('',#495,#496,#583,.T.);
#374=EDGE_CURVE('',#496,#497,#584,.T.);
#375=EDGE_CURVE('',#497,#498,#585,.T.);
#376=EDGE_CURVE('',#498,#495,#586,.T.);
#377=EDGE_CURVE('',#490,#491,#30,.T.);
#378=EDGE_CURVE('',#494,#479,#31,.T.);
#379=EDGE_CURVE('',#482,#483,#32,.T.);
#380=EDGE_CURVE('',#486,#487,#33,.T.);
#381=EDGE_CURVE('',#485,#499,#12,.F.);
#382=EDGE_CURVE('',#499,#488,#13,.F.);
#383=EDGE_CURVE('',#481,#500,#14,.T.);
#384=EDGE_CURVE('',#500,#484,#15,.F.);
#385=EDGE_CURVE('',#501,#461,#587,.T.);
#386=EDGE_CURVE('',#501,#502,#588,.T.);
#387=EDGE_CURVE('',#502,#463,#589,.T.);
#388=EDGE_CURVE('',#503,#462,#590,.T.);
#389=EDGE_CURVE('',#501,#503,#591,.T.);
#390=EDGE_CURVE('',#504,#464,#592,.T.);
#391=EDGE_CURVE('',#503,#504,#593,.T.);
#392=EDGE_CURVE('',#502,#504,#594,.T.);
#393=EDGE_CURVE('',#505,#457,#595,.T.);
#394=EDGE_CURVE('',#505,#506,#596,.T.);
#395=EDGE_CURVE('',#506,#459,#597,.T.);
#396=EDGE_CURVE('',#507,#458,#598,.T.);
#397=EDGE_CURVE('',#505,#507,#599,.T.);
#398=EDGE_CURVE('',#508,#460,#600,.T.);
#399=EDGE_CURVE('',#507,#508,#601,.T.);
#400=EDGE_CURVE('',#506,#508,#602,.T.);
#401=EDGE_CURVE('',#509,#453,#603,.T.);
#402=EDGE_CURVE('',#509,#510,#604,.T.);
#403=EDGE_CURVE('',#510,#455,#605,.T.);
#404=EDGE_CURVE('',#511,#454,#606,.T.);
#405=EDGE_CURVE('',#509,#511,#607,.T.);
#406=EDGE_CURVE('',#512,#456,#608,.T.);
#407=EDGE_CURVE('',#511,#512,#609,.T.);
#408=EDGE_CURVE('',#510,#512,#610,.T.);
#409=EDGE_CURVE('',#513,#447,#611,.T.);
#410=EDGE_CURVE('',#513,#514,#612,.T.);
#411=EDGE_CURVE('',#514,#449,#613,.T.);
#412=EDGE_CURVE('',#515,#448,#614,.T.);
#413=EDGE_CURVE('',#513,#515,#615,.T.);
#414=EDGE_CURVE('',#516,#450,#616,.T.);
#415=EDGE_CURVE('',#515,#516,#617,.T.);
#416=EDGE_CURVE('',#514,#516,#618,.T.);
#417=EDGE_CURVE('',#517,#437,#619,.T.);
#418=EDGE_CURVE('',#517,#518,#620,.T.);
#419=EDGE_CURVE('',#518,#439,#621,.T.);
#420=EDGE_CURVE('',#519,#438,#622,.T.);
#421=EDGE_CURVE('',#517,#519,#623,.T.);
#422=EDGE_CURVE('',#520,#440,#624,.T.);
#423=EDGE_CURVE('',#519,#520,#625,.T.);
#424=EDGE_CURVE('',#518,#520,#626,.T.);
#425=EDGE_CURVE('',#489,#521,#16,.F.);
#426=EDGE_CURVE('',#521,#492,#17,.T.);
#427=EDGE_CURVE('',#493,#522,#18,.T.);
#428=EDGE_CURVE('',#522,#480,#19,.T.);
#429=EDGE_CURVE('',#495,#522,#627,.F.);
#430=EDGE_CURVE('',#500,#498,#628,.F.);
#431=EDGE_CURVE('',#499,#497,#629,.F.);
#432=EDGE_CURVE('',#496,#521,#630,.T.);
#433=VERTEX_POINT('',#1335);
#434=VERTEX_POINT('',#1336);
#435=VERTEX_POINT('',#1338);
#436=VERTEX_POINT('',#1340);
#437=VERTEX_POINT('',#1343);
#438=VERTEX_POINT('',#1344);
#439=VERTEX_POINT('',#1346);
#440=VERTEX_POINT('',#1348);
#441=VERTEX_POINT('',#1352);
#442=VERTEX_POINT('',#1354);
#443=VERTEX_POINT('',#1357);
#444=VERTEX_POINT('',#1358);
#445=VERTEX_POINT('',#1360);
#446=VERTEX_POINT('',#1362);
#447=VERTEX_POINT('',#1365);
#448=VERTEX_POINT('',#1366);
#449=VERTEX_POINT('',#1368);
#450=VERTEX_POINT('',#1370);
#451=VERTEX_POINT('',#1374);
#452=VERTEX_POINT('',#1376);
#453=VERTEX_POINT('',#1379);
#454=VERTEX_POINT('',#1380);
#455=VERTEX_POINT('',#1382);
#456=VERTEX_POINT('',#1384);
#457=VERTEX_POINT('',#1389);
#458=VERTEX_POINT('',#1390);
#459=VERTEX_POINT('',#1392);
#460=VERTEX_POINT('',#1394);
#461=VERTEX_POINT('',#1397);
#462=VERTEX_POINT('',#1398);
#463=VERTEX_POINT('',#1400);
#464=VERTEX_POINT('',#1402);
#465=VERTEX_POINT('',#1406);
#466=VERTEX_POINT('',#1408);
#467=VERTEX_POINT('',#1411);
#468=VERTEX_POINT('',#1413);
#469=VERTEX_POINT('',#1416);
#470=VERTEX_POINT('',#1418);
#471=VERTEX_POINT('',#1421);
#472=VERTEX_POINT('',#1423);
#473=VERTEX_POINT('',#1427);
#474=VERTEX_POINT('',#1429);
#475=VERTEX_POINT('',#1433);
#476=VERTEX_POINT('',#1435);
#477=VERTEX_POINT('',#1439);
#478=VERTEX_POINT('',#1441);
#479=VERTEX_POINT('',#1449);
#480=VERTEX_POINT('',#1450);
#481=VERTEX_POINT('',#1452);
#482=VERTEX_POINT('',#1454);
#483=VERTEX_POINT('',#1458);
#484=VERTEX_POINT('',#1459);
#485=VERTEX_POINT('',#1461);
#486=VERTEX_POINT('',#1463);
#487=VERTEX_POINT('',#1467);
#488=VERTEX_POINT('',#1468);
#489=VERTEX_POINT('',#1470);
#490=VERTEX_POINT('',#1472);
#491=VERTEX_POINT('',#1476);
#492=VERTEX_POINT('',#1477);
#493=VERTEX_POINT('',#1479);
#494=VERTEX_POINT('',#1481);
#495=VERTEX_POINT('',#1485);
#496=VERTEX_POINT('',#1486);
#497=VERTEX_POINT('',#1488);
#498=VERTEX_POINT('',#1490);
#499=VERTEX_POINT('',#1499);
#500=VERTEX_POINT('',#1503);
#501=VERTEX_POINT('',#1507);
#502=VERTEX_POINT('',#1509);
#503=VERTEX_POINT('',#1513);
#504=VERTEX_POINT('',#1517);
#505=VERTEX_POINT('',#1524);
#506=VERTEX_POINT('',#1526);
#507=VERTEX_POINT('',#1530);
#508=VERTEX_POINT('',#1534);
#509=VERTEX_POINT('',#1541);
#510=VERTEX_POINT('',#1543);
#511=VERTEX_POINT('',#1547);
#512=VERTEX_POINT('',#1551);
#513=VERTEX_POINT('',#1558);
#514=VERTEX_POINT('',#1560);
#515=VERTEX_POINT('',#1564);
#516=VERTEX_POINT('',#1568);
#517=VERTEX_POINT('',#1575);
#518=VERTEX_POINT('',#1577);
#519=VERTEX_POINT('',#1581);
#520=VERTEX_POINT('',#1585);
#521=VERTEX_POINT('',#1592);
#522=VERTEX_POINT('',#1596);
#523=LINE('',#1334,#631);
#524=LINE('',#1337,#632);
#525=LINE('',#1339,#633);
#526=LINE('',#1341,#634);
#527=LINE('',#1342,#635);
#528=LINE('',#1345,#636);
#529=LINE('',#1347,#637);
#530=LINE('',#1349,#638);
#531=LINE('',#1356,#639);
#532=LINE('',#1359,#640);
#533=LINE('',#1361,#641);
#534=LINE('',#1363,#642);
#535=LINE('',#1364,#643);
#536=LINE('',#1367,#644);
#537=LINE('',#1369,#645);
#538=LINE('',#1371,#646);
#539=LINE('',#1378,#647);
#540=LINE('',#1381,#648);
#541=LINE('',#1383,#649);
#542=LINE('',#1385,#650);
#543=LINE('',#1386,#651);
#544=LINE('',#1387,#652);
#545=LINE('',#1388,#653);
#546=LINE('',#1391,#654);
#547=LINE('',#1393,#655);
#548=LINE('',#1395,#656);
#549=LINE('',#1396,#657);
#550=LINE('',#1399,#658);
#551=LINE('',#1401,#659);
#552=LINE('',#1403,#660);
#553=LINE('',#1420,#661);
#554=LINE('',#1422,#662);
#555=LINE('',#1424,#663);
#556=LINE('',#1426,#664);
#557=LINE('',#1428,#665);
#558=LINE('',#1430,#666);
#559=LINE('',#1432,#667);
#560=LINE('',#1434,#668);
#561=LINE('',#1436,#669);
#562=LINE('',#1438,#670);
#563=LINE('',#1440,#671);
#564=LINE('',#1442,#672);
#565=LINE('',#1444,#673);
#566=LINE('',#1445,#674);
#567=LINE('',#1448,#675);
#568=LINE('',#1451,#676);
#569=LINE('',#1453,#677);
#570=LINE('',#1455,#678);
#571=LINE('',#1457,#679);
#572=LINE('',#1460,#680);
#573=LINE('',#1462,#681);
#574=LINE('',#1464,#682);
#575=LINE('',#1466,#683);
#576=LINE('',#1469,#684);
#577=LINE('',#1471,#685);
#578=LINE('',#1473,#686);
#579=LINE('',#1475,#687);
#580=LINE('',#1478,#688);
#581=LINE('',#1480,#689);
#582=LINE('',#1482,#690);
#583=LINE('',#1484,#691);
#584=LINE('',#1487,#692);
#585=LINE('',#1489,#693);
#586=LINE('',#1491,#694);
#587=LINE('',#1506,#695);
#588=LINE('',#1508,#696);
#589=LINE('',#1510,#697);
#590=LINE('',#1512,#698);
#591=LINE('',#1514,#699);
#592=LINE('',#1516,#700);
#593=LINE('',#1518,#701);
#594=LINE('',#1520,#702);
#595=LINE('',#1523,#703);
#596=LINE('',#1525,#704);
#597=LINE('',#1527,#705);
#598=LINE('',#1529,#706);
#599=LINE('',#1531,#707);
#600=LINE('',#1533,#708);
#601=LINE('',#1535,#709);
#602=LINE('',#1537,#710);
#603=LINE('',#1540,#711);
#604=LINE('',#1542,#712);
#605=LINE('',#1544,#713);
#606=LINE('',#1546,#714);
#607=LINE('',#1548,#715);
#608=LINE('',#1550,#716);
#609=LINE('',#1552,#717);
#610=LINE('',#1554,#718);
#611=LINE('',#1557,#719);
#612=LINE('',#1559,#720);
#613=LINE('',#1561,#721);
#614=LINE('',#1563,#722);
#615=LINE('',#1565,#723);
#616=LINE('',#1567,#724);
#617=LINE('',#1569,#725);
#618=LINE('',#1571,#726);
#619=LINE('',#1574,#727);
#620=LINE('',#1576,#728);
#621=LINE('',#1578,#729);
#622=LINE('',#1580,#730);
#623=LINE('',#1582,#731);
#624=LINE('',#1584,#732);
#625=LINE('',#1586,#733);
#626=LINE('',#1588,#734);
#627=LINE('',#1599,#735);
#628=LINE('',#1600,#736);
#629=LINE('',#1602,#737);
#630=LINE('',#1604,#738);
#631=VECTOR('',#1076,1.);
#632=VECTOR('',#1077,1.);
#633=VECTOR('',#1078,1.);
#634=VECTOR('',#1079,1.);
#635=VECTOR('',#1080,1.);
#636=VECTOR('',#1081,1.);
#637=VECTOR('',#1082,1.);
#638=VECTOR('',#1083,1.);
#639=VECTOR('',#1092,1.);
#640=VECTOR('',#1093,1.);
#641=VECTOR('',#1094,1.);
#642=VECTOR('',#1095,1.);
#643=VECTOR('',#1096,1.);
#644=VECTOR('',#1097,1.);
#645=VECTOR('',#1098,1.);
#646=VECTOR('',#1099,1.);
#647=VECTOR('',#1108,1.);
#648=VECTOR('',#1109,1.);
#649=VECTOR('',#1110,1.);
#650=VECTOR('',#1111,1.);
#651=VECTOR('',#1112,1.);
#652=VECTOR('',#1113,1.);
#653=VECTOR('',#1114,1.);
#654=VECTOR('',#1115,1.);
#655=VECTOR('',#1116,1.);
#656=VECTOR('',#1117,1.);
#657=VECTOR('',#1118,1.);
#658=VECTOR('',#1119,1.);
#659=VECTOR('',#1120,1.);
#660=VECTOR('',#1121,1.);
#661=VECTOR('',#1142,1.);
#662=VECTOR('',#1143,1.);
#663=VECTOR('',#1144,1.);
#664=VECTOR('',#1147,1.);
#665=VECTOR('',#1148,1.);
#666=VECTOR('',#1149,1.);
#667=VECTOR('',#1152,1.);
#668=VECTOR('',#1153,1.);
#669=VECTOR('',#1154,1.);
#670=VECTOR('',#1157,1.);
#671=VECTOR('',#1158,1.);
#672=VECTOR('',#1159,1.);
#673=VECTOR('',#1162,1.);
#674=VECTOR('',#1163,1.);
#675=VECTOR('',#1168,1.);
#676=VECTOR('',#1169,1.);
#677=VECTOR('',#1170,1.);
#678=VECTOR('',#1171,1.);
#679=VECTOR('',#1174,1.);
#680=VECTOR('',#1175,1.);
#681=VECTOR('',#1176,1.);
#682=VECTOR('',#1177,1.);
#683=VECTOR('',#1180,1.);
#684=VECTOR('',#1181,1.);
#685=VECTOR('',#1182,1.);
#686=VECTOR('',#1183,1.);
#687=VECTOR('',#1186,1.);
#688=VECTOR('',#1187,1.);
#689=VECTOR('',#1188,1.);
#690=VECTOR('',#1189,1.);
#691=VECTOR('',#1192,1.);
#692=VECTOR('',#1193,1.);
#693=VECTOR('',#1194,1.);
#694=VECTOR('',#1195,1.);
#695=VECTOR('',#1220,1.);
#696=VECTOR('',#1221,1.);
#697=VECTOR('',#1222,1.);
#698=VECTOR('',#1225,1.);
#699=VECTOR('',#1226,1.);
#700=VECTOR('',#1229,1.);
#701=VECTOR('',#1230,1.);
#702=VECTOR('',#1233,1.);
#703=VECTOR('',#1238,1.);
#704=VECTOR('',#1239,1.);
#705=VECTOR('',#1240,1.);
#706=VECTOR('',#1243,1.);
#707=VECTOR('',#1244,1.);
#708=VECTOR('',#1247,1.);
#709=VECTOR('',#1248,1.);
#710=VECTOR('',#1251,1.);
#711=VECTOR('',#1256,1.);
#712=VECTOR('',#1257,1.);
#713=VECTOR('',#1258,1.);
#714=VECTOR('',#1261,1.);
#715=VECTOR('',#1262,1.);
#716=VECTOR('',#1265,1.);
#717=VECTOR('',#1266,1.);
#718=VECTOR('',#1269,1.);
#719=VECTOR('',#1274,1.);
#720=VECTOR('',#1275,1.);
#721=VECTOR('',#1276,1.);
#722=VECTOR('',#1279,1.);
#723=VECTOR('',#1280,1.);
#724=VECTOR('',#1283,1.);
#725=VECTOR('',#1284,1.);
#726=VECTOR('',#1287,1.);
#727=VECTOR('',#1292,1.);
#728=VECTOR('',#1293,1.);
#729=VECTOR('',#1294,1.);
#730=VECTOR('',#1297,1.);
#731=VECTOR('',#1298,1.);
#732=VECTOR('',#1301,1.);
#733=VECTOR('',#1302,1.);
#734=VECTOR('',#1305,1.);
#735=VECTOR('',#1322,1.);
#736=VECTOR('',#1323,1.);
#737=VECTOR('',#1326,1.);
#738=VECTOR('',#1329,1.);
#739=EDGE_LOOP('',(#43,#44,#45,#46));
#740=EDGE_LOOP('',(#47,#48,#49,#50));
#741=EDGE_LOOP('',(#51));
#742=EDGE_LOOP('',(#52));
#743=EDGE_LOOP('',(#53,#54,#55,#56));
#744=EDGE_LOOP('',(#57,#58,#59,#60));
#745=EDGE_LOOP('',(#61));
#746=EDGE_LOOP('',(#62));
#747=EDGE_LOOP('',(#63,#64,#65,#66));
#748=EDGE_LOOP('',(#67,#68,#69,#70));
#749=EDGE_LOOP('',(#71,#72,#73,#74));
#750=EDGE_LOOP('',(#75,#76,#77,#78));
#751=EDGE_LOOP('',(#79));
#752=EDGE_LOOP('',(#80));
#753=EDGE_LOOP('',(#81));
#754=EDGE_LOOP('',(#82));
#755=EDGE_LOOP('',(#83));
#756=EDGE_LOOP('',(#84));
#757=EDGE_LOOP('',(#85,#86,#87,#88));
#758=EDGE_LOOP('',(#89,#90,#91,#92));
#759=EDGE_LOOP('',(#93));
#760=EDGE_LOOP('',(#94,#95,#96,#97));
#761=EDGE_LOOP('',(#98));
#762=EDGE_LOOP('',(#99));
#763=EDGE_LOOP('',(#100));
#764=EDGE_LOOP('',(#101,#102,#103,#104));
#765=EDGE_LOOP('',(#105));
#766=EDGE_LOOP('',(#106,#107,#108,#109));
#767=EDGE_LOOP('',(#110,#111,#112,#113,#114,#115,#116,#117));
#768=EDGE_LOOP('',(#118,#119,#120,#121));
#769=EDGE_LOOP('',(#122,#123,#124,#125));
#770=EDGE_LOOP('',(#126,#127,#128,#129));
#771=EDGE_LOOP('',(#130,#131,#132,#133));
#772=EDGE_LOOP('',(#134,#135,#136,#137));
#773=EDGE_LOOP('',(#138,#139,#140,#141,#142,#143,#144,#145));
#774=EDGE_LOOP('',(#146,#147,#148,#149,#150,#151,#152,#153));
#775=EDGE_LOOP('',(#154,#155,#156,#157,#158));
#776=EDGE_LOOP('',(#159,#160,#161,#162,#163));
#777=EDGE_LOOP('',(#164,#165,#166,#167));
#778=EDGE_LOOP('',(#168,#169,#170,#171));
#779=EDGE_LOOP('',(#172,#173,#174,#175));
#780=EDGE_LOOP('',(#176,#177,#178,#179));
#781=EDGE_LOOP('',(#180,#181,#182,#183));
#782=EDGE_LOOP('',(#184));
#783=EDGE_LOOP('',(#185,#186,#187,#188));
#784=EDGE_LOOP('',(#189,#190,#191,#192));
#785=EDGE_LOOP('',(#193,#194,#195,#196));
#786=EDGE_LOOP('',(#197,#198,#199,#200));
#787=EDGE_LOOP('',(#201,#202,#203,#204));
#788=EDGE_LOOP('',(#205));
#789=EDGE_LOOP('',(#206,#207,#208,#209));
#790=EDGE_LOOP('',(#210,#211,#212,#213));
#791=EDGE_LOOP('',(#214,#215,#216,#217));
#792=EDGE_LOOP('',(#218,#219,#220,#221));
#793=EDGE_LOOP('',(#222,#223,#224,#225));
#794=EDGE_LOOP('',(#226));
#795=EDGE_LOOP('',(#227,#228,#229,#230));
#796=EDGE_LOOP('',(#231,#232,#233,#234));
#797=EDGE_LOOP('',(#235,#236,#237,#238));
#798=EDGE_LOOP('',(#239,#240,#241,#242));
#799=EDGE_LOOP('',(#243));
#800=EDGE_LOOP('',(#244,#245,#246,#247));
#801=EDGE_LOOP('',(#248,#249,#250,#251));
#802=EDGE_LOOP('',(#252,#253,#254,#255));
#803=EDGE_LOOP('',(#256,#257,#258,#259));
#804=EDGE_LOOP('',(#260,#261,#262,#263));
#805=EDGE_LOOP('',(#264));
#806=EDGE_LOOP('',(#265,#266,#267,#268));
#807=EDGE_LOOP('',(#269,#270,#271,#272,#273));
#808=EDGE_LOOP('',(#274,#275,#276,#277,#278));
#809=EDGE_LOOP('',(#279,#280,#281,#282,#283,#284));
#810=EDGE_LOOP('',(#285,#286,#287,#288,#289,#290));
#811=EDGE_LOOP('',(#291,#292,#293,#294,#295,#296));
#812=EDGE_LOOP('',(#297,#298,#299,#300,#301,#302));
#813=FACE_BOUND('',#739,.T.);
#814=FACE_BOUND('',#740,.T.);
#815=FACE_BOUND('',#741,.T.);
#816=FACE_BOUND('',#742,.T.);
#817=FACE_BOUND('',#743,.T.);
#818=FACE_BOUND('',#744,.T.);
#819=FACE_BOUND('',#745,.T.);
#820=FACE_BOUND('',#746,.T.);
#821=FACE_BOUND('',#747,.T.);
#822=FACE_BOUND('',#748,.T.);
#823=FACE_BOUND('',#749,.T.);
#824=FACE_BOUND('',#750,.T.);
#825=FACE_BOUND('',#751,.T.);
#826=FACE_BOUND('',#752,.T.);
#827=FACE_BOUND('',#753,.T.);
#828=FACE_BOUND('',#754,.T.);
#829=FACE_BOUND('',#755,.T.);
#830=FACE_BOUND('',#756,.T.);
#831=FACE_BOUND('',#757,.T.);
#832=FACE_BOUND('',#758,.T.);
#833=FACE_BOUND('',#759,.T.);
#834=FACE_BOUND('',#760,.T.);
#835=FACE_BOUND('',#761,.T.);
#836=FACE_BOUND('',#762,.T.);
#837=FACE_BOUND('',#763,.T.);
#838=FACE_BOUND('',#764,.T.);
#839=FACE_BOUND('',#765,.T.);
#840=FACE_BOUND('',#766,.T.);
#841=FACE_BOUND('',#767,.T.);
#842=FACE_BOUND('',#768,.T.);
#843=FACE_BOUND('',#769,.T.);
#844=FACE_BOUND('',#770,.T.);
#845=FACE_BOUND('',#771,.T.);
#846=FACE_BOUND('',#772,.T.);
#847=FACE_BOUND('',#773,.T.);
#848=FACE_BOUND('',#774,.T.);
#849=FACE_BOUND('',#775,.T.);
#850=FACE_BOUND('',#776,.T.);
#851=FACE_BOUND('',#777,.T.);
#852=FACE_BOUND('',#778,.T.);
#853=FACE_BOUND('',#779,.T.);
#854=FACE_BOUND('',#780,.T.);
#855=FACE_BOUND('',#781,.T.);
#856=FACE_BOUND('',#782,.T.);
#857=FACE_BOUND('',#783,.T.);
#858=FACE_BOUND('',#784,.T.);
#859=FACE_BOUND('',#785,.T.);
#860=FACE_BOUND('',#786,.T.);
#861=FACE_BOUND('',#787,.T.);
#862=FACE_BOUND('',#788,.T.);
#863=FACE_BOUND('',#789,.T.);
#864=FACE_BOUND('',#790,.T.);
#865=FACE_BOUND('',#791,.T.);
#866=FACE_BOUND('',#792,.T.);
#867=FACE_BOUND('',#793,.T.);
#868=FACE_BOUND('',#794,.T.);
#869=FACE_BOUND('',#795,.T.);
#870=FACE_BOUND('',#796,.T.);
#871=FACE_BOUND('',#797,.T.);
#872=FACE_BOUND('',#798,.T.);
#873=FACE_BOUND('',#799,.T.);
#874=FACE_BOUND('',#800,.T.);
#875=FACE_BOUND('',#801,.T.);
#876=FACE_BOUND('',#802,.T.);
#877=FACE_BOUND('',#803,.T.);
#878=FACE_BOUND('',#804,.T.);
#879=FACE_BOUND('',#805,.T.);
#880=FACE_BOUND('',#806,.T.);
#881=FACE_BOUND('',#807,.T.);
#882=FACE_BOUND('',#808,.T.);
#883=FACE_BOUND('',#809,.T.);
#884=FACE_BOUND('',#810,.T.);
#885=FACE_BOUND('',#811,.T.);
#886=FACE_BOUND('',#812,.T.);
#887=PLANE('',#997);
#888=PLANE('',#1001);
#889=PLANE('',#1005);
#890=PLANE('',#1015);
#891=PLANE('',#1016);
#892=PLANE('',#1017);
#893=PLANE('',#1018);
#894=PLANE('',#1019);
#895=PLANE('',#1020);
#896=PLANE('',#1021);
#897=PLANE('',#1022);
#898=PLANE('',#1023);
#899=PLANE('',#1024);
#900=PLANE('',#1025);
#901=PLANE('',#1026);
#902=PLANE('',#1037);
#903=PLANE('',#1038);
#904=PLANE('',#1039);
#905=PLANE('',#1040);
#906=PLANE('',#1041);
#907=PLANE('',#1042);
#908=PLANE('',#1043);
#909=PLANE('',#1044);
#910=PLANE('',#1045);
#911=PLANE('',#1046);
#912=PLANE('',#1047);
#913=PLANE('',#1048);
#914=PLANE('',#1049);
#915=PLANE('',#1050);
#916=PLANE('',#1051);
#917=PLANE('',#1052);
#918=PLANE('',#1053);
#919=PLANE('',#1054);
#920=PLANE('',#1055);
#921=PLANE('',#1056);
#922=PLANE('',#1057);
#923=PLANE('',#1058);
#924=PLANE('',#1059);
#925=PLANE('',#1060);
#926=PLANE('',#1061);
#927=PLANE('',#1068);
#928=PLANE('',#1069);
#929=PLANE('',#1070);
#930=PLANE('',#1071);
#931=ADVANCED_FACE('',(#813,#814),#887,.T.);
#932=ADVANCED_FACE('',(#815,#816),#34,.F.);
#933=ADVANCED_FACE('',(#817,#818),#888,.T.);
#934=ADVANCED_FACE('',(#819,#820),#35,.F.);
#935=ADVANCED_FACE('',(#821,#822,#823,#824),#889,.T.);
#936=ADVANCED_FACE('',(#825,#826),#36,.F.);
#937=ADVANCED_FACE('',(#827,#828),#37,.F.);
#938=ADVANCED_FACE('',(#829,#830),#38,.F.);
#939=ADVANCED_FACE('',(#831),#890,.T.);
#940=ADVANCED_FACE('',(#832),#891,.F.);
#941=ADVANCED_FACE('',(#833,#834),#892,.T.);
#942=ADVANCED_FACE('',(#835,#836,#837,#838),#893,.T.);
#943=ADVANCED_FACE('',(#839,#840),#894,.T.);
#944=ADVANCED_FACE('',(#841),#895,.F.);
#945=ADVANCED_FACE('',(#842),#896,.F.);
#946=ADVANCED_FACE('',(#843),#897,.T.);
#947=ADVANCED_FACE('',(#844),#898,.T.);
#948=ADVANCED_FACE('',(#845),#899,.F.);
#949=ADVANCED_FACE('',(#846),#900,.F.);
#950=ADVANCED_FACE('',(#847,#848),#901,.T.);
#951=ADVANCED_FACE('',(#849),#39,.T.);
#952=ADVANCED_FACE('',(#850),#40,.T.);
#953=ADVANCED_FACE('',(#851),#902,.T.);
#954=ADVANCED_FACE('',(#852),#903,.F.);
#955=ADVANCED_FACE('',(#853),#904,.F.);
#956=ADVANCED_FACE('',(#854),#905,.T.);
#957=ADVANCED_FACE('',(#855,#856),#906,.T.);
#958=ADVANCED_FACE('',(#857),#907,.T.);
#959=ADVANCED_FACE('',(#858),#908,.F.);
#960=ADVANCED_FACE('',(#859),#909,.F.);
#961=ADVANCED_FACE('',(#860),#910,.T.);
#962=ADVANCED_FACE('',(#861,#862),#911,.T.);
#963=ADVANCED_FACE('',(#863),#912,.T.);
#964=ADVANCED_FACE('',(#864),#913,.F.);
#965=ADVANCED_FACE('',(#865),#914,.F.);
#966=ADVANCED_FACE('',(#866),#915,.T.);
#967=ADVANCED_FACE('',(#867,#868),#916,.T.);
#968=ADVANCED_FACE('',(#869),#917,.T.);
#969=ADVANCED_FACE('',(#870),#918,.F.);
#970=ADVANCED_FACE('',(#871),#919,.F.);
#971=ADVANCED_FACE('',(#872),#920,.T.);
#972=ADVANCED_FACE('',(#873,#874),#921,.T.);
#973=ADVANCED_FACE('',(#875),#922,.T.);
#974=ADVANCED_FACE('',(#876),#923,.F.);
#975=ADVANCED_FACE('',(#877),#924,.F.);
#976=ADVANCED_FACE('',(#878),#925,.T.);
#977=ADVANCED_FACE('',(#879,#880),#926,.T.);
#978=ADVANCED_FACE('',(#881),#41,.T.);
#979=ADVANCED_FACE('',(#882),#42,.T.);
#980=ADVANCED_FACE('',(#883),#927,.F.);
#981=ADVANCED_FACE('',(#884),#928,.T.);
#982=ADVANCED_FACE('',(#885),#929,.F.);
#983=ADVANCED_FACE('',(#886),#930,.T.);
#984=CLOSED_SHELL('',(#931,#932,#933,#934,#935,#936,#937,#938,#939,#940,
#941,#942,#943,#944,#945,#946,#947,#948,#949,#950,#951,#952,#953,#954,#955,
#956,#957,#958,#959,#960,#961,#962,#963,#964,#965,#966,#967,#968,#969,#970,
#971,#972,#973,#974,#975,#976,#977,#978,#979,#980,#981,#982,#983));
#985=STYLED_ITEM('',(#986),#993);
#986=PRESENTATION_STYLE_ASSIGNMENT((#987));
#987=SURFACE_STYLE_USAGE(.BOTH.,#988);
#988=SURFACE_SIDE_STYLE('',(#989));
#989=SURFACE_STYLE_FILL_AREA(#990);
#990=FILL_AREA_STYLE('',(#991));
#991=FILL_AREA_STYLE_COLOUR('',#992);
#992=COLOUR_RGB('',0.917647058823529,0.917647058823529,0.917647058823529);
#993=MANIFOLD_SOLID_BREP('endcap',#984);
#994=SHAPE_DEFINITION_REPRESENTATION(#1612,#995);
#995=SHAPE_REPRESENTATION('endcap',(#996),#1607);
#996=AXIS2_PLACEMENT_3D('',#1332,#1072,#1073);
#997=AXIS2_PLACEMENT_3D('',#1333,#1074,#1075);
#998=AXIS2_PLACEMENT_3D('',#1350,#1084,#1085);
#999=AXIS2_PLACEMENT_3D('',#1351,#1086,#1087);
#1000=AXIS2_PLACEMENT_3D('',#1353,#1088,#1089);
#1001=AXIS2_PLACEMENT_3D('',#1355,#1090,#1091);
#1002=AXIS2_PLACEMENT_3D('',#1372,#1100,#1101);
#1003=AXIS2_PLACEMENT_3D('',#1373,#1102,#1103);
#1004=AXIS2_PLACEMENT_3D('',#1375,#1104,#1105);
#1005=AXIS2_PLACEMENT_3D('',#1377,#1106,#1107);
#1006=AXIS2_PLACEMENT_3D('',#1404,#1122,#1123);
#1007=AXIS2_PLACEMENT_3D('',#1405,#1124,#1125);
#1008=AXIS2_PLACEMENT_3D('',#1407,#1126,#1127);
#1009=AXIS2_PLACEMENT_3D('',#1409,#1128,#1129);
#1010=AXIS2_PLACEMENT_3D('',#1410,#1130,#1131);
#1011=AXIS2_PLACEMENT_3D('',#1412,#1132,#1133);
#1012=AXIS2_PLACEMENT_3D('',#1414,#1134,#1135);
#1013=AXIS2_PLACEMENT_3D('',#1415,#1136,#1137);
#1014=AXIS2_PLACEMENT_3D('',#1417,#1138,#1139);
#1015=AXIS2_PLACEMENT_3D('',#1419,#1140,#1141);
#1016=AXIS2_PLACEMENT_3D('',#1425,#1145,#1146);
#1017=AXIS2_PLACEMENT_3D('',#1431,#1150,#1151);
#1018=AXIS2_PLACEMENT_3D('',#1437,#1155,#1156);
#1019=AXIS2_PLACEMENT_3D('',#1443,#1160,#1161);
#1020=AXIS2_PLACEMENT_3D('',#1446,#1164,#1165);
#1021=AXIS2_PLACEMENT_3D('',#1447,#1166,#1167);
#1022=AXIS2_PLACEMENT_3D('',#1456,#1172,#1173);
#1023=AXIS2_PLACEMENT_3D('',#1465,#1178,#1179);
#1024=AXIS2_PLACEMENT_3D('',#1474,#1184,#1185);
#1025=AXIS2_PLACEMENT_3D('',#1483,#1190,#1191);
#1026=AXIS2_PLACEMENT_3D('',#1492,#1196,#1197);
#1027=AXIS2_PLACEMENT_3D('',#1493,#1198,#1199);
#1028=AXIS2_PLACEMENT_3D('',#1494,#1200,#1201);
#1029=AXIS2_PLACEMENT_3D('',#1495,#1202,#1203);
#1030=AXIS2_PLACEMENT_3D('',#1496,#1204,#1205);
#1031=AXIS2_PLACEMENT_3D('',#1497,#1206,#1207);
#1032=AXIS2_PLACEMENT_3D('',#1498,#1208,#1209);
#1033=AXIS2_PLACEMENT_3D('',#1500,#1210,#1211);
#1034=AXIS2_PLACEMENT_3D('',#1501,#1212,#1213);
#1035=AXIS2_PLACEMENT_3D('',#1502,#1214,#1215);
#1036=AXIS2_PLACEMENT_3D('',#1504,#1216,#1217);
#1037=AXIS2_PLACEMENT_3D('',#1505,#1218,#1219);
#1038=AXIS2_PLACEMENT_3D('',#1511,#1223,#1224);
#1039=AXIS2_PLACEMENT_3D('',#1515,#1227,#1228);
#1040=AXIS2_PLACEMENT_3D('',#1519,#1231,#1232);
#1041=AXIS2_PLACEMENT_3D('',#1521,#1234,#1235);
#1042=AXIS2_PLACEMENT_3D('',#1522,#1236,#1237);
#1043=AXIS2_PLACEMENT_3D('',#1528,#1241,#1242);
#1044=AXIS2_PLACEMENT_3D('',#1532,#1245,#1246);
#1045=AXIS2_PLACEMENT_3D('',#1536,#1249,#1250);
#1046=AXIS2_PLACEMENT_3D('',#1538,#1252,#1253);
#1047=AXIS2_PLACEMENT_3D('',#1539,#1254,#1255);
#1048=AXIS2_PLACEMENT_3D('',#1545,#1259,#1260);
#1049=AXIS2_PLACEMENT_3D('',#1549,#1263,#1264);
#1050=AXIS2_PLACEMENT_3D('',#1553,#1267,#1268);
#1051=AXIS2_PLACEMENT_3D('',#1555,#1270,#1271);
#1052=AXIS2_PLACEMENT_3D('',#1556,#1272,#1273);
#1053=AXIS2_PLACEMENT_3D('',#1562,#1277,#1278);
#1054=AXIS2_PLACEMENT_3D('',#1566,#1281,#1282);
#1055=AXIS2_PLACEMENT_3D('',#1570,#1285,#1286);
#1056=AXIS2_PLACEMENT_3D('',#1572,#1288,#1289);
#1057=AXIS2_PLACEMENT_3D('',#1573,#1290,#1291);
#1058=AXIS2_PLACEMENT_3D('',#1579,#1295,#1296);
#1059=AXIS2_PLACEMENT_3D('',#1583,#1299,#1300);
#1060=AXIS2_PLACEMENT_3D('',#1587,#1303,#1304);
#1061=AXIS2_PLACEMENT_3D('',#1589,#1306,#1307);
#1062=AXIS2_PLACEMENT_3D('',#1590,#1308,#1309);
#1063=AXIS2_PLACEMENT_3D('',#1591,#1310,#1311);
#1064=AXIS2_PLACEMENT_3D('',#1593,#1312,#1313);
#1065=AXIS2_PLACEMENT_3D('',#1594,#1314,#1315);
#1066=AXIS2_PLACEMENT_3D('',#1595,#1316,#1317);
#1067=AXIS2_PLACEMENT_3D('',#1597,#1318,#1319);
#1068=AXIS2_PLACEMENT_3D('',#1598,#1320,#1321);
#1069=AXIS2_PLACEMENT_3D('',#1601,#1324,#1325);
#1070=AXIS2_PLACEMENT_3D('',#1603,#1327,#1328);
#1071=AXIS2_PLACEMENT_3D('',#1605,#1330,#1331);
#1072=DIRECTION('',(0.,0.,1.));
#1073=DIRECTION('',(1.,0.,0.));
#1074=DIRECTION('',(0.,0.,-1.));
#1075=DIRECTION('',(0.,1.,0.));
#1076=DIRECTION('',(0.,1.,0.));
#1077=DIRECTION('',(1.,0.,0.));
#1078=DIRECTION('',(0.,1.,0.));
#1079=DIRECTION('',(1.,0.,0.));
#1080=DIRECTION('',(0.,1.,0.));
#1081=DIRECTION('',(1.,0.,0.));
#1082=DIRECTION('',(0.,1.,0.));
#1083=DIRECTION('',(1.,0.,0.));
#1084=DIRECTION('',(0.,0.,1.));
#1085=DIRECTION('',(0.,-1.,0.));
#1086=DIRECTION('',(0.,0.,1.));
#1087=DIRECTION('',(0.,-1.,0.));
#1088=DIRECTION('',(0.,0.,-1.));
#1089=DIRECTION('',(0.,1.,0.));
#1090=DIRECTION('',(0.,-3.85494105772623E-16,1.));
#1091=DIRECTION('',(0.,-1.,-3.85494105772623E-16));
#1092=DIRECTION('',(0.,-1.,-3.85494105772623E-16));
#1093=DIRECTION('',(1.,0.,0.));
#1094=DIRECTION('',(0.,-1.,-3.85494105772623E-16));
#1095=DIRECTION('',(1.,0.,0.));
#1096=DIRECTION('',(0.,1.,3.85494105772623E-16));
#1097=DIRECTION('',(-1.,0.,0.));
#1098=DIRECTION('',(0.,1.,3.85494105772623E-16));
#1099=DIRECTION('',(-1.,0.,0.));
#1100=DIRECTION('',(0.,0.,-1.));
#1101=DIRECTION('',(0.,1.,0.));
#1102=DIRECTION('',(0.,2.89120579329468E-16,-1.));
#1103=DIRECTION('',(0.,1.,2.89120579329468E-16));
#1104=DIRECTION('',(0.,-3.85494105772623E-16,1.));
#1105=DIRECTION('',(0.,-1.,-3.85494105772623E-16));
#1106=DIRECTION('',(0.,1.,0.));
#1107=DIRECTION('',(1.,0.,0.));
#1108=DIRECTION('',(1.,0.,0.));
#1109=DIRECTION('',(0.,0.,-1.));
#1110=DIRECTION('',(1.,0.,0.));
#1111=DIRECTION('',(0.,0.,-1.));
#1112=DIRECTION('',(0.,0.,1.));
#1113=DIRECTION('',(0.,0.,1.));
#1114=DIRECTION('',(1.,0.,0.));
#1115=DIRECTION('',(0.,0.,-1.));
#1116=DIRECTION('',(1.,0.,0.));
#1117=DIRECTION('',(0.,0.,-1.));
#1118=DIRECTION('',(1.,0.,0.));
#1119=DIRECTION('',(0.,0.,-1.));
#1120=DIRECTION('',(1.,0.,0.));
#1121=DIRECTION('',(0.,0.,-1.));
#1122=DIRECTION('',(0.,-1.,-2.01858731750028E-16));
#1123=DIRECTION('',(0.,2.01858731750028E-16,-1.));
#1124=DIRECTION('',(0.,-1.,-2.14328769232655E-16));
#1125=DIRECTION('',(0.,2.14328769232655E-16,-1.));
#1126=DIRECTION('',(0.,1.,0.));
#1127=DIRECTION('',(1.,0.,0.));
#1128=DIRECTION('',(0.,-1.,-2.01858731750028E-16));
#1129=DIRECTION('',(0.,2.01858731750028E-16,-1.));
#1130=DIRECTION('',(0.,-1.,-2.14328769232655E-16));
#1131=DIRECTION('',(0.,2.14328769232655E-16,-1.));
#1132=DIRECTION('',(0.,1.,0.));
#1133=DIRECTION('',(1.,0.,0.));
#1134=DIRECTION('',(0.,-1.,-2.01858731750028E-16));
#1135=DIRECTION('',(0.,2.01858731750028E-16,-1.));
#1136=DIRECTION('',(0.,-1.,-2.14328769232655E-16));
#1137=DIRECTION('',(0.,2.14328769232655E-16,-1.));
#1138=DIRECTION('',(0.,1.,0.));
#1139=DIRECTION('',(1.,0.,0.));
#1140=DIRECTION('',(0.,1.,0.));
#1141=DIRECTION('',(1.,0.,0.));
#1142=DIRECTION('',(0.,0.,1.));
#1143=DIRECTION('',(1.,0.,0.));
#1144=DIRECTION('',(0.,0.,1.));
#1145=DIRECTION('',(0.,-1.,0.));
#1146=DIRECTION('',(-1.,0.,0.));
#1147=DIRECTION('',(0.,0.,-1.));
#1148=DIRECTION('',(0.,0.,-1.));
#1149=DIRECTION('',(1.,0.,0.));
#1150=DIRECTION('',(0.,0.,1.));
#1151=DIRECTION('',(0.,-1.,0.));
#1152=DIRECTION('',(0.,-1.,0.));
#1153=DIRECTION('',(0.,-1.,0.));
#1154=DIRECTION('',(1.,0.,0.));
#1155=DIRECTION('',(0.,-1.,-2.14328769232655E-16));
#1156=DIRECTION('',(0.,2.14328769232655E-16,-1.));
#1157=DIRECTION('',(0.,2.14328769232655E-16,-1.));
#1158=DIRECTION('',(0.,2.14328769232655E-16,-1.));
#1159=DIRECTION('',(1.,0.,0.));
#1160=DIRECTION('',(0.,2.89120579329468E-16,-1.));
#1161=DIRECTION('',(0.,1.,2.89120579329468E-16));
#1162=DIRECTION('',(0.,1.,2.89120579329468E-16));
#1163=DIRECTION('',(0.,1.,2.89120579329468E-16));
#1164=DIRECTION('',(1.,0.,0.));
#1165=DIRECTION('',(0.,0.,-1.));
#1166=DIRECTION('',(0.,0.,-1.));
#1167=DIRECTION('',(0.,1.,0.));
#1168=DIRECTION('',(-1.,0.,0.));
#1169=DIRECTION('',(0.,1.,0.));
#1170=DIRECTION('',(-1.,0.,0.));
#1171=DIRECTION('',(0.,-1.,0.));
#1172=DIRECTION('',(0.,1.,0.));
#1173=DIRECTION('',(1.,0.,0.));
#1174=DIRECTION('',(-1.,0.,0.));
#1175=DIRECTION('',(0.,0.,-1.));
#1176=DIRECTION('',(-1.,0.,0.));
#1177=DIRECTION('',(0.,0.,-1.));
#1178=DIRECTION('',(0.,0.,-1.));
#1179=DIRECTION('',(0.,1.,0.));
#1180=DIRECTION('',(-1.,0.,0.));
#1181=DIRECTION('',(0.,-1.,0.));
#1182=DIRECTION('',(-1.,0.,0.));
#1183=DIRECTION('',(0.,-1.,0.));
#1184=DIRECTION('',(0.,1.,2.01858731750028E-16));
#1185=DIRECTION('',(0.,-2.01858731750028E-16,1.));
#1186=DIRECTION('',(-1.,0.,0.));
#1187=DIRECTION('',(0.,-2.01858731750028E-16,1.));
#1188=DIRECTION('',(-1.,0.,0.));
#1189=DIRECTION('',(0.,2.01858731750028E-16,-1.));
#1190=DIRECTION('',(-1.,0.,0.));
#1191=DIRECTION('',(0.,0.,1.));
#1192=DIRECTION('',(0.,2.01858731750028E-16,-1.));
#1193=DIRECTION('',(0.,1.,0.));
#1194=DIRECTION('',(0.,0.,1.));
#1195=DIRECTION('',(0.,-1.,0.));
#1196=DIRECTION('',(-1.,0.,0.));
#1197=DIRECTION('',(0.,0.,1.));
#1198=DIRECTION('',(-1.,0.,0.));
#1199=DIRECTION('',(0.,1.,0.));
#1200=DIRECTION('',(-1.,0.,0.));
#1201=DIRECTION('',(0.,1.,0.));
#1202=DIRECTION('',(-1.,0.,0.));
#1203=DIRECTION('',(0.,1.,0.));
#1204=DIRECTION('',(-1.,0.,0.));
#1205=DIRECTION('',(0.,1.,0.));
#1206=DIRECTION('',(-1.,0.,0.));
#1207=DIRECTION('',(0.,1.,0.));
#1208=DIRECTION('',(0.707106781186548,0.707106781186548,0.));
#1209=DIRECTION('',(-0.707106781186548,0.707106781186548,0.));
#1210=DIRECTION('',(0.707106781186549,0.,-0.707106781186546));
#1211=DIRECTION('',(-0.707106781186546,0.,-0.707106781186549));
#1212=DIRECTION('',(1.,0.,0.));
#1213=DIRECTION('',(0.,-1.,0.));
#1214=DIRECTION('',(-0.707106781186548,0.,-0.707106781186548));
#1215=DIRECTION('',(0.707106781186548,0.,-0.707106781186548));
#1216=DIRECTION('',(0.707106781186548,0.707106781186548,0.));
#1217=DIRECTION('',(0.707106781186548,-0.707106781186548,0.));
#1218=DIRECTION('',(1.,0.,0.));
#1219=DIRECTION('',(0.,-1.,0.));
#1220=DIRECTION('',(0.,1.,0.));
#1221=DIRECTION('',(0.,0.,-1.));
#1222=DIRECTION('',(0.,1.,0.));
#1223=DIRECTION('',(0.,0.,1.));
#1224=DIRECTION('',(0.,-1.,0.));
#1225=DIRECTION('',(0.,1.,0.));
#1226=DIRECTION('',(1.,0.,0.));
#1227=DIRECTION('',(1.,0.,0.));
#1228=DIRECTION('',(0.,-1.,0.));
#1229=DIRECTION('',(0.,1.,0.));
#1230=DIRECTION('',(0.,0.,-1.));
#1231=DIRECTION('',(0.,0.,1.));
#1232=DIRECTION('',(0.,-1.,0.));
#1233=DIRECTION('',(1.,0.,0.));
#1234=DIRECTION('',(0.,1.,0.));
#1235=DIRECTION('',(1.,0.,0.));
#1236=DIRECTION('',(1.,0.,0.));
#1237=DIRECTION('',(0.,-1.,0.));
#1238=DIRECTION('',(0.,1.,0.));
#1239=DIRECTION('',(0.,0.,-1.));
#1240=DIRECTION('',(0.,1.,0.));
#1241=DIRECTION('',(0.,0.,1.));
#1242=DIRECTION('',(0.,-1.,0.));
#1243=DIRECTION('',(0.,1.,0.));
#1244=DIRECTION('',(1.,0.,0.));
#1245=DIRECTION('',(1.,0.,0.));
#1246=DIRECTION('',(0.,-1.,0.));
#1247=DIRECTION('',(0.,1.,0.));
#1248=DIRECTION('',(0.,0.,-1.));
#1249=DIRECTION('',(0.,0.,1.));
#1250=DIRECTION('',(0.,-1.,0.));
#1251=DIRECTION('',(1.,0.,0.));
#1252=DIRECTION('',(0.,1.,0.));
#1253=DIRECTION('',(1.,0.,0.));
#1254=DIRECTION('',(1.,0.,0.));
#1255=DIRECTION('',(0.,-1.,0.));
#1256=DIRECTION('',(0.,1.,0.));
#1257=DIRECTION('',(0.,0.,-1.));
#1258=DIRECTION('',(0.,1.,0.));
#1259=DIRECTION('',(0.,0.,1.));
#1260=DIRECTION('',(0.,-1.,0.));
#1261=DIRECTION('',(0.,1.,0.));
#1262=DIRECTION('',(1.,0.,0.));
#1263=DIRECTION('',(1.,0.,0.));
#1264=DIRECTION('',(0.,-1.,0.));
#1265=DIRECTION('',(0.,1.,0.));
#1266=DIRECTION('',(0.,0.,-1.));
#1267=DIRECTION('',(0.,0.,1.));
#1268=DIRECTION('',(0.,-1.,0.));
#1269=DIRECTION('',(1.,0.,0.));
#1270=DIRECTION('',(0.,1.,0.));
#1271=DIRECTION('',(1.,0.,0.));
#1272=DIRECTION('',(0.,1.,3.85494105772623E-16));
#1273=DIRECTION('',(0.,-3.85494105772623E-16,1.));
#1274=DIRECTION('',(0.,-3.85494105772623E-16,1.));
#1275=DIRECTION('',(-1.,0.,0.));
#1276=DIRECTION('',(0.,-3.85494105772623E-16,1.));
#1277=DIRECTION('',(1.,0.,0.));
#1278=DIRECTION('',(0.,-1.,0.));
#1279=DIRECTION('',(0.,-3.85494105772623E-16,1.));
#1280=DIRECTION('',(0.,1.,3.85494105772623E-16));
#1281=DIRECTION('',(0.,1.,3.85494105772623E-16));
#1282=DIRECTION('',(0.,-3.85494105772623E-16,1.));
#1283=DIRECTION('',(0.,-3.85494105772623E-16,1.));
#1284=DIRECTION('',(-1.,0.,0.));
#1285=DIRECTION('',(1.,0.,0.));
#1286=DIRECTION('',(0.,-1.,0.));
#1287=DIRECTION('',(0.,1.,3.85494105772623E-16));
#1288=DIRECTION('',(0.,-3.85494105772623E-16,1.));
#1289=DIRECTION('',(1.,0.,0.));
#1290=DIRECTION('',(0.,1.,0.));
#1291=DIRECTION('',(1.,0.,0.));
#1292=DIRECTION('',(0.,0.,-1.));
#1293=DIRECTION('',(1.,0.,0.));
#1294=DIRECTION('',(0.,0.,-1.));
#1295=DIRECTION('',(-1.,0.,0.));
#1296=DIRECTION('',(0.,1.,0.));
#1297=DIRECTION('',(0.,0.,-1.));
#1298=DIRECTION('',(0.,1.,0.));
#1299=DIRECTION('',(0.,1.,0.));
#1300=DIRECTION('',(1.,0.,0.));
#1301=DIRECTION('',(0.,0.,-1.));
#1302=DIRECTION('',(1.,0.,0.));
#1303=DIRECTION('',(-1.,0.,0.));
#1304=DIRECTION('',(0.,1.,0.));
#1305=DIRECTION('',(0.,1.,0.));
#1306=DIRECTION('',(0.,0.,-1.));
#1307=DIRECTION('',(-1.,0.,0.));
#1308=DIRECTION('',(1.,0.,0.));
#1309=DIRECTION('',(0.,-1.,0.));
#1310=DIRECTION('',(0.707106781186549,0.,-0.707106781186546));
#1311=DIRECTION('',(0.707106781186546,0.,0.707106781186549));
#1312=DIRECTION('',(-0.707106781186548,0.707106781186548,1.42735678062161E-16));
#1313=DIRECTION('',(0.707106781186548,0.707106781186548,1.42735678062161E-16));
#1314=DIRECTION('',(-1.,0.,0.));
#1315=DIRECTION('',(0.,1.,0.));
#1316=DIRECTION('',(-0.707106781186548,0.707106781186548,1.42735678062161E-16));
#1317=DIRECTION('',(-0.707106781186548,-0.707106781186548,-1.42735678062161E-16));
#1318=DIRECTION('',(-0.707106781186548,0.,-0.707106781186548));
#1319=DIRECTION('',(-0.707106781186548,0.,0.707106781186548));
#1320=DIRECTION('',(-0.707106781186548,0.,-0.707106781186548));
#1321=DIRECTION('',(0.,-1.,0.));
#1322=DIRECTION('',(0.577350269189626,0.577350269189626,-0.577350269189626));
#1323=DIRECTION('',(-0.577350269189626,0.577350269189626,0.577350269189626));
#1324=DIRECTION('',(0.707106781186548,0.707106781186548,0.));
#1325=DIRECTION('',(0.,0.,1.));
#1326=DIRECTION('',(-0.577350269189625,0.577350269189625,-0.577350269189628));
#1327=DIRECTION('',(-0.707106781186548,0.707106781186548,1.42735678062161E-16));
#1328=DIRECTION('',(0.,2.01858731750028E-16,-1.));
#1329=DIRECTION('',(-0.577350269189625,-0.577350269189625,-0.577350269189628));
#1330=DIRECTION('',(0.707106781186549,0.,-0.707106781186546));
#1331=DIRECTION('',(0.,1.,0.));
#1332=CARTESIAN_POINT('',(0.,0.,0.));
#1333=CARTESIAN_POINT('',(0.12388,0.09794736546278,0.0929681236773729));
#1334=CARTESIAN_POINT('',(0.13208,0.09794736546278,0.0929681236773729));
#1335=CARTESIAN_POINT('',(0.13208,0.09344736546278,0.0929681236773729));
#1336=CARTESIAN_POINT('',(0.13208,0.10244736546278,0.0929681236773729));
#1337=CARTESIAN_POINT('',(0.12388,0.09344736546278,0.0929681236773729));
#1338=CARTESIAN_POINT('',(0.12388,0.09344736546278,0.0929681236773729));
#1339=CARTESIAN_POINT('',(0.12388,0.09794736546278,0.0929681236773729));
#1340=CARTESIAN_POINT('',(0.12388,0.10244736546278,0.0929681236773729));
#1341=CARTESIAN_POINT('',(0.12388,0.10244736546278,0.0929681236773729));
#1342=CARTESIAN_POINT('',(0.12523,0.09944736546278,0.0929681236773729));
#1343=CARTESIAN_POINT('',(0.12523,0.09659736546278,0.0929681236773729));
#1344=CARTESIAN_POINT('',(0.12523,0.10229736546278,0.0929681236773729));
#1345=CARTESIAN_POINT('',(0.12808,0.09659736546278,0.0929681236773729));
#1346=CARTESIAN_POINT('',(0.13093,0.09659736546278,0.0929681236773729));
#1347=CARTESIAN_POINT('',(0.13093,0.09944736546278,0.0929681236773729));
#1348=CARTESIAN_POINT('',(0.13093,0.10229736546278,0.0929681236773729));
#1349=CARTESIAN_POINT('',(0.12808,0.10229736546278,0.0929681236773729));
#1350=CARTESIAN_POINT('',(0.12808,0.09944736546278,0.0769681236773729));
#1351=CARTESIAN_POINT('',(0.12808,0.09944736546278,0.0979681236773729));
#1352=CARTESIAN_POINT('',(0.12808,0.09779736546278,0.0979681236773729));
#1353=CARTESIAN_POINT('',(0.12808,0.09944736546278,0.0949681236773729));
#1354=CARTESIAN_POINT('',(0.12808,0.10109736546278,0.0949681236773729));
#1355=CARTESIAN_POINT('',(0.12388,0.09794736546278,-0.0265318763226271));
#1356=CARTESIAN_POINT('',(0.13208,0.09794736546278,-0.0265318763226271));
#1357=CARTESIAN_POINT('',(0.13208,0.10244736546278,-0.0265318763226271));
#1358=CARTESIAN_POINT('',(0.13208,0.09344736546278,-0.0265318763226271));
#1359=CARTESIAN_POINT('',(0.12388,0.10244736546278,-0.0265318763226271));
#1360=CARTESIAN_POINT('',(0.12388,0.10244736546278,-0.0265318763226271));
#1361=CARTESIAN_POINT('',(0.12388,0.09794736546278,-0.0265318763226271));
#1362=CARTESIAN_POINT('',(0.12388,0.09344736546278,-0.0265318763226271));
#1363=CARTESIAN_POINT('',(0.12388,0.09344736546278,-0.0265318763226271));
#1364=CARTESIAN_POINT('',(0.13093,0.09944736546278,-0.0265318763226271));
#1365=CARTESIAN_POINT('',(0.13093,0.09659736546278,-0.0265318763226271));
#1366=CARTESIAN_POINT('',(0.13093,0.10229736546278,-0.0265318763226271));
#1367=CARTESIAN_POINT('',(0.12808,0.09659736546278,-0.0265318763226271));
#1368=CARTESIAN_POINT('',(0.12523,0.09659736546278,-0.0265318763226271));
#1369=CARTESIAN_POINT('',(0.12523,0.09944736546278,-0.0265318763226271));
#1370=CARTESIAN_POINT('',(0.12523,0.10229736546278,-0.0265318763226271));
#1371=CARTESIAN_POINT('',(0.12808,0.10229736546278,-0.0265318763226271));
#1372=CARTESIAN_POINT('',(0.12808,0.09944736546278,-0.0255318763226271));
#1373=CARTESIAN_POINT('',(0.12808,0.09944736546278,-0.0315318763226271));
#1374=CARTESIAN_POINT('',(0.12808,0.10109736546278,-0.0315318763226271));
#1375=CARTESIAN_POINT('',(0.12808,0.09944736546278,-0.0285318763226271));
#1376=CARTESIAN_POINT('',(0.12808,0.09779736546278,-0.0285318763226271));
#1377=CARTESIAN_POINT('',(0.12388,0.09344736546278,0.0332181236773729));
#1378=CARTESIAN_POINT('',(0.12808,0.09344736546278,0.0360681236773729));
#1379=CARTESIAN_POINT('',(0.12523,0.09344736546278,0.0360681236773729));
#1380=CARTESIAN_POINT('',(0.13093,0.09344736546278,0.0360681236773729));
#1381=CARTESIAN_POINT('',(0.12523,0.09344736546278,0.0332181236773729));
#1382=CARTESIAN_POINT('',(0.12523,0.09344736546278,0.0303681236773729));
#1383=CARTESIAN_POINT('',(0.12808,0.09344736546278,0.0303681236773729));
#1384=CARTESIAN_POINT('',(0.13093,0.09344736546278,0.0303681236773729));
#1385=CARTESIAN_POINT('',(0.13093,0.09344736546278,0.0332181236773729));
#1386=CARTESIAN_POINT('',(0.13208,0.09344736546278,0.0332181236773729));
#1387=CARTESIAN_POINT('',(0.12388,0.09344736546278,0.0332181236773729));
#1388=CARTESIAN_POINT('',(0.12808,0.09344736546278,0.0910681236773729));
#1389=CARTESIAN_POINT('',(0.12523,0.09344736546278,0.0910681236773729));
#1390=CARTESIAN_POINT('',(0.13093,0.09344736546278,0.0910681236773729));
#1391=CARTESIAN_POINT('',(0.12523,0.09344736546278,0.0882181236773729));
#1392=CARTESIAN_POINT('',(0.12523,0.09344736546278,0.0853681236773729));
#1393=CARTESIAN_POINT('',(0.12808,0.09344736546278,0.0853681236773729));
#1394=CARTESIAN_POINT('',(0.13093,0.09344736546278,0.0853681236773729));
#1395=CARTESIAN_POINT('',(0.13093,0.09344736546278,0.0882181236773729));
#1396=CARTESIAN_POINT('',(0.12808,0.09344736546278,-0.0189318763226271));
#1397=CARTESIAN_POINT('',(0.12523,0.09344736546278,-0.0189318763226271));
#1398=CARTESIAN_POINT('',(0.13093,0.09344736546278,-0.0189318763226271));
#1399=CARTESIAN_POINT('',(0.12523,0.09344736546278,-0.0217818763226271));
#1400=CARTESIAN_POINT('',(0.12523,0.09344736546278,-0.0246318763226271));
#1401=CARTESIAN_POINT('',(0.12808,0.09344736546278,-0.0246318763226271));
#1402=CARTESIAN_POINT('',(0.13093,0.09344736546278,-0.0246318763226271));
#1403=CARTESIAN_POINT('',(0.13093,0.09344736546278,-0.0217818763226271));
#1404=CARTESIAN_POINT('',(0.12808,0.09444736546278,0.0332181236773729));
#1405=CARTESIAN_POINT('',(0.12808,0.08844736546278,0.0332181236773729));
#1406=CARTESIAN_POINT('',(0.12808,0.08844736546278,0.0315681236773729));
#1407=CARTESIAN_POINT('',(0.12808,0.09144736546278,0.0332181236773729));
#1408=CARTESIAN_POINT('',(0.12973,0.09144736546278,0.0332181236773729));
#1409=CARTESIAN_POINT('',(0.12808,0.09444736546278,0.0882181236773729));
#1410=CARTESIAN_POINT('',(0.12808,0.08844736546278,0.0882181236773729));
#1411=CARTESIAN_POINT('',(0.12808,0.08844736546278,0.0865681236773729));
#1412=CARTESIAN_POINT('',(0.12808,0.09144736546278,0.0882181236773729));
#1413=CARTESIAN_POINT('',(0.12973,0.09144736546278,0.0882181236773729));
#1414=CARTESIAN_POINT('',(0.12808,0.09444736546278,-0.0217818763226271));
#1415=CARTESIAN_POINT('',(0.12808,0.08844736546278,-0.0217818763226271));
#1416=CARTESIAN_POINT('',(0.12808,0.08844736546278,-0.0234318763226271));
#1417=CARTESIAN_POINT('',(0.12808,0.09144736546278,-0.0217818763226271));
#1418=CARTESIAN_POINT('',(0.12973,0.09144736546278,-0.0217818763226271));
#1419=CARTESIAN_POINT('',(0.12388,0.10244736546278,-0.0276326401069761));
#1420=CARTESIAN_POINT('',(0.13208,0.10244736546278,-0.0276326401069761));
#1421=CARTESIAN_POINT('',(0.13208,0.10244736546278,-0.0315318763226271));
#1422=CARTESIAN_POINT('',(0.12388,0.10244736546278,-0.0315318763226271));
#1423=CARTESIAN_POINT('',(0.12388,0.10244736546278,-0.0315318763226271));
#1424=CARTESIAN_POINT('',(0.12388,0.10244736546278,-0.0276326401069761));
#1425=CARTESIAN_POINT('',(0.12388,0.10244736546278,0.0940688874617219));
#1426=CARTESIAN_POINT('',(0.13208,0.10244736546278,0.0940688874617219));
#1427=CARTESIAN_POINT('',(0.13208,0.10244736546278,0.0979681236773729));
#1428=CARTESIAN_POINT('',(0.12388,0.10244736546278,0.0940688874617219));
#1429=CARTESIAN_POINT('',(0.12388,0.10244736546278,0.0979681236773729));
#1430=CARTESIAN_POINT('',(0.12388,0.10244736546278,0.0979681236773729));
#1431=CARTESIAN_POINT('',(0.12388,0.10144736546278,0.0979681236773729));
#1432=CARTESIAN_POINT('',(0.13208,0.10144736546278,0.0979681236773729));
#1433=CARTESIAN_POINT('',(0.13208,0.08844736546278,0.0979681236773729));
#1434=CARTESIAN_POINT('',(0.12388,0.10144736546278,0.0979681236773729));
#1435=CARTESIAN_POINT('',(0.12388,0.08844736546278,0.0979681236773729));
#1436=CARTESIAN_POINT('',(0.12388,0.08844736546278,0.0979681236773729));
#1437=CARTESIAN_POINT('',(0.12388,0.08844736546278,0.0332181236773729));
#1438=CARTESIAN_POINT('',(0.13208,0.08844736546278,0.0332181236773729));
#1439=CARTESIAN_POINT('',(0.13208,0.08844736546278,-0.0315318763226271));
#1440=CARTESIAN_POINT('',(0.12388,0.08844736546278,0.0332181236773729));
#1441=CARTESIAN_POINT('',(0.12388,0.08844736546278,-0.0315318763226271));
#1442=CARTESIAN_POINT('',(0.12388,0.08844736546278,-0.0315318763226271));
#1443=CARTESIAN_POINT('',(0.12388,0.10044736546278,-0.0315318763226271));
#1444=CARTESIAN_POINT('',(0.13208,0.10044736546278,-0.0315318763226271));
#1445=CARTESIAN_POINT('',(0.12388,0.10044736546278,-0.0315318763226271));
#1446=CARTESIAN_POINT('',(0.12388,0.09944736546278,0.0332181236773729));
#1447=CARTESIAN_POINT('',(0.13608,0.09944736546278,0.101968123677373));
#1448=CARTESIAN_POINT('',(0.13608,0.08544736546278,0.101968123677373));
#1449=CARTESIAN_POINT('',(0.13208,0.08544736546278,0.101968123677373));
#1450=CARTESIAN_POINT('',(0.13458,0.08544736546278,0.101968123677373));
#1451=CARTESIAN_POINT('',(0.13458,0.09944736546278,0.101968123677373));
#1452=CARTESIAN_POINT('',(0.13458,0.11344736546278,0.101968123677373));
#1453=CARTESIAN_POINT('',(0.13208,0.11344736546278,0.101968123677373));
#1454=CARTESIAN_POINT('',(0.13208,0.11344736546278,0.101968123677373));
#1455=CARTESIAN_POINT('',(0.13208,0.09944736546278,0.101968123677373));
#1456=CARTESIAN_POINT('',(0.13608,0.11444736546278,-0.0335318763226271));
#1457=CARTESIAN_POINT('',(0.13608,0.11444736546278,0.100968123677373));
#1458=CARTESIAN_POINT('',(0.13208,0.11444736546278,0.100968123677373));
#1459=CARTESIAN_POINT('',(0.13458,0.11444736546278,0.100968123677373));
#1460=CARTESIAN_POINT('',(0.13458,0.11444736546278,-0.0345318763226271));
#1461=CARTESIAN_POINT('',(0.13458,0.11444736546278,-0.0345318763226271));
#1462=CARTESIAN_POINT('',(0.13608,0.11444736546278,-0.0345318763226271));
#1463=CARTESIAN_POINT('',(0.13208,0.11444736546278,-0.0345318763226271));
#1464=CARTESIAN_POINT('',(0.13208,0.11444736546278,-0.0335318763226271));
#1465=CARTESIAN_POINT('',(0.13608,0.09944736546278,-0.0355318763226271));
#1466=CARTESIAN_POINT('',(0.13608,0.11344736546278,-0.0355318763226271));
#1467=CARTESIAN_POINT('',(0.13208,0.11344736546278,-0.0355318763226271));
#1468=CARTESIAN_POINT('',(0.13458,0.11344736546278,-0.0355318763226271));
#1469=CARTESIAN_POINT('',(0.13458,0.08544736546278,-0.0355318763226271));
#1470=CARTESIAN_POINT('',(0.13458,0.08544736546278,-0.0355318763226271));
#1471=CARTESIAN_POINT('',(0.13208,0.08544736546278,-0.0355318763226271));
#1472=CARTESIAN_POINT('',(0.13208,0.08544736546278,-0.0355318763226271));
#1473=CARTESIAN_POINT('',(0.13208,0.09944736546278,-0.0355318763226271));
#1474=CARTESIAN_POINT('',(0.13608,0.08444736546278,0.033218123677373));
#1475=CARTESIAN_POINT('',(0.13608,0.08444736546278,-0.0345318763226271));
#1476=CARTESIAN_POINT('',(0.13208,0.08444736546278,-0.0345318763226271));
#1477=CARTESIAN_POINT('',(0.13458,0.08444736546278,-0.0345318763226271));
#1478=CARTESIAN_POINT('',(0.13458,0.08444736546278,0.033218123677373));
#1479=CARTESIAN_POINT('',(0.13458,0.08444736546278,0.100968123677373));
#1480=CARTESIAN_POINT('',(0.13608,0.08444736546278,0.100968123677373));
#1481=CARTESIAN_POINT('',(0.13208,0.08444736546278,0.100968123677373));
#1482=CARTESIAN_POINT('',(0.13208,0.08444736546278,0.033218123677373));
#1483=CARTESIAN_POINT('',(0.13608,0.09944736546278,0.0332181236773729));
#1484=CARTESIAN_POINT('',(0.13608,0.08594736546278,0.0332181236773729));
#1485=CARTESIAN_POINT('',(0.13608,0.08594736546278,0.100468123677373));
#1486=CARTESIAN_POINT('',(0.13608,0.08594736546278,-0.0340318763226271));
#1487=CARTESIAN_POINT('',(0.13608,0.11344736546278,-0.0340318763226271));
#1488=CARTESIAN_POINT('',(0.13608,0.11294736546278,-0.0340318763226271));
#1489=CARTESIAN_POINT('',(0.13608,0.11294736546278,0.100968123677373));
#1490=CARTESIAN_POINT('',(0.13608,0.11294736546278,0.100468123677373));
#1491=CARTESIAN_POINT('',(0.13608,0.09944736546278,0.100468123677373));
#1492=CARTESIAN_POINT('',(0.13208,0.09944736546278,0.0332181236773729));
#1493=CARTESIAN_POINT('',(0.13208,0.08544736546278,-0.0345318763226271));
#1494=CARTESIAN_POINT('',(0.13208,0.08544736546278,0.100968123677373));
#1495=CARTESIAN_POINT('',(0.13208,0.11344736546278,0.100968123677373));
#1496=CARTESIAN_POINT('',(0.13208,0.11344736546278,-0.0345318763226271));
#1497=CARTESIAN_POINT('',(0.13608,0.11344736546278,-0.0345318763226271));
#1498=CARTESIAN_POINT('',(0.13558,0.11344736546278,-0.0345318763226271));
#1499=CARTESIAN_POINT('',(0.134872893218813,0.114154472243966,-0.0352389831038137));
#1500=CARTESIAN_POINT('',(0.13558,0.11344736546278,-0.0345318763226271));
#1501=CARTESIAN_POINT('',(0.13608,0.11344736546278,0.100968123677373));
#1502=CARTESIAN_POINT('',(0.13558,0.11344736546278,0.100968123677373));
#1503=CARTESIAN_POINT('',(0.134872893218813,0.114154472243966,0.101675230458559));
#1504=CARTESIAN_POINT('',(0.13558,0.11344736546278,0.100968123677373));
#1505=CARTESIAN_POINT('',(0.12523,0.09144736546278,-0.0217818763226271));
#1506=CARTESIAN_POINT('',(0.12523,0.09144736546278,-0.0189318763226271));
#1507=CARTESIAN_POINT('',(0.12523,0.09144736546278,-0.0189318763226271));
#1508=CARTESIAN_POINT('',(0.12523,0.09144736546278,-0.0217818763226271));
#1509=CARTESIAN_POINT('',(0.12523,0.09144736546278,-0.0246318763226271));
#1510=CARTESIAN_POINT('',(0.12523,0.09144736546278,-0.0246318763226271));
#1511=CARTESIAN_POINT('',(0.12808,0.09144736546278,-0.0189318763226271));
#1512=CARTESIAN_POINT('',(0.13093,0.09144736546278,-0.0189318763226271));
#1513=CARTESIAN_POINT('',(0.13093,0.09144736546278,-0.0189318763226271));
#1514=CARTESIAN_POINT('',(0.12808,0.09144736546278,-0.0189318763226271));
#1515=CARTESIAN_POINT('',(0.13093,0.09144736546278,-0.0217818763226271));
#1516=CARTESIAN_POINT('',(0.13093,0.09144736546278,-0.0246318763226271));
#1517=CARTESIAN_POINT('',(0.13093,0.09144736546278,-0.0246318763226271));
#1518=CARTESIAN_POINT('',(0.13093,0.09144736546278,-0.0217818763226271));
#1519=CARTESIAN_POINT('',(0.12808,0.09144736546278,-0.0246318763226271));
#1520=CARTESIAN_POINT('',(0.12808,0.09144736546278,-0.0246318763226271));
#1521=CARTESIAN_POINT('',(0.12798,0.09144736546278,0.0332181236773729));
#1522=CARTESIAN_POINT('',(0.12523,0.09144736546278,0.0882181236773729));
#1523=CARTESIAN_POINT('',(0.12523,0.09144736546278,0.0910681236773729));
#1524=CARTESIAN_POINT('',(0.12523,0.09144736546278,0.0910681236773729));
#1525=CARTESIAN_POINT('',(0.12523,0.09144736546278,0.0882181236773729));
#1526=CARTESIAN_POINT('',(0.12523,0.09144736546278,0.0853681236773729));
#1527=CARTESIAN_POINT('',(0.12523,0.09144736546278,0.0853681236773729));
#1528=CARTESIAN_POINT('',(0.12808,0.09144736546278,0.0910681236773729));
#1529=CARTESIAN_POINT('',(0.13093,0.09144736546278,0.0910681236773729));
#1530=CARTESIAN_POINT('',(0.13093,0.09144736546278,0.0910681236773729));
#1531=CARTESIAN_POINT('',(0.12808,0.09144736546278,0.0910681236773729));
#1532=CARTESIAN_POINT('',(0.13093,0.09144736546278,0.0882181236773729));
#1533=CARTESIAN_POINT('',(0.13093,0.09144736546278,0.0853681236773729));
#1534=CARTESIAN_POINT('',(0.13093,0.09144736546278,0.0853681236773729));
#1535=CARTESIAN_POINT('',(0.13093,0.09144736546278,0.0882181236773729));
#1536=CARTESIAN_POINT('',(0.12808,0.09144736546278,0.0853681236773729));
#1537=CARTESIAN_POINT('',(0.12808,0.09144736546278,0.0853681236773729));
#1538=CARTESIAN_POINT('',(0.12798,0.09144736546278,0.0332181236773729));
#1539=CARTESIAN_POINT('',(0.12523,0.09144736546278,0.0332181236773729));
#1540=CARTESIAN_POINT('',(0.12523,0.09144736546278,0.0360681236773729));
#1541=CARTESIAN_POINT('',(0.12523,0.09144736546278,0.0360681236773729));
#1542=CARTESIAN_POINT('',(0.12523,0.09144736546278,0.0332181236773729));
#1543=CARTESIAN_POINT('',(0.12523,0.09144736546278,0.0303681236773729));
#1544=CARTESIAN_POINT('',(0.12523,0.09144736546278,0.0303681236773729));
#1545=CARTESIAN_POINT('',(0.12808,0.09144736546278,0.0360681236773729));
#1546=CARTESIAN_POINT('',(0.13093,0.09144736546278,0.0360681236773729));
#1547=CARTESIAN_POINT('',(0.13093,0.09144736546278,0.0360681236773729));
#1548=CARTESIAN_POINT('',(0.12808,0.09144736546278,0.0360681236773729));
#1549=CARTESIAN_POINT('',(0.13093,0.09144736546278,0.0332181236773729));
#1550=CARTESIAN_POINT('',(0.13093,0.09144736546278,0.0303681236773729));
#1551=CARTESIAN_POINT('',(0.13093,0.09144736546278,0.0303681236773729));
#1552=CARTESIAN_POINT('',(0.13093,0.09144736546278,0.0332181236773729));
#1553=CARTESIAN_POINT('',(0.12808,0.09144736546278,0.0303681236773729));
#1554=CARTESIAN_POINT('',(0.12808,0.09144736546278,0.0303681236773729));
#1555=CARTESIAN_POINT('',(0.12798,0.09144736546278,0.0332181236773729));
#1556=CARTESIAN_POINT('',(0.12808,0.09659736546278,-0.0285318763226271));
#1557=CARTESIAN_POINT('',(0.13093,0.09659736546278,-0.0285318763226271));
#1558=CARTESIAN_POINT('',(0.13093,0.09659736546278,-0.0285318763226271));
#1559=CARTESIAN_POINT('',(0.12808,0.09659736546278,-0.0285318763226271));
#1560=CARTESIAN_POINT('',(0.12523,0.09659736546278,-0.0285318763226271));
#1561=CARTESIAN_POINT('',(0.12523,0.09659736546278,-0.0285318763226271));
#1562=CARTESIAN_POINT('',(0.13093,0.09944736546278,-0.0285318763226271));
#1563=CARTESIAN_POINT('',(0.13093,0.10229736546278,-0.0285318763226271));
#1564=CARTESIAN_POINT('',(0.13093,0.10229736546278,-0.0285318763226271));
#1565=CARTESIAN_POINT('',(0.13093,0.09944736546278,-0.0285318763226271));
#1566=CARTESIAN_POINT('',(0.12808,0.10229736546278,-0.0285318763226271));
#1567=CARTESIAN_POINT('',(0.12523,0.10229736546278,-0.0285318763226271));
#1568=CARTESIAN_POINT('',(0.12523,0.10229736546278,-0.0285318763226271));
#1569=CARTESIAN_POINT('',(0.12808,0.10229736546278,-0.0285318763226271));
#1570=CARTESIAN_POINT('',(0.12523,0.09944736546278,-0.0285318763226271));
#1571=CARTESIAN_POINT('',(0.12523,0.09944736546278,-0.0285318763226271));
#1572=CARTESIAN_POINT('',(0.137055,0.07652236546278,-0.0285318763226271));
#1573=CARTESIAN_POINT('',(0.12808,0.09659736546278,0.0949681236773729));
#1574=CARTESIAN_POINT('',(0.12523,0.09659736546278,0.0949681236773729));
#1575=CARTESIAN_POINT('',(0.12523,0.09659736546278,0.0949681236773729));
#1576=CARTESIAN_POINT('',(0.12808,0.09659736546278,0.0949681236773729));
#1577=CARTESIAN_POINT('',(0.13093,0.09659736546278,0.0949681236773729));
#1578=CARTESIAN_POINT('',(0.13093,0.09659736546278,0.0949681236773729));
#1579=CARTESIAN_POINT('',(0.12523,0.09944736546278,0.0949681236773729));
#1580=CARTESIAN_POINT('',(0.12523,0.10229736546278,0.0949681236773729));
#1581=CARTESIAN_POINT('',(0.12523,0.10229736546278,0.0949681236773729));
#1582=CARTESIAN_POINT('',(0.12523,0.09944736546278,0.0949681236773729));
#1583=CARTESIAN_POINT('',(0.12808,0.10229736546278,0.0949681236773729));
#1584=CARTESIAN_POINT('',(0.13093,0.10229736546278,0.0949681236773729));
#1585=CARTESIAN_POINT('',(0.13093,0.10229736546278,0.0949681236773729));
#1586=CARTESIAN_POINT('',(0.12808,0.10229736546278,0.0949681236773729));
#1587=CARTESIAN_POINT('',(0.13093,0.09944736546278,0.0949681236773729));
#1588=CARTESIAN_POINT('',(0.13093,0.09944736546278,0.0949681236773729));
#1589=CARTESIAN_POINT('',(0.12798,0.09794736546278,0.0949681236773729));
#1590=CARTESIAN_POINT('',(0.13608,0.08544736546278,-0.0345318763226271));
#1591=CARTESIAN_POINT('',(0.13558,0.08544736546278,-0.0345318763226271));
#1592=CARTESIAN_POINT('',(0.134872893218813,0.0847402586815934,-0.0352389831038137));
#1593=CARTESIAN_POINT('',(0.13558,0.08544736546278,-0.0345318763226271));
#1594=CARTESIAN_POINT('',(0.13608,0.08544736546278,0.100968123677373));
#1595=CARTESIAN_POINT('',(0.13558,0.08544736546278,0.100968123677373));
#1596=CARTESIAN_POINT('',(0.134872893218813,0.0847402586815934,0.101675230458559));
#1597=CARTESIAN_POINT('',(0.13558,0.08544736546278,0.100968123677373));
#1598=CARTESIAN_POINT('',(0.13608,0.09944736546278,0.100468123677373));
#1599=CARTESIAN_POINT('',(0.14058,0.09044736546278,0.0959681236773729));
#1600=CARTESIAN_POINT('',(0.179746666666666,0.0692806987961133,0.0568014570107063));
#1601=CARTESIAN_POINT('',(0.13458,0.11444736546278,-0.0335318763226271));
#1602=CARTESIAN_POINT('',(0.135246666666667,0.113780698796113,-0.0348652096559605));
#1603=CARTESIAN_POINT('',(0.13608,0.08594736546278,0.0332181236773729));
#1604=CARTESIAN_POINT('',(0.158496666666667,0.108364032129447,-0.0116152096559603));
#1605=CARTESIAN_POINT('',(0.13458,0.09944736546278,-0.0355318763226271));
#1606=MECHANICAL_DESIGN_GEOMETRIC_PRESENTATION_REPRESENTATION('',(#985),
#1607);
#1607=(
GEOMETRIC_REPRESENTATION_CONTEXT(3)
GLOBAL_UNCERTAINTY_ASSIGNED_CONTEXT((#1608))
GLOBAL_UNIT_ASSIGNED_CONTEXT((#1611,#1610,#1609))
REPRESENTATION_CONTEXT('endcap','TOP_LEVEL_ASSEMBLY_PART')
);
#1608=UNCERTAINTY_MEASURE_WITH_UNIT(LENGTH_MEASURE(1.E-8),#1611,
'DISTANCE_ACCURACY_VALUE','Maximum Tolerance applied to model');
#1609=(
NAMED_UNIT(*)
SI_UNIT($,.STERADIAN.)
SOLID_ANGLE_UNIT()
);
#1610=(
NAMED_UNIT(*)
PLANE_ANGLE_UNIT()
SI_UNIT($,.RADIAN.)
);
#1611=(
LENGTH_UNIT()
NAMED_UNIT(*)
SI_UNIT($,.METRE.)
);
#1612=PRODUCT_DEFINITION_SHAPE('','',#1613);
#1613=PRODUCT_DEFINITION('','',#1615,#1614);
#1614=PRODUCT_DEFINITION_CONTEXT('',#1621,'design');
#1615=PRODUCT_DEFINITION_FORMATION_WITH_SPECIFIED_SOURCE('','',#1617,
 .NOT_KNOWN.);
#1616=PRODUCT_RELATED_PRODUCT_CATEGORY('','',(#1617));
#1617=PRODUCT('endcap','endcap','endcap',(#1619));
#1618=PRODUCT_CATEGORY('','');
#1619=PRODUCT_CONTEXT('',#1621,'mechanical');
#1620=APPLICATION_PROTOCOL_DEFINITION('international standard',
'ap242_managed_model_based_3d_engineering',2020,#1621);
#1621=APPLICATION_CONTEXT('managed model based 3d engineering');
ENDSEC;
END-ISO-10303-21;
