ISO-10303-21;
HEADER;
/* Generated by software containing ST-Developer
 * from STEP Tools, Inc. (www.steptools.com) 
 */
/* OPTION: using custom renumber hook */

FILE_DESCRIPTION(
/* description */ ('STEP AP242 Edition 2',
'CAx-IF Rec.Pracs.---Representation and Presentation of Product Manufa
cturing Information (PMI)---4.0---2014-10-13',
'CAx-IF Rec.Pracs.---3D Tessellated Geometry---0.4---2014-09-14','2;1',
'CAx-IF Rec.Pracs.---User Defined Attributes---1.5---2016-08-15'),
/* implementation_level */ '2;1');

FILE_NAME(
/* name */ 'Eurorack v1 asym - case',
/* time_stamp */ '2026-09-02T16:08:25Z',
/* author */ (''),
/* organization */ (''),
/* preprocessor_version */ 'ST-DEVELOPER v20',
/* originating_system */ 'ONSHAPE BY PTC INC, 1.220',
/* authorisation */ '  ');

FILE_SCHEMA (('AP242_MANAGED_MODEL_BASED_3D_ENGINEERING_MIM_LF { 1 0 10303 442 3 1 4 }'));
ENDSEC;

DATA;
#10=SHAPE_REPRESENTATION_RELATIONSHIP('','',#1157,#11);
#11=ADVANCED_BREP_SHAPE_REPRESENTATION('',(#1155),#1875);
#12=CYLINDRICAL_SURFACE('',#1219,0.003);
#13=CYLINDRICAL_SURFACE('',#1223,0.003);
#14=CYLINDRICAL_SURFACE('',#1227,0.003);
#15=CYLINDRICAL_SURFACE('',#1231,0.00165);
#16=CYLINDRICAL_SURFACE('',#1232,0.00165);
#17=CYLINDRICAL_SURFACE('',#1233,0.00165);
#18=CYLINDRICAL_SURFACE('',#1234,0.003);
#19=CYLINDRICAL_SURFACE('',#1238,0.00165);
#20=CYLINDRICAL_SURFACE('',#1239,0.003);
#21=CYLINDRICAL_SURFACE('',#1243,0.00165);
#22=CYLINDRICAL_SURFACE('',#1244,0.001);
#23=CYLINDRICAL_SURFACE('',#1245,0.001);
#24=CYLINDRICAL_SURFACE('',#1246,0.001);
#25=CYLINDRICAL_SURFACE('',#1247,0.001);
#26=CIRCLE('',#1161,0.003);
#27=CIRCLE('',#1163,0.003);
#28=CIRCLE('',#1164,0.003);
#29=CIRCLE('',#1165,0.003);
#30=CIRCLE('',#1167,0.003);
#31=CIRCLE('',#1169,0.001);
#32=CIRCLE('',#1170,0.001);
#33=CIRCLE('',#1171,0.001);
#34=CIRCLE('',#1172,0.001);
#35=CIRCLE('',#1190,0.001);
#36=CIRCLE('',#1191,0.001);
#37=CIRCLE('',#1192,0.001);
#38=CIRCLE('',#1193,0.001);
#39=CIRCLE('',#1195,0.00165);
#40=CIRCLE('',#1197,0.00165);
#41=CIRCLE('',#1200,0.00165);
#42=CIRCLE('',#1201,0.00165);
#43=CIRCLE('',#1202,0.00165);
#44=CIRCLE('',#1220,0.003);
#45=CIRCLE('',#1222,0.00165);
#46=CIRCLE('',#1224,0.003);
#47=CIRCLE('',#1226,0.00165);
#48=CIRCLE('',#1228,0.003);
#49=CIRCLE('',#1230,0.00165);
#50=CIRCLE('',#1235,0.003);
#51=CIRCLE('',#1237,0.00165);
#52=CIRCLE('',#1240,0.003);
#53=CIRCLE('',#1242,0.00165);
#54=ORIENTED_EDGE('',*,*,#358,.T.);
#55=ORIENTED_EDGE('',*,*,#359,.T.);
#56=ORIENTED_EDGE('',*,*,#360,.T.);
#57=ORIENTED_EDGE('',*,*,#361,.T.);
#58=ORIENTED_EDGE('',*,*,#362,.T.);
#59=ORIENTED_EDGE('',*,*,#363,.T.);
#60=ORIENTED_EDGE('',*,*,#364,.F.);
#61=ORIENTED_EDGE('',*,*,#365,.F.);
#62=ORIENTED_EDGE('',*,*,#366,.F.);
#63=ORIENTED_EDGE('',*,*,#367,.T.);
#64=ORIENTED_EDGE('',*,*,#368,.T.);
#65=ORIENTED_EDGE('',*,*,#369,.F.);
#66=ORIENTED_EDGE('',*,*,#370,.T.);
#67=ORIENTED_EDGE('',*,*,#371,.F.);
#68=ORIENTED_EDGE('',*,*,#372,.F.);
#69=ORIENTED_EDGE('',*,*,#373,.F.);
#70=ORIENTED_EDGE('',*,*,#374,.T.);
#71=ORIENTED_EDGE('',*,*,#375,.T.);
#72=ORIENTED_EDGE('',*,*,#376,.F.);
#73=ORIENTED_EDGE('',*,*,#377,.T.);
#74=ORIENTED_EDGE('',*,*,#378,.F.);
#75=ORIENTED_EDGE('',*,*,#379,.T.);
#76=ORIENTED_EDGE('',*,*,#380,.T.);
#77=ORIENTED_EDGE('',*,*,#381,.F.);
#78=ORIENTED_EDGE('',*,*,#382,.T.);
#79=ORIENTED_EDGE('',*,*,#369,.T.);
#80=ORIENTED_EDGE('',*,*,#383,.T.);
#81=ORIENTED_EDGE('',*,*,#374,.F.);
#82=ORIENTED_EDGE('',*,*,#384,.T.);
#83=ORIENTED_EDGE('',*,*,#379,.F.);
#84=ORIENTED_EDGE('',*,*,#385,.T.);
#85=ORIENTED_EDGE('',*,*,#360,.F.);
#86=ORIENTED_EDGE('',*,*,#386,.T.);
#87=ORIENTED_EDGE('',*,*,#364,.T.);
#88=ORIENTED_EDGE('',*,*,#387,.T.);
#89=ORIENTED_EDGE('',*,*,#388,.T.);
#90=ORIENTED_EDGE('',*,*,#389,.F.);
#91=ORIENTED_EDGE('',*,*,#390,.F.);
#92=ORIENTED_EDGE('',*,*,#391,.F.);
#93=ORIENTED_EDGE('',*,*,#392,.F.);
#94=ORIENTED_EDGE('',*,*,#393,.F.);
#95=ORIENTED_EDGE('',*,*,#394,.F.);
#96=ORIENTED_EDGE('',*,*,#395,.F.);
#97=ORIENTED_EDGE('',*,*,#396,.F.);
#98=ORIENTED_EDGE('',*,*,#397,.F.);
#99=ORIENTED_EDGE('',*,*,#398,.F.);
#100=ORIENTED_EDGE('',*,*,#399,.F.);
#101=ORIENTED_EDGE('',*,*,#400,.T.);
#102=ORIENTED_EDGE('',*,*,#401,.T.);
#103=ORIENTED_EDGE('',*,*,#402,.F.);
#104=ORIENTED_EDGE('',*,*,#403,.T.);
#105=ORIENTED_EDGE('',*,*,#404,.T.);
#106=ORIENTED_EDGE('',*,*,#405,.T.);
#107=ORIENTED_EDGE('',*,*,#406,.T.);
#108=ORIENTED_EDGE('',*,*,#407,.F.);
#109=ORIENTED_EDGE('',*,*,#408,.F.);
#110=ORIENTED_EDGE('',*,*,#409,.T.);
#111=ORIENTED_EDGE('',*,*,#410,.T.);
#112=ORIENTED_EDGE('',*,*,#411,.T.);
#113=ORIENTED_EDGE('',*,*,#412,.T.);
#114=ORIENTED_EDGE('',*,*,#413,.T.);
#115=ORIENTED_EDGE('',*,*,#414,.T.);
#116=ORIENTED_EDGE('',*,*,#415,.T.);
#117=ORIENTED_EDGE('',*,*,#416,.T.);
#118=ORIENTED_EDGE('',*,*,#417,.T.);
#119=ORIENTED_EDGE('',*,*,#418,.T.);
#120=ORIENTED_EDGE('',*,*,#419,.T.);
#121=ORIENTED_EDGE('',*,*,#420,.F.);
#122=ORIENTED_EDGE('',*,*,#421,.T.);
#123=ORIENTED_EDGE('',*,*,#400,.F.);
#124=ORIENTED_EDGE('',*,*,#422,.F.);
#125=ORIENTED_EDGE('',*,*,#423,.T.);
#126=ORIENTED_EDGE('',*,*,#424,.T.);
#127=ORIENTED_EDGE('',*,*,#399,.T.);
#128=ORIENTED_EDGE('',*,*,#425,.F.);
#129=ORIENTED_EDGE('',*,*,#426,.F.);
#130=ORIENTED_EDGE('',*,*,#422,.T.);
#131=ORIENTED_EDGE('',*,*,#398,.T.);
#132=ORIENTED_EDGE('',*,*,#427,.F.);
#133=ORIENTED_EDGE('',*,*,#428,.F.);
#134=ORIENTED_EDGE('',*,*,#425,.T.);
#135=ORIENTED_EDGE('',*,*,#397,.T.);
#136=ORIENTED_EDGE('',*,*,#429,.F.);
#137=ORIENTED_EDGE('',*,*,#430,.F.);
#138=ORIENTED_EDGE('',*,*,#427,.T.);
#139=ORIENTED_EDGE('',*,*,#396,.T.);
#140=ORIENTED_EDGE('',*,*,#431,.F.);
#141=ORIENTED_EDGE('',*,*,#432,.F.);
#142=ORIENTED_EDGE('',*,*,#429,.T.);
#143=ORIENTED_EDGE('',*,*,#395,.T.);
#144=ORIENTED_EDGE('',*,*,#433,.F.);
#145=ORIENTED_EDGE('',*,*,#434,.F.);
#146=ORIENTED_EDGE('',*,*,#431,.T.);
#147=ORIENTED_EDGE('',*,*,#394,.T.);
#148=ORIENTED_EDGE('',*,*,#435,.F.);
#149=ORIENTED_EDGE('',*,*,#436,.F.);
#150=ORIENTED_EDGE('',*,*,#433,.T.);
#151=ORIENTED_EDGE('',*,*,#393,.T.);
#152=ORIENTED_EDGE('',*,*,#437,.F.);
#153=ORIENTED_EDGE('',*,*,#438,.F.);
#154=ORIENTED_EDGE('',*,*,#435,.T.);
#155=ORIENTED_EDGE('',*,*,#392,.T.);
#156=ORIENTED_EDGE('',*,*,#439,.F.);
#157=ORIENTED_EDGE('',*,*,#440,.F.);
#158=ORIENTED_EDGE('',*,*,#437,.T.);
#159=ORIENTED_EDGE('',*,*,#391,.T.);
#160=ORIENTED_EDGE('',*,*,#441,.F.);
#161=ORIENTED_EDGE('',*,*,#442,.F.);
#162=ORIENTED_EDGE('',*,*,#439,.T.);
#163=ORIENTED_EDGE('',*,*,#390,.T.);
#164=ORIENTED_EDGE('',*,*,#443,.F.);
#165=ORIENTED_EDGE('',*,*,#444,.F.);
#166=ORIENTED_EDGE('',*,*,#441,.T.);
#167=ORIENTED_EDGE('',*,*,#389,.T.);
#168=ORIENTED_EDGE('',*,*,#445,.F.);
#169=ORIENTED_EDGE('',*,*,#446,.F.);
#170=ORIENTED_EDGE('',*,*,#443,.T.);
#171=ORIENTED_EDGE('',*,*,#388,.F.);
#172=ORIENTED_EDGE('',*,*,#447,.F.);
#173=ORIENTED_EDGE('',*,*,#448,.T.);
#174=ORIENTED_EDGE('',*,*,#445,.T.);
#175=ORIENTED_EDGE('',*,*,#402,.T.);
#176=ORIENTED_EDGE('',*,*,#449,.F.);
#177=ORIENTED_EDGE('',*,*,#450,.F.);
#178=ORIENTED_EDGE('',*,*,#451,.T.);
#179=ORIENTED_EDGE('',*,*,#401,.F.);
#180=ORIENTED_EDGE('',*,*,#424,.F.);
#181=ORIENTED_EDGE('',*,*,#452,.T.);
#182=ORIENTED_EDGE('',*,*,#449,.T.);
#183=ORIENTED_EDGE('',*,*,#376,.T.);
#184=ORIENTED_EDGE('',*,*,#453,.T.);
#185=ORIENTED_EDGE('',*,*,#367,.F.);
#186=ORIENTED_EDGE('',*,*,#454,.T.);
#187=ORIENTED_EDGE('',*,*,#358,.F.);
#188=ORIENTED_EDGE('',*,*,#455,.F.);
#189=ORIENTED_EDGE('',*,*,#456,.T.);
#190=ORIENTED_EDGE('',*,*,#457,.F.);
#191=ORIENTED_EDGE('',*,*,#458,.F.);
#192=ORIENTED_EDGE('',*,*,#459,.F.);
#193=ORIENTED_EDGE('',*,*,#460,.F.);
#194=ORIENTED_EDGE('',*,*,#461,.F.);
#195=ORIENTED_EDGE('',*,*,#462,.F.);
#196=ORIENTED_EDGE('',*,*,#463,.F.);
#197=ORIENTED_EDGE('',*,*,#464,.F.);
#198=ORIENTED_EDGE('',*,*,#465,.F.);
#199=ORIENTED_EDGE('',*,*,#466,.F.);
#200=ORIENTED_EDGE('',*,*,#467,.F.);
#201=ORIENTED_EDGE('',*,*,#468,.T.);
#202=ORIENTED_EDGE('',*,*,#469,.T.);
#203=ORIENTED_EDGE('',*,*,#470,.F.);
#204=ORIENTED_EDGE('',*,*,#471,.F.);
#205=ORIENTED_EDGE('',*,*,#472,.F.);
#206=ORIENTED_EDGE('',*,*,#473,.F.);
#207=ORIENTED_EDGE('',*,*,#450,.T.);
#208=ORIENTED_EDGE('',*,*,#452,.F.);
#209=ORIENTED_EDGE('',*,*,#423,.F.);
#210=ORIENTED_EDGE('',*,*,#426,.T.);
#211=ORIENTED_EDGE('',*,*,#428,.T.);
#212=ORIENTED_EDGE('',*,*,#430,.T.);
#213=ORIENTED_EDGE('',*,*,#432,.T.);
#214=ORIENTED_EDGE('',*,*,#434,.T.);
#215=ORIENTED_EDGE('',*,*,#436,.T.);
#216=ORIENTED_EDGE('',*,*,#438,.T.);
#217=ORIENTED_EDGE('',*,*,#440,.T.);
#218=ORIENTED_EDGE('',*,*,#442,.T.);
#219=ORIENTED_EDGE('',*,*,#444,.T.);
#220=ORIENTED_EDGE('',*,*,#446,.T.);
#221=ORIENTED_EDGE('',*,*,#448,.F.);
#222=ORIENTED_EDGE('',*,*,#474,.F.);
#223=ORIENTED_EDGE('',*,*,#362,.F.);
#224=ORIENTED_EDGE('',*,*,#475,.T.);
#225=ORIENTED_EDGE('',*,*,#381,.T.);
#226=ORIENTED_EDGE('',*,*,#476,.T.);
#227=ORIENTED_EDGE('',*,*,#477,.F.);
#228=ORIENTED_EDGE('',*,*,#451,.F.);
#229=ORIENTED_EDGE('',*,*,#473,.T.);
#230=ORIENTED_EDGE('',*,*,#478,.T.);
#231=ORIENTED_EDGE('',*,*,#403,.F.);
#232=ORIENTED_EDGE('',*,*,#479,.F.);
#233=ORIENTED_EDGE('',*,*,#471,.T.);
#234=ORIENTED_EDGE('',*,*,#480,.T.);
#235=ORIENTED_EDGE('',*,*,#405,.F.);
#236=ORIENTED_EDGE('',*,*,#481,.F.);
#237=ORIENTED_EDGE('',*,*,#482,.F.);
#238=ORIENTED_EDGE('',*,*,#455,.T.);
#239=ORIENTED_EDGE('',*,*,#365,.T.);
#240=ORIENTED_EDGE('',*,*,#421,.F.);
#241=ORIENTED_EDGE('',*,*,#483,.F.);
#242=ORIENTED_EDGE('',*,*,#484,.F.);
#243=ORIENTED_EDGE('',*,*,#485,.F.);
#244=ORIENTED_EDGE('',*,*,#404,.F.);
#245=ORIENTED_EDGE('',*,*,#478,.F.);
#246=ORIENTED_EDGE('',*,*,#472,.T.);
#247=ORIENTED_EDGE('',*,*,#481,.T.);
#248=ORIENTED_EDGE('',*,*,#474,.T.);
#249=ORIENTED_EDGE('',*,*,#447,.T.);
#250=ORIENTED_EDGE('',*,*,#387,.F.);
#251=ORIENTED_EDGE('',*,*,#363,.F.);
#252=ORIENTED_EDGE('',*,*,#420,.T.);
#253=ORIENTED_EDGE('',*,*,#486,.F.);
#254=ORIENTED_EDGE('',*,*,#456,.F.);
#255=ORIENTED_EDGE('',*,*,#482,.T.);
#256=ORIENTED_EDGE('',*,*,#419,.F.);
#257=ORIENTED_EDGE('',*,*,#487,.F.);
#258=ORIENTED_EDGE('',*,*,#457,.T.);
#259=ORIENTED_EDGE('',*,*,#486,.T.);
#260=ORIENTED_EDGE('',*,*,#418,.F.);
#261=ORIENTED_EDGE('',*,*,#488,.F.);
#262=ORIENTED_EDGE('',*,*,#458,.T.);
#263=ORIENTED_EDGE('',*,*,#487,.T.);
#264=ORIENTED_EDGE('',*,*,#417,.F.);
#265=ORIENTED_EDGE('',*,*,#489,.F.);
#266=ORIENTED_EDGE('',*,*,#459,.T.);
#267=ORIENTED_EDGE('',*,*,#488,.T.);
#268=ORIENTED_EDGE('',*,*,#416,.F.);
#269=ORIENTED_EDGE('',*,*,#490,.F.);
#270=ORIENTED_EDGE('',*,*,#460,.T.);
#271=ORIENTED_EDGE('',*,*,#489,.T.);
#272=ORIENTED_EDGE('',*,*,#415,.F.);
#273=ORIENTED_EDGE('',*,*,#491,.F.);
#274=ORIENTED_EDGE('',*,*,#461,.T.);
#275=ORIENTED_EDGE('',*,*,#490,.T.);
#276=ORIENTED_EDGE('',*,*,#414,.F.);
#277=ORIENTED_EDGE('',*,*,#492,.F.);
#278=ORIENTED_EDGE('',*,*,#462,.T.);
#279=ORIENTED_EDGE('',*,*,#491,.T.);
#280=ORIENTED_EDGE('',*,*,#413,.F.);
#281=ORIENTED_EDGE('',*,*,#493,.F.);
#282=ORIENTED_EDGE('',*,*,#463,.T.);
#283=ORIENTED_EDGE('',*,*,#492,.T.);
#284=ORIENTED_EDGE('',*,*,#412,.F.);
#285=ORIENTED_EDGE('',*,*,#494,.F.);
#286=ORIENTED_EDGE('',*,*,#464,.T.);
#287=ORIENTED_EDGE('',*,*,#493,.T.);
#288=ORIENTED_EDGE('',*,*,#411,.F.);
#289=ORIENTED_EDGE('',*,*,#495,.F.);
#290=ORIENTED_EDGE('',*,*,#465,.T.);
#291=ORIENTED_EDGE('',*,*,#494,.T.);
#292=ORIENTED_EDGE('',*,*,#410,.F.);
#293=ORIENTED_EDGE('',*,*,#496,.F.);
#294=ORIENTED_EDGE('',*,*,#466,.T.);
#295=ORIENTED_EDGE('',*,*,#495,.T.);
#296=ORIENTED_EDGE('',*,*,#409,.F.);
#297=ORIENTED_EDGE('',*,*,#497,.F.);
#298=ORIENTED_EDGE('',*,*,#467,.T.);
#299=ORIENTED_EDGE('',*,*,#496,.T.);
#300=ORIENTED_EDGE('',*,*,#408,.T.);
#301=ORIENTED_EDGE('',*,*,#498,.F.);
#302=ORIENTED_EDGE('',*,*,#468,.F.);
#303=ORIENTED_EDGE('',*,*,#497,.T.);
#304=ORIENTED_EDGE('',*,*,#407,.T.);
#305=ORIENTED_EDGE('',*,*,#499,.F.);
#306=ORIENTED_EDGE('',*,*,#469,.F.);
#307=ORIENTED_EDGE('',*,*,#498,.T.);
#308=ORIENTED_EDGE('',*,*,#406,.F.);
#309=ORIENTED_EDGE('',*,*,#480,.F.);
#310=ORIENTED_EDGE('',*,*,#470,.T.);
#311=ORIENTED_EDGE('',*,*,#499,.T.);
#312=ORIENTED_EDGE('',*,*,#500,.F.);
#313=ORIENTED_EDGE('',*,*,#373,.T.);
#314=ORIENTED_EDGE('',*,*,#501,.F.);
#315=ORIENTED_EDGE('',*,*,#500,.T.);
#316=ORIENTED_EDGE('',*,*,#502,.F.);
#317=ORIENTED_EDGE('',*,*,#372,.T.);
#318=ORIENTED_EDGE('',*,*,#503,.F.);
#319=ORIENTED_EDGE('',*,*,#502,.T.);
#320=ORIENTED_EDGE('',*,*,#504,.F.);
#321=ORIENTED_EDGE('',*,*,#371,.T.);
#322=ORIENTED_EDGE('',*,*,#505,.F.);
#323=ORIENTED_EDGE('',*,*,#504,.T.);
#324=ORIENTED_EDGE('',*,*,#483,.T.);
#325=ORIENTED_EDGE('',*,*,#505,.T.);
#326=ORIENTED_EDGE('',*,*,#484,.T.);
#327=ORIENTED_EDGE('',*,*,#503,.T.);
#328=ORIENTED_EDGE('',*,*,#485,.T.);
#329=ORIENTED_EDGE('',*,*,#501,.T.);
#330=ORIENTED_EDGE('',*,*,#506,.F.);
#331=ORIENTED_EDGE('',*,*,#378,.T.);
#332=ORIENTED_EDGE('',*,*,#507,.F.);
#333=ORIENTED_EDGE('',*,*,#506,.T.);
#334=ORIENTED_EDGE('',*,*,#477,.T.);
#335=ORIENTED_EDGE('',*,*,#507,.T.);
#336=ORIENTED_EDGE('',*,*,#508,.F.);
#337=ORIENTED_EDGE('',*,*,#366,.T.);
#338=ORIENTED_EDGE('',*,*,#509,.F.);
#339=ORIENTED_EDGE('',*,*,#508,.T.);
#340=ORIENTED_EDGE('',*,*,#479,.T.);
#341=ORIENTED_EDGE('',*,*,#509,.T.);
#342=ORIENTED_EDGE('',*,*,#386,.F.);
#343=ORIENTED_EDGE('',*,*,#359,.F.);
#344=ORIENTED_EDGE('',*,*,#454,.F.);
#345=ORIENTED_EDGE('',*,*,#370,.F.);
#346=ORIENTED_EDGE('',*,*,#385,.F.);
#347=ORIENTED_EDGE('',*,*,#382,.F.);
#348=ORIENTED_EDGE('',*,*,#475,.F.);
#349=ORIENTED_EDGE('',*,*,#361,.F.);
#350=ORIENTED_EDGE('',*,*,#383,.F.);
#351=ORIENTED_EDGE('',*,*,#368,.F.);
#352=ORIENTED_EDGE('',*,*,#453,.F.);
#353=ORIENTED_EDGE('',*,*,#375,.F.);
#354=ORIENTED_EDGE('',*,*,#384,.F.);
#355=ORIENTED_EDGE('',*,*,#377,.F.);
#356=ORIENTED_EDGE('',*,*,#476,.F.);
#357=ORIENTED_EDGE('',*,*,#380,.F.);
#358=EDGE_CURVE('',#510,#511,#618,.T.);
#359=EDGE_CURVE('',#511,#512,#619,.F.);
#360=EDGE_CURVE('',#512,#513,#620,.T.);
#361=EDGE_CURVE('',#513,#514,#621,.T.);
#362=EDGE_CURVE('',#514,#515,#622,.T.);
#363=EDGE_CURVE('',#515,#516,#623,.T.);
#364=EDGE_CURVE('',#517,#516,#624,.T.);
#365=EDGE_CURVE('',#510,#517,#625,.T.);
#366=EDGE_CURVE('',#518,#518,#26,.T.);
#367=EDGE_CURVE('',#519,#520,#626,.T.);
#368=EDGE_CURVE('',#520,#521,#627,.F.);
#369=EDGE_CURVE('',#522,#521,#628,.T.);
#370=EDGE_CURVE('',#522,#519,#629,.T.);
#371=EDGE_CURVE('',#523,#523,#27,.T.);
#372=EDGE_CURVE('',#524,#524,#28,.T.);
#373=EDGE_CURVE('',#525,#525,#29,.T.);
#374=EDGE_CURVE('',#526,#527,#630,.T.);
#375=EDGE_CURVE('',#527,#528,#631,.T.);
#376=EDGE_CURVE('',#529,#528,#632,.T.);
#377=EDGE_CURVE('',#529,#526,#633,.F.);
#378=EDGE_CURVE('',#530,#530,#30,.T.);
#379=EDGE_CURVE('',#531,#532,#634,.T.);
#380=EDGE_CURVE('',#532,#533,#635,.T.);
#381=EDGE_CURVE('',#534,#533,#636,.T.);
#382=EDGE_CURVE('',#534,#531,#637,.F.);
#383=EDGE_CURVE('',#521,#527,#31,.T.);
#384=EDGE_CURVE('',#526,#532,#32,.T.);
#385=EDGE_CURVE('',#531,#513,#33,.T.);
#386=EDGE_CURVE('',#512,#522,#34,.T.);
#387=EDGE_CURVE('',#516,#535,#638,.T.);
#388=EDGE_CURVE('',#535,#536,#639,.T.);
#389=EDGE_CURVE('',#537,#536,#640,.T.);
#390=EDGE_CURVE('',#538,#537,#641,.T.);
#391=EDGE_CURVE('',#539,#538,#642,.T.);
#392=EDGE_CURVE('',#540,#539,#643,.T.);
#393=EDGE_CURVE('',#541,#540,#644,.T.);
#394=EDGE_CURVE('',#542,#541,#645,.T.);
#395=EDGE_CURVE('',#543,#542,#646,.T.);
#396=EDGE_CURVE('',#544,#543,#647,.T.);
#397=EDGE_CURVE('',#545,#544,#648,.T.);
#398=EDGE_CURVE('',#546,#545,#649,.T.);
#399=EDGE_CURVE('',#547,#546,#650,.T.);
#400=EDGE_CURVE('',#547,#548,#651,.T.);
#401=EDGE_CURVE('',#548,#549,#652,.T.);
#402=EDGE_CURVE('',#550,#549,#653,.T.);
#403=EDGE_CURVE('',#550,#551,#654,.T.);
#404=EDGE_CURVE('',#551,#552,#655,.T.);
#405=EDGE_CURVE('',#552,#553,#656,.T.);
#406=EDGE_CURVE('',#553,#554,#657,.T.);
#407=EDGE_CURVE('',#555,#554,#658,.T.);
#408=EDGE_CURVE('',#556,#555,#659,.T.);
#409=EDGE_CURVE('',#556,#557,#660,.T.);
#410=EDGE_CURVE('',#557,#558,#661,.T.);
#411=EDGE_CURVE('',#558,#559,#662,.T.);
#412=EDGE_CURVE('',#559,#560,#663,.T.);
#413=EDGE_CURVE('',#560,#561,#664,.T.);
#414=EDGE_CURVE('',#561,#562,#665,.T.);
#415=EDGE_CURVE('',#562,#563,#666,.T.);
#416=EDGE_CURVE('',#563,#564,#667,.T.);
#417=EDGE_CURVE('',#564,#565,#668,.T.);
#418=EDGE_CURVE('',#565,#566,#669,.T.);
#419=EDGE_CURVE('',#566,#567,#670,.T.);
#420=EDGE_CURVE('',#568,#567,#671,.T.);
#421=EDGE_CURVE('',#568,#517,#672,.T.);
#422=EDGE_CURVE('',#569,#547,#673,.T.);
#423=EDGE_CURVE('',#569,#570,#674,.T.);
#424=EDGE_CURVE('',#570,#548,#675,.T.);
#425=EDGE_CURVE('',#571,#546,#676,.T.);
#426=EDGE_CURVE('',#569,#571,#677,.T.);
#427=EDGE_CURVE('',#572,#545,#678,.T.);
#428=EDGE_CURVE('',#571,#572,#679,.T.);
#429=EDGE_CURVE('',#573,#544,#680,.T.);
#430=EDGE_CURVE('',#572,#573,#681,.T.);
#431=EDGE_CURVE('',#574,#543,#682,.T.);
#432=EDGE_CURVE('',#573,#574,#683,.T.);
#433=EDGE_CURVE('',#575,#542,#684,.T.);
#434=EDGE_CURVE('',#574,#575,#685,.T.);
#435=EDGE_CURVE('',#576,#541,#686,.T.);
#436=EDGE_CURVE('',#575,#576,#687,.T.);
#437=EDGE_CURVE('',#577,#540,#688,.T.);
#438=EDGE_CURVE('',#576,#577,#689,.T.);
#439=EDGE_CURVE('',#578,#539,#690,.T.);
#440=EDGE_CURVE('',#577,#578,#691,.T.);
#441=EDGE_CURVE('',#579,#538,#692,.T.);
#442=EDGE_CURVE('',#578,#579,#693,.T.);
#443=EDGE_CURVE('',#580,#537,#694,.T.);
#444=EDGE_CURVE('',#579,#580,#695,.T.);
#445=EDGE_CURVE('',#581,#536,#696,.T.);
#446=EDGE_CURVE('',#580,#581,#697,.T.);
#447=EDGE_CURVE('',#582,#535,#698,.T.);
#448=EDGE_CURVE('',#582,#581,#699,.T.);
#449=EDGE_CURVE('',#583,#549,#700,.T.);
#450=EDGE_CURVE('',#584,#583,#701,.T.);
#451=EDGE_CURVE('',#584,#550,#702,.T.);
#452=EDGE_CURVE('',#570,#583,#703,.T.);
#453=EDGE_CURVE('',#528,#520,#35,.T.);
#454=EDGE_CURVE('',#519,#511,#36,.T.);
#455=EDGE_CURVE('',#585,#510,#704,.T.);
#456=EDGE_CURVE('',#585,#586,#705,.T.);
#457=EDGE_CURVE('',#587,#586,#706,.T.);
#458=EDGE_CURVE('',#588,#587,#707,.T.);
#459=EDGE_CURVE('',#589,#588,#708,.T.);
#460=EDGE_CURVE('',#590,#589,#709,.T.);
#461=EDGE_CURVE('',#591,#590,#710,.T.);
#462=EDGE_CURVE('',#592,#591,#711,.T.);
#463=EDGE_CURVE('',#593,#592,#712,.T.);
#464=EDGE_CURVE('',#594,#593,#713,.T.);
#465=EDGE_CURVE('',#595,#594,#714,.T.);
#466=EDGE_CURVE('',#596,#595,#715,.T.);
#467=EDGE_CURVE('',#597,#596,#716,.T.);
#468=EDGE_CURVE('',#597,#598,#717,.T.);
#469=EDGE_CURVE('',#598,#599,#718,.T.);
#470=EDGE_CURVE('',#600,#599,#719,.T.);
#471=EDGE_CURVE('',#601,#600,#720,.T.);
#472=EDGE_CURVE('',#602,#601,#721,.T.);
#473=EDGE_CURVE('',#584,#602,#722,.T.);
#474=EDGE_CURVE('',#515,#582,#723,.T.);
#475=EDGE_CURVE('',#514,#534,#37,.T.);
#476=EDGE_CURVE('',#533,#529,#38,.T.);
#477=EDGE_CURVE('',#603,#603,#39,.T.);
#478=EDGE_CURVE('',#602,#551,#724,.T.);
#479=EDGE_CURVE('',#604,#604,#40,.T.);
#480=EDGE_CURVE('',#600,#553,#725,.T.);
#481=EDGE_CURVE('',#601,#552,#726,.T.);
#482=EDGE_CURVE('',#585,#568,#727,.T.);
#483=EDGE_CURVE('',#605,#605,#41,.T.);
#484=EDGE_CURVE('',#606,#606,#42,.T.);
#485=EDGE_CURVE('',#607,#607,#43,.T.);
#486=EDGE_CURVE('',#586,#567,#728,.T.);
#487=EDGE_CURVE('',#587,#566,#729,.T.);
#488=EDGE_CURVE('',#588,#565,#730,.T.);
#489=EDGE_CURVE('',#589,#564,#731,.T.);
#490=EDGE_CURVE('',#590,#563,#732,.T.);
#491=EDGE_CURVE('',#591,#562,#733,.T.);
#492=EDGE_CURVE('',#592,#561,#734,.T.);
#493=EDGE_CURVE('',#593,#560,#735,.T.);
#494=EDGE_CURVE('',#594,#559,#736,.T.);
#495=EDGE_CURVE('',#595,#558,#737,.T.);
#496=EDGE_CURVE('',#596,#557,#738,.T.);
#497=EDGE_CURVE('',#597,#556,#739,.T.);
#498=EDGE_CURVE('',#598,#555,#740,.T.);
#499=EDGE_CURVE('',#599,#554,#741,.T.);
#500=EDGE_CURVE('',#608,#608,#44,.T.);
#501=EDGE_CURVE('',#609,#609,#45,.T.);
#502=EDGE_CURVE('',#610,#610,#46,.T.);
#503=EDGE_CURVE('',#611,#611,#47,.T.);
#504=EDGE_CURVE('',#612,#612,#48,.T.);
#505=EDGE_CURVE('',#613,#613,#49,.T.);
#506=EDGE_CURVE('',#614,#614,#50,.T.);
#507=EDGE_CURVE('',#615,#615,#51,.T.);
#508=EDGE_CURVE('',#616,#616,#52,.T.);
#509=EDGE_CURVE('',#617,#617,#53,.T.);
#510=VERTEX_POINT('',#1555);
#511=VERTEX_POINT('',#1556);
#512=VERTEX_POINT('',#1558);
#513=VERTEX_POINT('',#1560);
#514=VERTEX_POINT('',#1562);
#515=VERTEX_POINT('',#1564);
#516=VERTEX_POINT('',#1566);
#517=VERTEX_POINT('',#1568);
#518=VERTEX_POINT('',#1572);
#519=VERTEX_POINT('',#1574);
#520=VERTEX_POINT('',#1575);
#521=VERTEX_POINT('',#1577);
#522=VERTEX_POINT('',#1579);
#523=VERTEX_POINT('',#1583);
#524=VERTEX_POINT('',#1585);
#525=VERTEX_POINT('',#1587);
#526=VERTEX_POINT('',#1589);
#527=VERTEX_POINT('',#1590);
#528=VERTEX_POINT('',#1592);
#529=VERTEX_POINT('',#1594);
#530=VERTEX_POINT('',#1598);
#531=VERTEX_POINT('',#1600);
#532=VERTEX_POINT('',#1601);
#533=VERTEX_POINT('',#1603);
#534=VERTEX_POINT('',#1605);
#535=VERTEX_POINT('',#1614);
#536=VERTEX_POINT('',#1616);
#537=VERTEX_POINT('',#1618);
#538=VERTEX_POINT('',#1620);
#539=VERTEX_POINT('',#1622);
#540=VERTEX_POINT('',#1624);
#541=VERTEX_POINT('',#1626);
#542=VERTEX_POINT('',#1628);
#543=VERTEX_POINT('',#1630);
#544=VERTEX_POINT('',#1632);
#545=VERTEX_POINT('',#1634);
#546=VERTEX_POINT('',#1636);
#547=VERTEX_POINT('',#1638);
#548=VERTEX_POINT('',#1640);
#549=VERTEX_POINT('',#1642);
#550=VERTEX_POINT('',#1644);
#551=VERTEX_POINT('',#1646);
#552=VERTEX_POINT('',#1648);
#553=VERTEX_POINT('',#1650);
#554=VERTEX_POINT('',#1652);
#555=VERTEX_POINT('',#1654);
#556=VERTEX_POINT('',#1656);
#557=VERTEX_POINT('',#1658);
#558=VERTEX_POINT('',#1660);
#559=VERTEX_POINT('',#1662);
#560=VERTEX_POINT('',#1664);
#561=VERTEX_POINT('',#1666);
#562=VERTEX_POINT('',#1668);
#563=VERTEX_POINT('',#1670);
#564=VERTEX_POINT('',#1672);
#565=VERTEX_POINT('',#1674);
#566=VERTEX_POINT('',#1676);
#567=VERTEX_POINT('',#1678);
#568=VERTEX_POINT('',#1680);
#569=VERTEX_POINT('',#1684);
#570=VERTEX_POINT('',#1686);
#571=VERTEX_POINT('',#1690);
#572=VERTEX_POINT('',#1694);
#573=VERTEX_POINT('',#1698);
#574=VERTEX_POINT('',#1702);
#575=VERTEX_POINT('',#1706);
#576=VERTEX_POINT('',#1710);
#577=VERTEX_POINT('',#1714);
#578=VERTEX_POINT('',#1718);
#579=VERTEX_POINT('',#1722);
#580=VERTEX_POINT('',#1726);
#581=VERTEX_POINT('',#1730);
#582=VERTEX_POINT('',#1734);
#583=VERTEX_POINT('',#1738);
#584=VERTEX_POINT('',#1740);
#585=VERTEX_POINT('',#1748);
#586=VERTEX_POINT('',#1750);
#587=VERTEX_POINT('',#1752);
#588=VERTEX_POINT('',#1754);
#589=VERTEX_POINT('',#1756);
#590=VERTEX_POINT('',#1758);
#591=VERTEX_POINT('',#1760);
#592=VERTEX_POINT('',#1762);
#593=VERTEX_POINT('',#1764);
#594=VERTEX_POINT('',#1766);
#595=VERTEX_POINT('',#1768);
#596=VERTEX_POINT('',#1770);
#597=VERTEX_POINT('',#1772);
#598=VERTEX_POINT('',#1774);
#599=VERTEX_POINT('',#1776);
#600=VERTEX_POINT('',#1778);
#601=VERTEX_POINT('',#1780);
#602=VERTEX_POINT('',#1782);
#603=VERTEX_POINT('',#1789);
#604=VERTEX_POINT('',#1793);
#605=VERTEX_POINT('',#1800);
#606=VERTEX_POINT('',#1802);
#607=VERTEX_POINT('',#1804);
#608=VERTEX_POINT('',#1837);
#609=VERTEX_POINT('',#1840);
#610=VERTEX_POINT('',#1843);
#611=VERTEX_POINT('',#1846);
#612=VERTEX_POINT('',#1849);
#613=VERTEX_POINT('',#1852);
#614=VERTEX_POINT('',#1858);
#615=VERTEX_POINT('',#1861);
#616=VERTEX_POINT('',#1865);
#617=VERTEX_POINT('',#1868);
#618=LINE('',#1554,#742);
#619=LINE('',#1557,#743);
#620=LINE('',#1559,#744);
#621=LINE('',#1561,#745);
#622=LINE('',#1563,#746);
#623=LINE('',#1565,#747);
#624=LINE('',#1567,#748);
#625=LINE('',#1569,#749);
#626=LINE('',#1573,#750);
#627=LINE('',#1576,#751);
#628=LINE('',#1578,#752);
#629=LINE('',#1580,#753);
#630=LINE('',#1588,#754);
#631=LINE('',#1591,#755);
#632=LINE('',#1593,#756);
#633=LINE('',#1595,#757);
#634=LINE('',#1599,#758);
#635=LINE('',#1602,#759);
#636=LINE('',#1604,#760);
#637=LINE('',#1606,#761);
#638=LINE('',#1613,#762);
#639=LINE('',#1615,#763);
#640=LINE('',#1617,#764);
#641=LINE('',#1619,#765);
#642=LINE('',#1621,#766);
#643=LINE('',#1623,#767);
#644=LINE('',#1625,#768);
#645=LINE('',#1627,#769);
#646=LINE('',#1629,#770);
#647=LINE('',#1631,#771);
#648=LINE('',#1633,#772);
#649=LINE('',#1635,#773);
#650=LINE('',#1637,#774);
#651=LINE('',#1639,#775);
#652=LINE('',#1641,#776);
#653=LINE('',#1643,#777);
#654=LINE('',#1645,#778);
#655=LINE('',#1647,#779);
#656=LINE('',#1649,#780);
#657=LINE('',#1651,#781);
#658=LINE('',#1653,#782);
#659=LINE('',#1655,#783);
#660=LINE('',#1657,#784);
#661=LINE('',#1659,#785);
#662=LINE('',#1661,#786);
#663=LINE('',#1663,#787);
#664=LINE('',#1665,#788);
#665=LINE('',#1667,#789);
#666=LINE('',#1669,#790);
#667=LINE('',#1671,#791);
#668=LINE('',#1673,#792);
#669=LINE('',#1675,#793);
#670=LINE('',#1677,#794);
#671=LINE('',#1679,#795);
#672=LINE('',#1681,#796);
#673=LINE('',#1683,#797);
#674=LINE('',#1685,#798);
#675=LINE('',#1687,#799);
#676=LINE('',#1689,#800);
#677=LINE('',#1691,#801);
#678=LINE('',#1693,#802);
#679=LINE('',#1695,#803);
#680=LINE('',#1697,#804);
#681=LINE('',#1699,#805);
#682=LINE('',#1701,#806);
#683=LINE('',#1703,#807);
#684=LINE('',#1705,#808);
#685=LINE('',#1707,#809);
#686=LINE('',#1709,#810);
#687=LINE('',#1711,#811);
#688=LINE('',#1713,#812);
#689=LINE('',#1715,#813);
#690=LINE('',#1717,#814);
#691=LINE('',#1719,#815);
#692=LINE('',#1721,#816);
#693=LINE('',#1723,#817);
#694=LINE('',#1725,#818);
#695=LINE('',#1727,#819);
#696=LINE('',#1729,#820);
#697=LINE('',#1731,#821);
#698=LINE('',#1733,#822);
#699=LINE('',#1735,#823);
#700=LINE('',#1737,#824);
#701=LINE('',#1739,#825);
#702=LINE('',#1741,#826);
#703=LINE('',#1743,#827);
#704=LINE('',#1747,#828);
#705=LINE('',#1749,#829);
#706=LINE('',#1751,#830);
#707=LINE('',#1753,#831);
#708=LINE('',#1755,#832);
#709=LINE('',#1757,#833);
#710=LINE('',#1759,#834);
#711=LINE('',#1761,#835);
#712=LINE('',#1763,#836);
#713=LINE('',#1765,#837);
#714=LINE('',#1767,#838);
#715=LINE('',#1769,#839);
#716=LINE('',#1771,#840);
#717=LINE('',#1773,#841);
#718=LINE('',#1775,#842);
#719=LINE('',#1777,#843);
#720=LINE('',#1779,#844);
#721=LINE('',#1781,#845);
#722=LINE('',#1783,#846);
#723=LINE('',#1784,#847);
#724=LINE('',#1790,#848);
#725=LINE('',#1794,#849);
#726=LINE('',#1795,#850);
#727=LINE('',#1797,#851);
#728=LINE('',#1807,#852);
#729=LINE('',#1809,#853);
#730=LINE('',#1811,#854);
#731=LINE('',#1813,#855);
#732=LINE('',#1815,#856);
#733=LINE('',#1817,#857);
#734=LINE('',#1819,#858);
#735=LINE('',#1821,#859);
#736=LINE('',#1823,#860);
#737=LINE('',#1825,#861);
#738=LINE('',#1827,#862);
#739=LINE('',#1829,#863);
#740=LINE('',#1831,#864);
#741=LINE('',#1833,#865);
#742=VECTOR('',#1252,1.);
#743=VECTOR('',#1253,1.);
#744=VECTOR('',#1254,1.);
#745=VECTOR('',#1255,1.);
#746=VECTOR('',#1256,1.);
#747=VECTOR('',#1257,1.);
#748=VECTOR('',#1258,1.);
#749=VECTOR('',#1259,1.);
#750=VECTOR('',#1264,1.);
#751=VECTOR('',#1265,1.);
#752=VECTOR('',#1266,1.);
#753=VECTOR('',#1267,1.);
#754=VECTOR('',#1276,1.);
#755=VECTOR('',#1277,1.);
#756=VECTOR('',#1278,1.);
#757=VECTOR('',#1279,1.);
#758=VECTOR('',#1284,1.);
#759=VECTOR('',#1285,1.);
#760=VECTOR('',#1286,1.);
#761=VECTOR('',#1287,1.);
#762=VECTOR('',#1300,1.);
#763=VECTOR('',#1301,1.);
#764=VECTOR('',#1302,1.);
#765=VECTOR('',#1303,1.);
#766=VECTOR('',#1304,1.);
#767=VECTOR('',#1305,1.);
#768=VECTOR('',#1306,1.);
#769=VECTOR('',#1307,1.);
#770=VECTOR('',#1308,1.);
#771=VECTOR('',#1309,1.);
#772=VECTOR('',#1310,1.);
#773=VECTOR('',#1311,1.);
#774=VECTOR('',#1312,1.);
#775=VECTOR('',#1313,1.);
#776=VECTOR('',#1314,1.);
#777=VECTOR('',#1315,1.);
#778=VECTOR('',#1316,1.);
#779=VECTOR('',#1317,1.);
#780=VECTOR('',#1318,1.);
#781=VECTOR('',#1319,1.);
#782=VECTOR('',#1320,1.);
#783=VECTOR('',#1321,1.);
#784=VECTOR('',#1322,1.);
#785=VECTOR('',#1323,1.);
#786=VECTOR('',#1324,1.);
#787=VECTOR('',#1325,1.);
#788=VECTOR('',#1326,1.);
#789=VECTOR('',#1327,1.);
#790=VECTOR('',#1328,1.);
#791=VECTOR('',#1329,1.);
#792=VECTOR('',#1330,1.);
#793=VECTOR('',#1331,1.);
#794=VECTOR('',#1332,1.);
#795=VECTOR('',#1333,1.);
#796=VECTOR('',#1334,1.);
#797=VECTOR('',#1337,1.);
#798=VECTOR('',#1338,1.);
#799=VECTOR('',#1339,1.);
#800=VECTOR('',#1342,1.);
#801=VECTOR('',#1343,1.);
#802=VECTOR('',#1346,1.);
#803=VECTOR('',#1347,1.);
#804=VECTOR('',#1350,1.);
#805=VECTOR('',#1351,1.);
#806=VECTOR('',#1354,1.);
#807=VECTOR('',#1355,1.);
#808=VECTOR('',#1358,1.);
#809=VECTOR('',#1359,1.);
#810=VECTOR('',#1362,1.);
#811=VECTOR('',#1363,1.);
#812=VECTOR('',#1366,1.);
#813=VECTOR('',#1367,1.);
#814=VECTOR('',#1370,1.);
#815=VECTOR('',#1371,1.);
#816=VECTOR('',#1374,1.);
#817=VECTOR('',#1375,1.);
#818=VECTOR('',#1378,1.);
#819=VECTOR('',#1379,1.);
#820=VECTOR('',#1382,1.);
#821=VECTOR('',#1383,1.);
#822=VECTOR('',#1386,1.);
#823=VECTOR('',#1387,1.);
#824=VECTOR('',#1390,1.);
#825=VECTOR('',#1391,1.);
#826=VECTOR('',#1392,1.);
#827=VECTOR('',#1395,1.);
#828=VECTOR('',#1402,1.);
#829=VECTOR('',#1403,1.);
#830=VECTOR('',#1404,1.);
#831=VECTOR('',#1405,1.);
#832=VECTOR('',#1406,1.);
#833=VECTOR('',#1407,1.);
#834=VECTOR('',#1408,1.);
#835=VECTOR('',#1409,1.);
#836=VECTOR('',#1410,1.);
#837=VECTOR('',#1411,1.);
#838=VECTOR('',#1412,1.);
#839=VECTOR('',#1413,1.);
#840=VECTOR('',#1414,1.);
#841=VECTOR('',#1415,1.);
#842=VECTOR('',#1416,1.);
#843=VECTOR('',#1417,1.);
#844=VECTOR('',#1418,1.);
#845=VECTOR('',#1419,1.);
#846=VECTOR('',#1420,1.);
#847=VECTOR('',#1421,1.);
#848=VECTOR('',#1430,1.);
#849=VECTOR('',#1435,1.);
#850=VECTOR('',#1436,1.);
#851=VECTOR('',#1439,1.);
#852=VECTOR('',#1452,1.);
#853=VECTOR('',#1455,1.);
#854=VECTOR('',#1458,1.);
#855=VECTOR('',#1461,1.);
#856=VECTOR('',#1464,1.);
#857=VECTOR('',#1467,1.);
#858=VECTOR('',#1470,1.);
#859=VECTOR('',#1473,1.);
#860=VECTOR('',#1476,1.);
#861=VECTOR('',#1479,1.);
#862=VECTOR('',#1482,1.);
#863=VECTOR('',#1485,1.);
#864=VECTOR('',#1488,1.);
#865=VECTOR('',#1491,1.);
#866=EDGE_LOOP('',(#54,#55,#56,#57,#58,#59,#60,#61));
#867=EDGE_LOOP('',(#62));
#868=EDGE_LOOP('',(#63,#64,#65,#66));
#869=EDGE_LOOP('',(#67));
#870=EDGE_LOOP('',(#68));
#871=EDGE_LOOP('',(#69));
#872=EDGE_LOOP('',(#70,#71,#72,#73));
#873=EDGE_LOOP('',(#74));
#874=EDGE_LOOP('',(#75,#76,#77,#78));
#875=EDGE_LOOP('',(#79,#80,#81,#82,#83,#84,#85,#86));
#876=EDGE_LOOP('',(#87,#88,#89,#90,#91,#92,#93,#94,#95,#96,#97,#98,#99,
#100,#101,#102,#103,#104,#105,#106,#107,#108,#109,#110,#111,#112,#113,#114,
#115,#116,#117,#118,#119,#120,#121,#122));
#877=EDGE_LOOP('',(#123,#124,#125,#126));
#878=EDGE_LOOP('',(#127,#128,#129,#130));
#879=EDGE_LOOP('',(#131,#132,#133,#134));
#880=EDGE_LOOP('',(#135,#136,#137,#138));
#881=EDGE_LOOP('',(#139,#140,#141,#142));
#882=EDGE_LOOP('',(#143,#144,#145,#146));
#883=EDGE_LOOP('',(#147,#148,#149,#150));
#884=EDGE_LOOP('',(#151,#152,#153,#154));
#885=EDGE_LOOP('',(#155,#156,#157,#158));
#886=EDGE_LOOP('',(#159,#160,#161,#162));
#887=EDGE_LOOP('',(#163,#164,#165,#166));
#888=EDGE_LOOP('',(#167,#168,#169,#170));
#889=EDGE_LOOP('',(#171,#172,#173,#174));
#890=EDGE_LOOP('',(#175,#176,#177,#178));
#891=EDGE_LOOP('',(#179,#180,#181,#182));
#892=EDGE_LOOP('',(#183,#184,#185,#186,#187,#188,#189,#190,#191,#192,#193,
#194,#195,#196,#197,#198,#199,#200,#201,#202,#203,#204,#205,#206,#207,#208,
#209,#210,#211,#212,#213,#214,#215,#216,#217,#218,#219,#220,#221,#222,#223,
#224,#225,#226));
#893=EDGE_LOOP('',(#227));
#894=EDGE_LOOP('',(#228,#229,#230,#231));
#895=EDGE_LOOP('',(#232));
#896=EDGE_LOOP('',(#233,#234,#235,#236));
#897=EDGE_LOOP('',(#237,#238,#239,#240));
#898=EDGE_LOOP('',(#241));
#899=EDGE_LOOP('',(#242));
#900=EDGE_LOOP('',(#243));
#901=EDGE_LOOP('',(#244,#245,#246,#247));
#902=EDGE_LOOP('',(#248,#249,#250,#251));
#903=EDGE_LOOP('',(#252,#253,#254,#255));
#904=EDGE_LOOP('',(#256,#257,#258,#259));
#905=EDGE_LOOP('',(#260,#261,#262,#263));
#906=EDGE_LOOP('',(#264,#265,#266,#267));
#907=EDGE_LOOP('',(#268,#269,#270,#271));
#908=EDGE_LOOP('',(#272,#273,#274,#275));
#909=EDGE_LOOP('',(#276,#277,#278,#279));
#910=EDGE_LOOP('',(#280,#281,#282,#283));
#911=EDGE_LOOP('',(#284,#285,#286,#287));
#912=EDGE_LOOP('',(#288,#289,#290,#291));
#913=EDGE_LOOP('',(#292,#293,#294,#295));
#914=EDGE_LOOP('',(#296,#297,#298,#299));
#915=EDGE_LOOP('',(#300,#301,#302,#303));
#916=EDGE_LOOP('',(#304,#305,#306,#307));
#917=EDGE_LOOP('',(#308,#309,#310,#311));
#918=EDGE_LOOP('',(#312));
#919=EDGE_LOOP('',(#313));
#920=EDGE_LOOP('',(#314));
#921=EDGE_LOOP('',(#315));
#922=EDGE_LOOP('',(#316));
#923=EDGE_LOOP('',(#317));
#924=EDGE_LOOP('',(#318));
#925=EDGE_LOOP('',(#319));
#926=EDGE_LOOP('',(#320));
#927=EDGE_LOOP('',(#321));
#928=EDGE_LOOP('',(#322));
#929=EDGE_LOOP('',(#323));
#930=EDGE_LOOP('',(#324));
#931=EDGE_LOOP('',(#325));
#932=EDGE_LOOP('',(#326));
#933=EDGE_LOOP('',(#327));
#934=EDGE_LOOP('',(#328));
#935=EDGE_LOOP('',(#329));
#936=EDGE_LOOP('',(#330));
#937=EDGE_LOOP('',(#331));
#938=EDGE_LOOP('',(#332));
#939=EDGE_LOOP('',(#333));
#940=EDGE_LOOP('',(#334));
#941=EDGE_LOOP('',(#335));
#942=EDGE_LOOP('',(#336));
#943=EDGE_LOOP('',(#337));
#944=EDGE_LOOP('',(#338));
#945=EDGE_LOOP('',(#339));
#946=EDGE_LOOP('',(#340));
#947=EDGE_LOOP('',(#341));
#948=EDGE_LOOP('',(#342,#343,#344,#345));
#949=EDGE_LOOP('',(#346,#347,#348,#349));
#950=EDGE_LOOP('',(#350,#351,#352,#353));
#951=EDGE_LOOP('',(#354,#355,#356,#357));
#952=FACE_BOUND('',#866,.T.);
#953=FACE_BOUND('',#867,.T.);
#954=FACE_BOUND('',#868,.T.);
#955=FACE_BOUND('',#869,.T.);
#956=FACE_BOUND('',#870,.T.);
#957=FACE_BOUND('',#871,.T.);
#958=FACE_BOUND('',#872,.T.);
#959=FACE_BOUND('',#873,.T.);
#960=FACE_BOUND('',#874,.T.);
#961=FACE_BOUND('',#875,.T.);
#962=FACE_BOUND('',#876,.T.);
#963=FACE_BOUND('',#877,.T.);
#964=FACE_BOUND('',#878,.T.);
#965=FACE_BOUND('',#879,.T.);
#966=FACE_BOUND('',#880,.T.);
#967=FACE_BOUND('',#881,.T.);
#968=FACE_BOUND('',#882,.T.);
#969=FACE_BOUND('',#883,.T.);
#970=FACE_BOUND('',#884,.T.);
#971=FACE_BOUND('',#885,.T.);
#972=FACE_BOUND('',#886,.T.);
#973=FACE_BOUND('',#887,.T.);
#974=FACE_BOUND('',#888,.T.);
#975=FACE_BOUND('',#889,.T.);
#976=FACE_BOUND('',#890,.T.);
#977=FACE_BOUND('',#891,.T.);
#978=FACE_BOUND('',#892,.T.);
#979=FACE_BOUND('',#893,.T.);
#980=FACE_BOUND('',#894,.T.);
#981=FACE_BOUND('',#895,.T.);
#982=FACE_BOUND('',#896,.T.);
#983=FACE_BOUND('',#897,.T.);
#984=FACE_BOUND('',#898,.T.);
#985=FACE_BOUND('',#899,.T.);
#986=FACE_BOUND('',#900,.T.);
#987=FACE_BOUND('',#901,.T.);
#988=FACE_BOUND('',#902,.T.);
#989=FACE_BOUND('',#903,.T.);
#990=FACE_BOUND('',#904,.T.);
#991=FACE_BOUND('',#905,.T.);
#992=FACE_BOUND('',#906,.T.);
#993=FACE_BOUND('',#907,.T.);
#994=FACE_BOUND('',#908,.T.);
#995=FACE_BOUND('',#909,.T.);
#996=FACE_BOUND('',#910,.T.);
#997=FACE_BOUND('',#911,.T.);
#998=FACE_BOUND('',#912,.T.);
#999=FACE_BOUND('',#913,.T.);
#1000=FACE_BOUND('',#914,.T.);
#1001=FACE_BOUND('',#915,.T.);
#1002=FACE_BOUND('',#916,.T.);
#1003=FACE_BOUND('',#917,.T.);
#1004=FACE_BOUND('',#918,.T.);
#1005=FACE_BOUND('',#919,.T.);
#1006=FACE_BOUND('',#920,.T.);
#1007=FACE_BOUND('',#921,.T.);
#1008=FACE_BOUND('',#922,.T.);
#1009=FACE_BOUND('',#923,.T.);
#1010=FACE_BOUND('',#924,.T.);
#1011=FACE_BOUND('',#925,.T.);
#1012=FACE_BOUND('',#926,.T.);
#1013=FACE_BOUND('',#927,.T.);
#1014=FACE_BOUND('',#928,.T.);
#1015=FACE_BOUND('',#929,.T.);
#1016=FACE_BOUND('',#930,.T.);
#1017=FACE_BOUND('',#931,.T.);
#1018=FACE_BOUND('',#932,.T.);
#1019=FACE_BOUND('',#933,.T.);
#1020=FACE_BOUND('',#934,.T.);
#1021=FACE_BOUND('',#935,.T.);
#1022=FACE_BOUND('',#936,.T.);
#1023=FACE_BOUND('',#937,.T.);
#1024=FACE_BOUND('',#938,.T.);
#1025=FACE_BOUND('',#939,.T.);
#1026=FACE_BOUND('',#940,.T.);
#1027=FACE_BOUND('',#941,.T.);
#1028=FACE_BOUND('',#942,.T.);
#1029=FACE_BOUND('',#943,.T.);
#1030=FACE_BOUND('',#944,.T.);
#1031=FACE_BOUND('',#945,.T.);
#1032=FACE_BOUND('',#946,.T.);
#1033=FACE_BOUND('',#947,.T.);
#1034=FACE_BOUND('',#948,.T.);
#1035=FACE_BOUND('',#949,.T.);
#1036=FACE_BOUND('',#950,.T.);
#1037=FACE_BOUND('',#951,.T.);
#1038=PLANE('',#1159);
#1039=PLANE('',#1160);
#1040=PLANE('',#1162);
#1041=PLANE('',#1166);
#1042=PLANE('',#1168);
#1043=PLANE('',#1173);
#1044=PLANE('',#1174);
#1045=PLANE('',#1175);
#1046=PLANE('',#1176);
#1047=PLANE('',#1177);
#1048=PLANE('',#1178);
#1049=PLANE('',#1179);
#1050=PLANE('',#1180);
#1051=PLANE('',#1181);
#1052=PLANE('',#1182);
#1053=PLANE('',#1183);
#1054=PLANE('',#1184);
#1055=PLANE('',#1185);
#1056=PLANE('',#1186);
#1057=PLANE('',#1187);
#1058=PLANE('',#1188);
#1059=PLANE('',#1189);
#1060=PLANE('',#1194);
#1061=PLANE('',#1196);
#1062=PLANE('',#1198);
#1063=PLANE('',#1199);
#1064=PLANE('',#1203);
#1065=PLANE('',#1204);
#1066=PLANE('',#1205);
#1067=PLANE('',#1206);
#1068=PLANE('',#1207);
#1069=PLANE('',#1208);
#1070=PLANE('',#1209);
#1071=PLANE('',#1210);
#1072=PLANE('',#1211);
#1073=PLANE('',#1212);
#1074=PLANE('',#1213);
#1075=PLANE('',#1214);
#1076=PLANE('',#1215);
#1077=PLANE('',#1216);
#1078=PLANE('',#1217);
#1079=PLANE('',#1218);
#1080=PLANE('',#1221);
#1081=PLANE('',#1225);
#1082=PLANE('',#1229);
#1083=PLANE('',#1236);
#1084=PLANE('',#1241);
#1085=ADVANCED_FACE('',(#952),#1038,.T.);
#1086=ADVANCED_FACE('',(#953,#954),#1039,.F.);
#1087=ADVANCED_FACE('',(#955,#956,#957,#958),#1040,.T.);
#1088=ADVANCED_FACE('',(#959,#960),#1041,.T.);
#1089=ADVANCED_FACE('',(#961),#1042,.T.);
#1090=ADVANCED_FACE('',(#962),#1043,.F.);
#1091=ADVANCED_FACE('',(#963),#1044,.T.);
#1092=ADVANCED_FACE('',(#964),#1045,.F.);
#1093=ADVANCED_FACE('',(#965),#1046,.F.);
#1094=ADVANCED_FACE('',(#966),#1047,.F.);
#1095=ADVANCED_FACE('',(#967),#1048,.F.);
#1096=ADVANCED_FACE('',(#968),#1049,.F.);
#1097=ADVANCED_FACE('',(#969),#1050,.F.);
#1098=ADVANCED_FACE('',(#970),#1051,.F.);
#1099=ADVANCED_FACE('',(#971),#1052,.F.);
#1100=ADVANCED_FACE('',(#972),#1053,.F.);
#1101=ADVANCED_FACE('',(#973),#1054,.F.);
#1102=ADVANCED_FACE('',(#974),#1055,.F.);
#1103=ADVANCED_FACE('',(#975),#1056,.T.);
#1104=ADVANCED_FACE('',(#976),#1057,.F.);
#1105=ADVANCED_FACE('',(#977),#1058,.T.);
#1106=ADVANCED_FACE('',(#978),#1059,.T.);
#1107=ADVANCED_FACE('',(#979,#980),#1060,.T.);
#1108=ADVANCED_FACE('',(#981,#982),#1061,.T.);
#1109=ADVANCED_FACE('',(#983),#1062,.T.);
#1110=ADVANCED_FACE('',(#984,#985,#986,#987),#1063,.T.);
#1111=ADVANCED_FACE('',(#988),#1064,.T.);
#1112=ADVANCED_FACE('',(#989),#1065,.F.);
#1113=ADVANCED_FACE('',(#990),#1066,.T.);
#1114=ADVANCED_FACE('',(#991),#1067,.T.);
#1115=ADVANCED_FACE('',(#992),#1068,.T.);
#1116=ADVANCED_FACE('',(#993),#1069,.T.);
#1117=ADVANCED_FACE('',(#994),#1070,.T.);
#1118=ADVANCED_FACE('',(#995),#1071,.T.);
#1119=ADVANCED_FACE('',(#996),#1072,.T.);
#1120=ADVANCED_FACE('',(#997),#1073,.T.);
#1121=ADVANCED_FACE('',(#998),#1074,.T.);
#1122=ADVANCED_FACE('',(#999),#1075,.T.);
#1123=ADVANCED_FACE('',(#1000),#1076,.T.);
#1124=ADVANCED_FACE('',(#1001),#1077,.F.);
#1125=ADVANCED_FACE('',(#1002),#1078,.F.);
#1126=ADVANCED_FACE('',(#1003),#1079,.T.);
#1127=ADVANCED_FACE('',(#1004,#1005),#12,.F.);
#1128=ADVANCED_FACE('',(#1006,#1007),#1080,.T.);
#1129=ADVANCED_FACE('',(#1008,#1009),#13,.F.);
#1130=ADVANCED_FACE('',(#1010,#1011),#1081,.T.);
#1131=ADVANCED_FACE('',(#1012,#1013),#14,.F.);
#1132=ADVANCED_FACE('',(#1014,#1015),#1082,.T.);
#1133=ADVANCED_FACE('',(#1016,#1017),#15,.F.);
#1134=ADVANCED_FACE('',(#1018,#1019),#16,.F.);
#1135=ADVANCED_FACE('',(#1020,#1021),#17,.F.);
#1136=ADVANCED_FACE('',(#1022,#1023),#18,.F.);
#1137=ADVANCED_FACE('',(#1024,#1025),#1083,.T.);
#1138=ADVANCED_FACE('',(#1026,#1027),#19,.F.);
#1139=ADVANCED_FACE('',(#1028,#1029),#20,.F.);
#1140=ADVANCED_FACE('',(#1030,#1031),#1084,.T.);
#1141=ADVANCED_FACE('',(#1032,#1033),#21,.F.);
#1142=ADVANCED_FACE('',(#1034),#22,.T.);
#1143=ADVANCED_FACE('',(#1035),#23,.T.);
#1144=ADVANCED_FACE('',(#1036),#24,.T.);
#1145=ADVANCED_FACE('',(#1037),#25,.T.);
#1146=CLOSED_SHELL('',(#1085,#1086,#1087,#1088,#1089,#1090,#1091,#1092,
#1093,#1094,#1095,#1096,#1097,#1098,#1099,#1100,#1101,#1102,#1103,#1104,
#1105,#1106,#1107,#1108,#1109,#1110,#1111,#1112,#1113,#1114,#1115,#1116,
#1117,#1118,#1119,#1120,#1121,#1122,#1123,#1124,#1125,#1126,#1127,#1128,
#1129,#1130,#1131,#1132,#1133,#1134,#1135,#1136,#1137,#1138,#1139,#1140,
#1141,#1142,#1143,#1144,#1145));
#1147=STYLED_ITEM('',(#1148),#1155);
#1148=PRESENTATION_STYLE_ASSIGNMENT((#1149));
#1149=SURFACE_STYLE_USAGE(.BOTH.,#1150);
#1150=SURFACE_SIDE_STYLE('',(#1151));
#1151=SURFACE_STYLE_FILL_AREA(#1152);
#1152=FILL_AREA_STYLE('',(#1153));
#1153=FILL_AREA_STYLE_COLOUR('',#1154);
#1154=COLOUR_RGB('',0.231372549019608,0.380392156862745,0.705882352941177);
#1155=MANIFOLD_SOLID_BREP('case',#1146);
#1156=SHAPE_DEFINITION_REPRESENTATION(#1880,#1157);
#1157=SHAPE_REPRESENTATION('case',(#1158),#1875);
#1158=AXIS2_PLACEMENT_3D('',#1552,#1248,#1249);
#1159=AXIS2_PLACEMENT_3D('',#1553,#1250,#1251);
#1160=AXIS2_PLACEMENT_3D('',#1570,#1260,#1261);
#1161=AXIS2_PLACEMENT_3D('',#1571,#1262,#1263);
#1162=AXIS2_PLACEMENT_3D('',#1581,#1268,#1269);
#1163=AXIS2_PLACEMENT_3D('',#1582,#1270,#1271);
#1164=AXIS2_PLACEMENT_3D('',#1584,#1272,#1273);
#1165=AXIS2_PLACEMENT_3D('',#1586,#1274,#1275);
#1166=AXIS2_PLACEMENT_3D('',#1596,#1280,#1281);
#1167=AXIS2_PLACEMENT_3D('',#1597,#1282,#1283);
#1168=AXIS2_PLACEMENT_3D('',#1607,#1288,#1289);
#1169=AXIS2_PLACEMENT_3D('',#1608,#1290,#1291);
#1170=AXIS2_PLACEMENT_3D('',#1609,#1292,#1293);
#1171=AXIS2_PLACEMENT_3D('',#1610,#1294,#1295);
#1172=AXIS2_PLACEMENT_3D('',#1611,#1296,#1297);
#1173=AXIS2_PLACEMENT_3D('',#1612,#1298,#1299);
#1174=AXIS2_PLACEMENT_3D('',#1682,#1335,#1336);
#1175=AXIS2_PLACEMENT_3D('',#1688,#1340,#1341);
#1176=AXIS2_PLACEMENT_3D('',#1692,#1344,#1345);
#1177=AXIS2_PLACEMENT_3D('',#1696,#1348,#1349);
#1178=AXIS2_PLACEMENT_3D('',#1700,#1352,#1353);
#1179=AXIS2_PLACEMENT_3D('',#1704,#1356,#1357);
#1180=AXIS2_PLACEMENT_3D('',#1708,#1360,#1361);
#1181=AXIS2_PLACEMENT_3D('',#1712,#1364,#1365);
#1182=AXIS2_PLACEMENT_3D('',#1716,#1368,#1369);
#1183=AXIS2_PLACEMENT_3D('',#1720,#1372,#1373);
#1184=AXIS2_PLACEMENT_3D('',#1724,#1376,#1377);
#1185=AXIS2_PLACEMENT_3D('',#1728,#1380,#1381);
#1186=AXIS2_PLACEMENT_3D('',#1732,#1384,#1385);
#1187=AXIS2_PLACEMENT_3D('',#1736,#1388,#1389);
#1188=AXIS2_PLACEMENT_3D('',#1742,#1393,#1394);
#1189=AXIS2_PLACEMENT_3D('',#1744,#1396,#1397);
#1190=AXIS2_PLACEMENT_3D('',#1745,#1398,#1399);
#1191=AXIS2_PLACEMENT_3D('',#1746,#1400,#1401);
#1192=AXIS2_PLACEMENT_3D('',#1785,#1422,#1423);
#1193=AXIS2_PLACEMENT_3D('',#1786,#1424,#1425);
#1194=AXIS2_PLACEMENT_3D('',#1787,#1426,#1427);
#1195=AXIS2_PLACEMENT_3D('',#1788,#1428,#1429);
#1196=AXIS2_PLACEMENT_3D('',#1791,#1431,#1432);
#1197=AXIS2_PLACEMENT_3D('',#1792,#1433,#1434);
#1198=AXIS2_PLACEMENT_3D('',#1796,#1437,#1438);
#1199=AXIS2_PLACEMENT_3D('',#1798,#1440,#1441);
#1200=AXIS2_PLACEMENT_3D('',#1799,#1442,#1443);
#1201=AXIS2_PLACEMENT_3D('',#1801,#1444,#1445);
#1202=AXIS2_PLACEMENT_3D('',#1803,#1446,#1447);
#1203=AXIS2_PLACEMENT_3D('',#1805,#1448,#1449);
#1204=AXIS2_PLACEMENT_3D('',#1806,#1450,#1451);
#1205=AXIS2_PLACEMENT_3D('',#1808,#1453,#1454);
#1206=AXIS2_PLACEMENT_3D('',#1810,#1456,#1457);
#1207=AXIS2_PLACEMENT_3D('',#1812,#1459,#1460);
#1208=AXIS2_PLACEMENT_3D('',#1814,#1462,#1463);
#1209=AXIS2_PLACEMENT_3D('',#1816,#1465,#1466);
#1210=AXIS2_PLACEMENT_3D('',#1818,#1468,#1469);
#1211=AXIS2_PLACEMENT_3D('',#1820,#1471,#1472);
#1212=AXIS2_PLACEMENT_3D('',#1822,#1474,#1475);
#1213=AXIS2_PLACEMENT_3D('',#1824,#1477,#1478);
#1214=AXIS2_PLACEMENT_3D('',#1826,#1480,#1481);
#1215=AXIS2_PLACEMENT_3D('',#1828,#1483,#1484);
#1216=AXIS2_PLACEMENT_3D('',#1830,#1486,#1487);
#1217=AXIS2_PLACEMENT_3D('',#1832,#1489,#1490);
#1218=AXIS2_PLACEMENT_3D('',#1834,#1492,#1493);
#1219=AXIS2_PLACEMENT_3D('',#1835,#1494,#1495);
#1220=AXIS2_PLACEMENT_3D('',#1836,#1496,#1497);
#1221=AXIS2_PLACEMENT_3D('',#1838,#1498,#1499);
#1222=AXIS2_PLACEMENT_3D('',#1839,#1500,#1501);
#1223=AXIS2_PLACEMENT_3D('',#1841,#1502,#1503);
#1224=AXIS2_PLACEMENT_3D('',#1842,#1504,#1505);
#1225=AXIS2_PLACEMENT_3D('',#1844,#1506,#1507);
#1226=AXIS2_PLACEMENT_3D('',#1845,#1508,#1509);
#1227=AXIS2_PLACEMENT_3D('',#1847,#1510,#1511);
#1228=AXIS2_PLACEMENT_3D('',#1848,#1512,#1513);
#1229=AXIS2_PLACEMENT_3D('',#1850,#1514,#1515);
#1230=AXIS2_PLACEMENT_3D('',#1851,#1516,#1517);
#1231=AXIS2_PLACEMENT_3D('',#1853,#1518,#1519);
#1232=AXIS2_PLACEMENT_3D('',#1854,#1520,#1521);
#1233=AXIS2_PLACEMENT_3D('',#1855,#1522,#1523);
#1234=AXIS2_PLACEMENT_3D('',#1856,#1524,#1525);
#1235=AXIS2_PLACEMENT_3D('',#1857,#1526,#1527);
#1236=AXIS2_PLACEMENT_3D('',#1859,#1528,#1529);
#1237=AXIS2_PLACEMENT_3D('',#1860,#1530,#1531);
#1238=AXIS2_PLACEMENT_3D('',#1862,#1532,#1533);
#1239=AXIS2_PLACEMENT_3D('',#1863,#1534,#1535);
#1240=AXIS2_PLACEMENT_3D('',#1864,#1536,#1537);
#1241=AXIS2_PLACEMENT_3D('',#1866,#1538,#1539);
#1242=AXIS2_PLACEMENT_3D('',#1867,#1540,#1541);
#1243=AXIS2_PLACEMENT_3D('',#1869,#1542,#1543);
#1244=AXIS2_PLACEMENT_3D('',#1870,#1544,#1545);
#1245=AXIS2_PLACEMENT_3D('',#1871,#1546,#1547);
#1246=AXIS2_PLACEMENT_3D('',#1872,#1548,#1549);
#1247=AXIS2_PLACEMENT_3D('',#1873,#1550,#1551);
#1248=DIRECTION('',(0.,0.,1.));
#1249=DIRECTION('',(1.,0.,0.));
#1250=DIRECTION('',(0.,1.,2.01858731750028E-16));
#1251=DIRECTION('',(0.,-2.01858731750028E-16,1.));
#1252=DIRECTION('',(0.,0.,-1.));
#1253=DIRECTION('',(1.,0.,0.));
#1254=DIRECTION('',(0.,-2.01858731750028E-16,1.));
#1255=DIRECTION('',(1.,0.,0.));
#1256=DIRECTION('',(0.,0.,-1.));
#1257=DIRECTION('',(-1.,0.,0.));
#1258=DIRECTION('',(0.,-2.01858731750028E-16,1.));
#1259=DIRECTION('',(-1.,0.,0.));
#1260=DIRECTION('',(0.,0.,1.));
#1261=DIRECTION('',(0.,-1.,0.));
#1262=DIRECTION('',(0.,0.,-1.));
#1263=DIRECTION('',(0.,1.,0.));
#1264=DIRECTION('',(0.,-1.,0.));
#1265=DIRECTION('',(1.,0.,0.));
#1266=DIRECTION('',(0.,-1.,0.));
#1267=DIRECTION('',(1.,0.,0.));
#1268=DIRECTION('',(0.,-1.,-2.01858731750028E-16));
#1269=DIRECTION('',(0.,2.01858731750028E-16,-1.));
#1270=DIRECTION('',(0.,-1.,-2.01858731750028E-16));
#1271=DIRECTION('',(0.,2.01858731750028E-16,-1.));
#1272=DIRECTION('',(0.,-1.,-2.01858731750028E-16));
#1273=DIRECTION('',(0.,2.01858731750028E-16,-1.));
#1274=DIRECTION('',(0.,-1.,-2.01858731750028E-16));
#1275=DIRECTION('',(0.,2.01858731750028E-16,-1.));
#1276=DIRECTION('',(0.,2.01858731750028E-16,-1.));
#1277=DIRECTION('',(1.,0.,0.));
#1278=DIRECTION('',(0.,2.01858731750028E-16,-1.));
#1279=DIRECTION('',(1.,0.,0.));
#1280=DIRECTION('',(0.,0.,1.));
#1281=DIRECTION('',(0.,-1.,0.));
#1282=DIRECTION('',(0.,0.,1.));
#1283=DIRECTION('',(0.,-1.,0.));
#1284=DIRECTION('',(0.,-1.,0.));
#1285=DIRECTION('',(1.,0.,0.));
#1286=DIRECTION('',(0.,-1.,0.));
#1287=DIRECTION('',(1.,0.,0.));
#1288=DIRECTION('',(-1.,0.,0.));
#1289=DIRECTION('',(0.,0.,1.));
#1290=DIRECTION('',(-1.,0.,0.));
#1291=DIRECTION('',(0.,1.,0.));
#1292=DIRECTION('',(-1.,0.,0.));
#1293=DIRECTION('',(0.,1.,0.));
#1294=DIRECTION('',(-1.,0.,0.));
#1295=DIRECTION('',(0.,1.,0.));
#1296=DIRECTION('',(-1.,0.,0.));
#1297=DIRECTION('',(0.,1.,0.));
#1298=DIRECTION('',(-1.,0.,0.));
#1299=DIRECTION('',(0.,0.,1.));
#1300=DIRECTION('',(0.,-1.,0.));
#1301=DIRECTION('',(0.,0.,-1.));
#1302=DIRECTION('',(0.,1.,0.));
#1303=DIRECTION('',(0.,0.,-1.));
#1304=DIRECTION('',(0.,1.,0.));
#1305=DIRECTION('',(0.,0.,1.));
#1306=DIRECTION('',(0.,1.,0.));
#1307=DIRECTION('',(0.,0.,1.));
#1308=DIRECTION('',(0.,-1.,0.));
#1309=DIRECTION('',(0.,0.,1.));
#1310=DIRECTION('',(0.,-1.,0.));
#1311=DIRECTION('',(0.,0.,-1.));
#1312=DIRECTION('',(0.,-1.,0.));
#1313=DIRECTION('',(0.,0.,-1.));
#1314=DIRECTION('',(0.,-1.,0.));
#1315=DIRECTION('',(0.,0.,-1.));
#1316=DIRECTION('',(0.,-1.,0.));
#1317=DIRECTION('',(0.,2.14328769232655E-16,-1.));
#1318=DIRECTION('',(0.,1.,2.89120579329468E-16));
#1319=DIRECTION('',(0.,0.,1.));
#1320=DIRECTION('',(0.,-1.,-3.46944695195361E-16));
#1321=DIRECTION('',(0.,0.,1.));
#1322=DIRECTION('',(0.,-1.,0.));
#1323=DIRECTION('',(0.,0.,1.));
#1324=DIRECTION('',(0.,-1.,0.));
#1325=DIRECTION('',(0.,0.,-1.));
#1326=DIRECTION('',(0.,-1.,0.));
#1327=DIRECTION('',(0.,0.,-1.));
#1328=DIRECTION('',(0.,1.,0.));
#1329=DIRECTION('',(0.,0.,-1.));
#1330=DIRECTION('',(0.,1.,0.));
#1331=DIRECTION('',(0.,0.,1.));
#1332=DIRECTION('',(0.,1.,0.));
#1333=DIRECTION('',(0.,0.,1.));
#1334=DIRECTION('',(0.,1.,2.89120579329468E-16));
#1335=DIRECTION('',(0.,1.,0.));
#1336=DIRECTION('',(1.,0.,0.));
#1337=DIRECTION('',(-1.,0.,0.));
#1338=DIRECTION('',(0.,0.,-1.));
#1339=DIRECTION('',(-1.,0.,0.));
#1340=DIRECTION('',(0.,0.,-1.));
#1341=DIRECTION('',(0.,1.,0.));
#1342=DIRECTION('',(-1.,0.,0.));
#1343=DIRECTION('',(0.,-1.,0.));
#1344=DIRECTION('',(0.,1.,0.));
#1345=DIRECTION('',(1.,0.,0.));
#1346=DIRECTION('',(-1.,0.,0.));
#1347=DIRECTION('',(0.,0.,-1.));
#1348=DIRECTION('',(0.,0.,-1.));
#1349=DIRECTION('',(0.,1.,0.));
#1350=DIRECTION('',(-1.,0.,0.));
#1351=DIRECTION('',(0.,-1.,0.));
#1352=DIRECTION('',(0.,-1.,0.));
#1353=DIRECTION('',(-1.,0.,0.));
#1354=DIRECTION('',(-1.,0.,0.));
#1355=DIRECTION('',(0.,0.,1.));
#1356=DIRECTION('',(0.,0.,-1.));
#1357=DIRECTION('',(0.,1.,0.));
#1358=DIRECTION('',(-1.,0.,0.));
#1359=DIRECTION('',(0.,-1.,0.));
#1360=DIRECTION('',(0.,-1.,0.));
#1361=DIRECTION('',(-1.,0.,0.));
#1362=DIRECTION('',(-1.,0.,0.));
#1363=DIRECTION('',(0.,0.,1.));
#1364=DIRECTION('',(0.,0.,1.));
#1365=DIRECTION('',(0.,-1.,0.));
#1366=DIRECTION('',(-1.,0.,0.));
#1367=DIRECTION('',(0.,1.,0.));
#1368=DIRECTION('',(0.,-1.,0.));
#1369=DIRECTION('',(-1.,0.,0.));
#1370=DIRECTION('',(-1.,0.,0.));
#1371=DIRECTION('',(0.,0.,1.));
#1372=DIRECTION('',(0.,0.,1.));
#1373=DIRECTION('',(0.,-1.,0.));
#1374=DIRECTION('',(-1.,0.,0.));
#1375=DIRECTION('',(0.,1.,0.));
#1376=DIRECTION('',(0.,1.,0.));
#1377=DIRECTION('',(1.,0.,0.));
#1378=DIRECTION('',(-1.,0.,0.));
#1379=DIRECTION('',(0.,0.,-1.));
#1380=DIRECTION('',(0.,0.,1.));
#1381=DIRECTION('',(0.,-1.,0.));
#1382=DIRECTION('',(-1.,0.,0.));
#1383=DIRECTION('',(0.,1.,0.));
#1384=DIRECTION('',(0.,1.,0.));
#1385=DIRECTION('',(1.,0.,0.));
#1386=DIRECTION('',(-1.,0.,0.));
#1387=DIRECTION('',(0.,0.,-1.));
#1388=DIRECTION('',(0.,1.,0.));
#1389=DIRECTION('',(1.,0.,0.));
#1390=DIRECTION('',(-1.,0.,0.));
#1391=DIRECTION('',(0.,0.,-1.));
#1392=DIRECTION('',(-1.,0.,0.));
#1393=DIRECTION('',(0.,0.,-1.));
#1394=DIRECTION('',(0.,1.,0.));
#1395=DIRECTION('',(0.,-1.,0.));
#1396=DIRECTION('',(1.,0.,0.));
#1397=DIRECTION('',(0.,0.,-1.));
#1398=DIRECTION('',(1.,0.,0.));
#1399=DIRECTION('',(0.,-1.,0.));
#1400=DIRECTION('',(1.,0.,0.));
#1401=DIRECTION('',(0.,-1.,0.));
#1402=DIRECTION('',(0.,1.,2.89120579329468E-16));
#1403=DIRECTION('',(0.,0.,1.));
#1404=DIRECTION('',(0.,1.,0.));
#1405=DIRECTION('',(0.,0.,1.));
#1406=DIRECTION('',(0.,1.,0.));
#1407=DIRECTION('',(0.,0.,-1.));
#1408=DIRECTION('',(0.,1.,0.));
#1409=DIRECTION('',(0.,0.,-1.));
#1410=DIRECTION('',(0.,-1.,0.));
#1411=DIRECTION('',(0.,0.,-1.));
#1412=DIRECTION('',(0.,-1.,0.));
#1413=DIRECTION('',(0.,0.,1.));
#1414=DIRECTION('',(0.,-1.,0.));
#1415=DIRECTION('',(0.,0.,1.));
#1416=DIRECTION('',(0.,-1.,-3.46944695195361E-16));
#1417=DIRECTION('',(0.,0.,1.));
#1418=DIRECTION('',(0.,1.,2.89120579329468E-16));
#1419=DIRECTION('',(0.,2.14328769232655E-16,-1.));
#1420=DIRECTION('',(0.,-1.,0.));
#1421=DIRECTION('',(0.,-1.,0.));
#1422=DIRECTION('',(1.,0.,0.));
#1423=DIRECTION('',(0.,-1.,0.));
#1424=DIRECTION('',(1.,0.,0.));
#1425=DIRECTION('',(0.,-1.,0.));
#1426=DIRECTION('',(0.,0.,-1.));
#1427=DIRECTION('',(0.,1.,0.));
#1428=DIRECTION('',(0.,0.,-1.));
#1429=DIRECTION('',(0.,1.,0.));
#1430=DIRECTION('',(-1.,0.,0.));
#1431=DIRECTION('',(0.,-2.89120579329468E-16,1.));
#1432=DIRECTION('',(0.,-1.,-2.89120579329468E-16));
#1433=DIRECTION('',(0.,-2.89120579329468E-16,1.));
#1434=DIRECTION('',(0.,-1.,-2.89120579329468E-16));
#1435=DIRECTION('',(-1.,0.,0.));
#1436=DIRECTION('',(-1.,0.,0.));
#1437=DIRECTION('',(0.,-2.89120579329468E-16,1.));
#1438=DIRECTION('',(0.,-1.,-2.89120579329468E-16));
#1439=DIRECTION('',(-1.,0.,0.));
#1440=DIRECTION('',(0.,1.,2.14328769232655E-16));
#1441=DIRECTION('',(0.,-2.14328769232655E-16,1.));
#1442=DIRECTION('',(0.,1.,2.14328769232655E-16));
#1443=DIRECTION('',(0.,-2.14328769232655E-16,1.));
#1444=DIRECTION('',(0.,1.,2.14328769232655E-16));
#1445=DIRECTION('',(0.,-2.14328769232655E-16,1.));
#1446=DIRECTION('',(0.,1.,2.14328769232655E-16));
#1447=DIRECTION('',(0.,-2.14328769232655E-16,1.));
#1448=DIRECTION('',(0.,0.,-1.));
#1449=DIRECTION('',(0.,1.,0.));
#1450=DIRECTION('',(0.,-1.,0.));
#1451=DIRECTION('',(-1.,0.,0.));
#1452=DIRECTION('',(-1.,0.,0.));
#1453=DIRECTION('',(0.,0.,1.));
#1454=DIRECTION('',(0.,-1.,0.));
#1455=DIRECTION('',(-1.,0.,0.));
#1456=DIRECTION('',(0.,-1.,0.));
#1457=DIRECTION('',(-1.,0.,0.));
#1458=DIRECTION('',(-1.,0.,0.));
#1459=DIRECTION('',(0.,0.,1.));
#1460=DIRECTION('',(0.,-1.,0.));
#1461=DIRECTION('',(-1.,0.,0.));
#1462=DIRECTION('',(0.,1.,0.));
#1463=DIRECTION('',(1.,0.,0.));
#1464=DIRECTION('',(-1.,0.,0.));
#1465=DIRECTION('',(0.,0.,1.));
#1466=DIRECTION('',(0.,-1.,0.));
#1467=DIRECTION('',(-1.,0.,0.));
#1468=DIRECTION('',(0.,1.,0.));
#1469=DIRECTION('',(1.,0.,0.));
#1470=DIRECTION('',(-1.,0.,0.));
#1471=DIRECTION('',(0.,0.,-1.));
#1472=DIRECTION('',(0.,1.,0.));
#1473=DIRECTION('',(-1.,0.,0.));
#1474=DIRECTION('',(0.,1.,0.));
#1475=DIRECTION('',(1.,0.,0.));
#1476=DIRECTION('',(-1.,0.,0.));
#1477=DIRECTION('',(0.,0.,-1.));
#1478=DIRECTION('',(0.,1.,0.));
#1479=DIRECTION('',(-1.,0.,0.));
#1480=DIRECTION('',(0.,-1.,0.));
#1481=DIRECTION('',(-1.,0.,0.));
#1482=DIRECTION('',(-1.,0.,0.));
#1483=DIRECTION('',(0.,0.,-1.));
#1484=DIRECTION('',(0.,1.,0.));
#1485=DIRECTION('',(-1.,0.,0.));
#1486=DIRECTION('',(0.,-1.,0.));
#1487=DIRECTION('',(-1.,0.,0.));
#1488=DIRECTION('',(-1.,0.,0.));
#1489=DIRECTION('',(0.,3.46944695195361E-16,-1.));
#1490=DIRECTION('',(0.,1.,3.46944695195361E-16));
#1491=DIRECTION('',(-1.,0.,0.));
#1492=DIRECTION('',(0.,-1.,0.));
#1493=DIRECTION('',(-1.,0.,0.));
#1494=DIRECTION('',(0.,-1.,-2.01858731750028E-16));
#1495=DIRECTION('',(0.,2.01858731750028E-16,-1.));
#1496=DIRECTION('',(0.,-1.,-2.01858731750028E-16));
#1497=DIRECTION('',(0.,2.01858731750028E-16,-1.));
#1498=DIRECTION('',(0.,-1.,-2.01858731750028E-16));
#1499=DIRECTION('',(1.,0.,0.));
#1500=DIRECTION('',(0.,-1.,-2.01858731750028E-16));
#1501=DIRECTION('',(0.,2.01858731750028E-16,-1.));
#1502=DIRECTION('',(0.,-1.,-2.01858731750028E-16));
#1503=DIRECTION('',(0.,2.01858731750028E-16,-1.));
#1504=DIRECTION('',(0.,-1.,-2.01858731750028E-16));
#1505=DIRECTION('',(0.,2.01858731750028E-16,-1.));
#1506=DIRECTION('',(0.,-1.,-2.01858731750028E-16));
#1507=DIRECTION('',(1.,0.,0.));
#1508=DIRECTION('',(0.,-1.,-2.01858731750028E-16));
#1509=DIRECTION('',(0.,2.01858731750028E-16,-1.));
#1510=DIRECTION('',(0.,-1.,-2.01858731750028E-16));
#1511=DIRECTION('',(0.,2.01858731750028E-16,-1.));
#1512=DIRECTION('',(0.,-1.,-2.01858731750028E-16));
#1513=DIRECTION('',(0.,2.01858731750028E-16,-1.));
#1514=DIRECTION('',(0.,-1.,-2.01858731750028E-16));
#1515=DIRECTION('',(1.,0.,0.));
#1516=DIRECTION('',(0.,-1.,-2.01858731750028E-16));
#1517=DIRECTION('',(0.,2.01858731750028E-16,-1.));
#1518=DIRECTION('',(0.,-1.,-2.01858731750028E-16));
#1519=DIRECTION('',(0.,2.01858731750028E-16,-1.));
#1520=DIRECTION('',(0.,-1.,-2.01858731750028E-16));
#1521=DIRECTION('',(0.,2.01858731750028E-16,-1.));
#1522=DIRECTION('',(0.,-1.,-2.01858731750028E-16));
#1523=DIRECTION('',(0.,2.01858731750028E-16,-1.));
#1524=DIRECTION('',(0.,0.,1.));
#1525=DIRECTION('',(0.,-1.,0.));
#1526=DIRECTION('',(0.,0.,1.));
#1527=DIRECTION('',(0.,-1.,0.));
#1528=DIRECTION('',(0.,0.,1.));
#1529=DIRECTION('',(1.,0.,0.));
#1530=DIRECTION('',(0.,0.,1.));
#1531=DIRECTION('',(0.,-1.,0.));
#1532=DIRECTION('',(0.,0.,1.));
#1533=DIRECTION('',(0.,-1.,0.));
#1534=DIRECTION('',(0.,0.,-1.));
#1535=DIRECTION('',(0.,1.,0.));
#1536=DIRECTION('',(0.,0.,-1.));
#1537=DIRECTION('',(0.,1.,0.));
#1538=DIRECTION('',(0.,0.,-1.));
#1539=DIRECTION('',(-1.,0.,0.));
#1540=DIRECTION('',(0.,0.,-1.));
#1541=DIRECTION('',(0.,1.,0.));
#1542=DIRECTION('',(0.,0.,-1.));
#1543=DIRECTION('',(0.,1.,0.));
#1544=DIRECTION('',(-1.,0.,0.));
#1545=DIRECTION('',(0.,1.,0.));
#1546=DIRECTION('',(1.,0.,0.));
#1547=DIRECTION('',(0.,-1.,0.));
#1548=DIRECTION('',(-1.,0.,0.));
#1549=DIRECTION('',(0.,1.,0.));
#1550=DIRECTION('',(1.,0.,0.));
#1551=DIRECTION('',(0.,-1.,0.));
#1552=CARTESIAN_POINT('',(0.,0.,0.));
#1553=CARTESIAN_POINT('',(-0.004,0.11444736546278,0.0332181236773729));
#1554=CARTESIAN_POINT('',(0.13208,0.11444736546278,-0.0335318763226271));
#1555=CARTESIAN_POINT('',(0.13208,0.11444736546278,-0.0315318763226271));
#1556=CARTESIAN_POINT('',(0.13208,0.11444736546278,-0.0345318763226271));
#1557=CARTESIAN_POINT('',(-0.004,0.11444736546278,-0.0345318763226271));
#1558=CARTESIAN_POINT('',(-0.004,0.11444736546278,-0.0345318763226271));
#1559=CARTESIAN_POINT('',(-0.004,0.11444736546278,0.0332181236773729));
#1560=CARTESIAN_POINT('',(-0.004,0.11444736546278,0.100968123677373));
#1561=CARTESIAN_POINT('',(-0.004,0.11444736546278,0.100968123677373));
#1562=CARTESIAN_POINT('',(0.13208,0.11444736546278,0.100968123677373));
#1563=CARTESIAN_POINT('',(0.13208,0.11444736546278,0.0999681236773729));
#1564=CARTESIAN_POINT('',(0.13208,0.11444736546278,0.0979681236773729));
#1565=CARTESIAN_POINT('',(0.13208,0.11444736546278,0.0979681236773729));
#1566=CARTESIAN_POINT('',(0.,0.11444736546278,0.0979681236773729));
#1567=CARTESIAN_POINT('',(0.,0.11444736546278,0.0332181236773729));
#1568=CARTESIAN_POINT('',(0.,0.11444736546278,-0.0315318763226271));
#1569=CARTESIAN_POINT('',(0.13208,0.11444736546278,-0.0315318763226271));
#1570=CARTESIAN_POINT('',(-0.004,0.09944736546278,-0.0355318763226271));
#1571=CARTESIAN_POINT('',(0.12808,0.09944736546278,-0.0355318763226271));
#1572=CARTESIAN_POINT('',(0.12808,0.10244736546278,-0.0355318763226271));
#1573=CARTESIAN_POINT('',(0.13208,0.09944736546278,-0.0355318763226271));
#1574=CARTESIAN_POINT('',(0.13208,0.11344736546278,-0.0355318763226271));
#1575=CARTESIAN_POINT('',(0.13208,0.08544736546278,-0.0355318763226271));
#1576=CARTESIAN_POINT('',(-0.004,0.08544736546278,-0.0355318763226271));
#1577=CARTESIAN_POINT('',(-0.004,0.08544736546278,-0.0355318763226271));
#1578=CARTESIAN_POINT('',(-0.004,0.09944736546278,-0.0355318763226271));
#1579=CARTESIAN_POINT('',(-0.004,0.11344736546278,-0.0355318763226271));
#1580=CARTESIAN_POINT('',(0.13208,0.11344736546278,-0.0355318763226271));
#1581=CARTESIAN_POINT('',(-0.004,0.08444736546278,0.033218123677373));
#1582=CARTESIAN_POINT('',(0.12808,0.08444736546278,-0.0217818763226271));
#1583=CARTESIAN_POINT('',(0.12808,0.08444736546278,-0.0247818763226271));
#1584=CARTESIAN_POINT('',(0.12808,0.08444736546278,0.0882181236773729));
#1585=CARTESIAN_POINT('',(0.12808,0.08444736546278,0.0852181236773729));
#1586=CARTESIAN_POINT('',(0.12808,0.08444736546278,0.0332181236773729));
#1587=CARTESIAN_POINT('',(0.12808,0.08444736546278,0.0302181236773729));
#1588=CARTESIAN_POINT('',(-0.004,0.08444736546278,0.033218123677373));
#1589=CARTESIAN_POINT('',(-0.004,0.08444736546278,0.100968123677373));
#1590=CARTESIAN_POINT('',(-0.004,0.08444736546278,-0.0345318763226271));
#1591=CARTESIAN_POINT('',(0.13208,0.08444736546278,-0.0345318763226271));
#1592=CARTESIAN_POINT('',(0.13208,0.08444736546278,-0.0345318763226271));
#1593=CARTESIAN_POINT('',(0.13208,0.08444736546278,0.033218123677373));
#1594=CARTESIAN_POINT('',(0.13208,0.08444736546278,0.100968123677373));
#1595=CARTESIAN_POINT('',(-0.004,0.08444736546278,0.100968123677373));
#1596=CARTESIAN_POINT('',(-0.004,0.09944736546278,0.101968123677373));
#1597=CARTESIAN_POINT('',(0.12808,0.09944736546278,0.101968123677373));
#1598=CARTESIAN_POINT('',(0.12808,0.09644736546278,0.101968123677373));
#1599=CARTESIAN_POINT('',(-0.004,0.09944736546278,0.101968123677373));
#1600=CARTESIAN_POINT('',(-0.004,0.11344736546278,0.101968123677373));
#1601=CARTESIAN_POINT('',(-0.004,0.08544736546278,0.101968123677373));
#1602=CARTESIAN_POINT('',(-0.004,0.08544736546278,0.101968123677373));
#1603=CARTESIAN_POINT('',(0.13208,0.08544736546278,0.101968123677373));
#1604=CARTESIAN_POINT('',(0.13208,0.09944736546278,0.101968123677373));
#1605=CARTESIAN_POINT('',(0.13208,0.11344736546278,0.101968123677373));
#1606=CARTESIAN_POINT('',(-0.004,0.11344736546278,0.101968123677373));
#1607=CARTESIAN_POINT('',(-0.004,0.09944736546278,0.0332181236773729));
#1608=CARTESIAN_POINT('',(-0.004,0.08544736546278,-0.0345318763226271));
#1609=CARTESIAN_POINT('',(-0.004,0.08544736546278,0.100968123677373));
#1610=CARTESIAN_POINT('',(-0.004,0.11344736546278,0.100968123677373));
#1611=CARTESIAN_POINT('',(-0.004,0.11344736546278,-0.0345318763226271));
#1612=CARTESIAN_POINT('',(0.,0.09944736546278,0.0332181236773729));
#1613=CARTESIAN_POINT('',(0.,0.10144736546278,0.0979681236773729));
#1614=CARTESIAN_POINT('',(0.,0.11244736546278,0.0979681236773729));
#1615=CARTESIAN_POINT('',(0.,0.11244736546278,0.0972681236773729));
#1616=CARTESIAN_POINT('',(0.,0.11244736546278,0.0965681236773729));
#1617=CARTESIAN_POINT('',(0.,0.11144736546278,0.0965681236773729));
#1618=CARTESIAN_POINT('',(0.,0.11044736546278,0.0965681236773729));
#1619=CARTESIAN_POINT('',(0.,0.11044736546278,0.0971673598930239));
#1620=CARTESIAN_POINT('',(0.,0.11044736546278,0.097766596108675));
#1621=CARTESIAN_POINT('',(0.,0.10919736546278,0.097766596108675));
#1622=CARTESIAN_POINT('',(0.,0.10794736546278,0.097766596108675));
#1623=CARTESIAN_POINT('',(0.,0.10794736546278,0.0971673598930239));
#1624=CARTESIAN_POINT('',(0.,0.10794736546278,0.0965681236773729));
#1625=CARTESIAN_POINT('',(0.,0.10619736546278,0.0965681236773729));
#1626=CARTESIAN_POINT('',(0.,0.10444736546278,0.0965681236773729));
#1627=CARTESIAN_POINT('',(0.,0.10444736546278,0.0949681236773729));
#1628=CARTESIAN_POINT('',(0.,0.10444736546278,0.0933681236773729));
#1629=CARTESIAN_POINT('',(0.,0.10619736546278,0.0933681236773729));
#1630=CARTESIAN_POINT('',(0.,0.10794736546278,0.0933681236773729));
#1631=CARTESIAN_POINT('',(0.,0.10794736546278,0.0927688874617219));
#1632=CARTESIAN_POINT('',(0.,0.10794736546278,0.0921696512460709));
#1633=CARTESIAN_POINT('',(0.,0.10919736546278,0.0921696512460709));
#1634=CARTESIAN_POINT('',(0.,0.11044736546278,0.0921696512460709));
#1635=CARTESIAN_POINT('',(0.,0.11044736546278,0.0927688874617219));
#1636=CARTESIAN_POINT('',(0.,0.11044736546278,0.0933681236773729));
#1637=CARTESIAN_POINT('',(0.,0.11144736546278,0.0933681236773729));
#1638=CARTESIAN_POINT('',(0.,0.11244736546278,0.0933681236773729));
#1639=CARTESIAN_POINT('',(0.,0.11244736546278,0.0917688874617219));
#1640=CARTESIAN_POINT('',(0.,0.11244736546278,0.0901696512460709));
#1641=CARTESIAN_POINT('',(0.,0.10744736546278,0.0901696512460708));
#1642=CARTESIAN_POINT('',(0.,0.10244736546278,0.0901696512460708));
#1643=CARTESIAN_POINT('',(0.,0.10244736546278,0.0940688874617219));
#1644=CARTESIAN_POINT('',(0.,0.10244736546278,0.0979681236773729));
#1645=CARTESIAN_POINT('',(0.,0.10144736546278,0.0979681236773729));
#1646=CARTESIAN_POINT('',(0.,0.08844736546278,0.0979681236773729));
#1647=CARTESIAN_POINT('',(0.,0.08844736546278,0.0332181236773729));
#1648=CARTESIAN_POINT('',(0.,0.08844736546278,-0.0315318763226271));
#1649=CARTESIAN_POINT('',(0.,0.10044736546278,-0.0315318763226271));
#1650=CARTESIAN_POINT('',(0.,0.10244736546278,-0.0315318763226271));
#1651=CARTESIAN_POINT('',(0.,0.10244736546278,-0.0276326401069761));
#1652=CARTESIAN_POINT('',(0.,0.10244736546278,-0.0237334038913251));
#1653=CARTESIAN_POINT('',(0.,0.10744736546278,-0.0237334038913251));
#1654=CARTESIAN_POINT('',(0.,0.11244736546278,-0.0237334038913251));
#1655=CARTESIAN_POINT('',(0.,0.11244736546278,-0.0253326401069761));
#1656=CARTESIAN_POINT('',(0.,0.11244736546278,-0.0269318763226271));
#1657=CARTESIAN_POINT('',(0.,0.11144736546278,-0.0269318763226271));
#1658=CARTESIAN_POINT('',(0.,0.11044736546278,-0.0269318763226271));
#1659=CARTESIAN_POINT('',(0.,0.11044736546278,-0.0263326401069761));
#1660=CARTESIAN_POINT('',(0.,0.11044736546278,-0.0257334038913251));
#1661=CARTESIAN_POINT('',(0.,0.10919736546278,-0.0257334038913251));
#1662=CARTESIAN_POINT('',(0.,0.10794736546278,-0.0257334038913251));
#1663=CARTESIAN_POINT('',(0.,0.10794736546278,-0.0263326401069761));
#1664=CARTESIAN_POINT('',(0.,0.10794736546278,-0.0269318763226271));
#1665=CARTESIAN_POINT('',(0.,0.10619736546278,-0.0269318763226271));
#1666=CARTESIAN_POINT('',(0.,0.10444736546278,-0.0269318763226271));
#1667=CARTESIAN_POINT('',(0.,0.10444736546278,-0.0285318763226271));
#1668=CARTESIAN_POINT('',(0.,0.10444736546278,-0.0301318763226271));
#1669=CARTESIAN_POINT('',(0.,0.10619736546278,-0.0301318763226271));
#1670=CARTESIAN_POINT('',(0.,0.10794736546278,-0.0301318763226271));
#1671=CARTESIAN_POINT('',(0.,0.10794736546278,-0.0307311125382781));
#1672=CARTESIAN_POINT('',(0.,0.10794736546278,-0.0313303487539292));
#1673=CARTESIAN_POINT('',(0.,0.10919736546278,-0.0313303487539292));
#1674=CARTESIAN_POINT('',(0.,0.11044736546278,-0.0313303487539292));
#1675=CARTESIAN_POINT('',(0.,0.11044736546278,-0.0307311125382781));
#1676=CARTESIAN_POINT('',(0.,0.11044736546278,-0.0301318763226271));
#1677=CARTESIAN_POINT('',(0.,0.11144736546278,-0.0301318763226271));
#1678=CARTESIAN_POINT('',(0.,0.11244736546278,-0.0301318763226271));
#1679=CARTESIAN_POINT('',(0.,0.11244736546278,-0.0308318763226271));
#1680=CARTESIAN_POINT('',(0.,0.11244736546278,-0.0315318763226271));
#1681=CARTESIAN_POINT('',(0.,0.10044736546278,-0.0315318763226271));
#1682=CARTESIAN_POINT('',(0.13208,0.11244736546278,0.0917688874617219));
#1683=CARTESIAN_POINT('',(0.13208,0.11244736546278,0.0933681236773729));
#1684=CARTESIAN_POINT('',(0.13208,0.11244736546278,0.0933681236773729));
#1685=CARTESIAN_POINT('',(0.13208,0.11244736546278,0.0917688874617219));
#1686=CARTESIAN_POINT('',(0.13208,0.11244736546278,0.0901696512460709));
#1687=CARTESIAN_POINT('',(0.13208,0.11244736546278,0.0901696512460709));
#1688=CARTESIAN_POINT('',(0.13208,0.11144736546278,0.0933681236773729));
#1689=CARTESIAN_POINT('',(0.13208,0.11044736546278,0.0933681236773729));
#1690=CARTESIAN_POINT('',(0.13208,0.11044736546278,0.0933681236773729));
#1691=CARTESIAN_POINT('',(0.13208,0.11144736546278,0.0933681236773729));
#1692=CARTESIAN_POINT('',(0.13208,0.11044736546278,0.0927688874617219));
#1693=CARTESIAN_POINT('',(0.13208,0.11044736546278,0.0921696512460709));
#1694=CARTESIAN_POINT('',(0.13208,0.11044736546278,0.0921696512460709));
#1695=CARTESIAN_POINT('',(0.13208,0.11044736546278,0.0927688874617219));
#1696=CARTESIAN_POINT('',(0.13208,0.10919736546278,0.0921696512460709));
#1697=CARTESIAN_POINT('',(0.13208,0.10794736546278,0.0921696512460709));
#1698=CARTESIAN_POINT('',(0.13208,0.10794736546278,0.0921696512460709));
#1699=CARTESIAN_POINT('',(0.13208,0.10919736546278,0.0921696512460709));
#1700=CARTESIAN_POINT('',(0.13208,0.10794736546278,0.0927688874617219));
#1701=CARTESIAN_POINT('',(0.13208,0.10794736546278,0.0933681236773729));
#1702=CARTESIAN_POINT('',(0.13208,0.10794736546278,0.0933681236773729));
#1703=CARTESIAN_POINT('',(0.13208,0.10794736546278,0.0927688874617219));
#1704=CARTESIAN_POINT('',(0.13208,0.10619736546278,0.0933681236773729));
#1705=CARTESIAN_POINT('',(0.13208,0.10444736546278,0.0933681236773729));
#1706=CARTESIAN_POINT('',(0.13208,0.10444736546278,0.0933681236773729));
#1707=CARTESIAN_POINT('',(0.13208,0.10619736546278,0.0933681236773729));
#1708=CARTESIAN_POINT('',(0.13208,0.10444736546278,0.0949681236773729));
#1709=CARTESIAN_POINT('',(0.13208,0.10444736546278,0.0965681236773729));
#1710=CARTESIAN_POINT('',(0.13208,0.10444736546278,0.0965681236773729));
#1711=CARTESIAN_POINT('',(0.13208,0.10444736546278,0.0949681236773729));
#1712=CARTESIAN_POINT('',(0.13208,0.10619736546278,0.0965681236773729));
#1713=CARTESIAN_POINT('',(0.13208,0.10794736546278,0.0965681236773729));
#1714=CARTESIAN_POINT('',(0.13208,0.10794736546278,0.0965681236773729));
#1715=CARTESIAN_POINT('',(0.13208,0.10619736546278,0.0965681236773729));
#1716=CARTESIAN_POINT('',(0.13208,0.10794736546278,0.0971673598930239));
#1717=CARTESIAN_POINT('',(0.13208,0.10794736546278,0.097766596108675));
#1718=CARTESIAN_POINT('',(0.13208,0.10794736546278,0.097766596108675));
#1719=CARTESIAN_POINT('',(0.13208,0.10794736546278,0.0971673598930239));
#1720=CARTESIAN_POINT('',(0.13208,0.10919736546278,0.097766596108675));
#1721=CARTESIAN_POINT('',(0.13208,0.11044736546278,0.097766596108675));
#1722=CARTESIAN_POINT('',(0.13208,0.11044736546278,0.097766596108675));
#1723=CARTESIAN_POINT('',(0.13208,0.10919736546278,0.097766596108675));
#1724=CARTESIAN_POINT('',(0.13208,0.11044736546278,0.0971673598930239));
#1725=CARTESIAN_POINT('',(0.13208,0.11044736546278,0.0965681236773729));
#1726=CARTESIAN_POINT('',(0.13208,0.11044736546278,0.0965681236773729));
#1727=CARTESIAN_POINT('',(0.13208,0.11044736546278,0.0971673598930239));
#1728=CARTESIAN_POINT('',(0.13208,0.11144736546278,0.0965681236773729));
#1729=CARTESIAN_POINT('',(0.13208,0.11244736546278,0.0965681236773729));
#1730=CARTESIAN_POINT('',(0.13208,0.11244736546278,0.0965681236773729));
#1731=CARTESIAN_POINT('',(0.13208,0.11144736546278,0.0965681236773729));
#1732=CARTESIAN_POINT('',(0.13208,0.11244736546278,0.0972681236773729));
#1733=CARTESIAN_POINT('',(0.13208,0.11244736546278,0.0979681236773729));
#1734=CARTESIAN_POINT('',(0.13208,0.11244736546278,0.0979681236773729));
#1735=CARTESIAN_POINT('',(0.13208,0.11244736546278,0.0972681236773729));
#1736=CARTESIAN_POINT('',(0.13208,0.10244736546278,0.0940688874617219));
#1737=CARTESIAN_POINT('',(0.13208,0.10244736546278,0.0901696512460708));
#1738=CARTESIAN_POINT('',(0.13208,0.10244736546278,0.0901696512460708));
#1739=CARTESIAN_POINT('',(0.13208,0.10244736546278,0.0940688874617219));
#1740=CARTESIAN_POINT('',(0.13208,0.10244736546278,0.0979681236773729));
#1741=CARTESIAN_POINT('',(0.13208,0.10244736546278,0.0979681236773729));
#1742=CARTESIAN_POINT('',(0.13208,0.10744736546278,0.0901696512460708));
#1743=CARTESIAN_POINT('',(0.13208,0.10744736546278,0.0901696512460708));
#1744=CARTESIAN_POINT('',(0.13208,0.106214843094349,0.0332181236773729));
#1745=CARTESIAN_POINT('',(0.13208,0.08544736546278,-0.0345318763226271));
#1746=CARTESIAN_POINT('',(0.13208,0.11344736546278,-0.0345318763226271));
#1747=CARTESIAN_POINT('',(0.13208,0.10044736546278,-0.0315318763226271));
#1748=CARTESIAN_POINT('',(0.13208,0.11244736546278,-0.0315318763226271));
#1749=CARTESIAN_POINT('',(0.13208,0.11244736546278,-0.0308318763226271));
#1750=CARTESIAN_POINT('',(0.13208,0.11244736546278,-0.0301318763226271));
#1751=CARTESIAN_POINT('',(0.13208,0.11144736546278,-0.0301318763226271));
#1752=CARTESIAN_POINT('',(0.13208,0.11044736546278,-0.0301318763226271));
#1753=CARTESIAN_POINT('',(0.13208,0.11044736546278,-0.0307311125382781));
#1754=CARTESIAN_POINT('',(0.13208,0.11044736546278,-0.0313303487539292));
#1755=CARTESIAN_POINT('',(0.13208,0.10919736546278,-0.0313303487539292));
#1756=CARTESIAN_POINT('',(0.13208,0.10794736546278,-0.0313303487539292));
#1757=CARTESIAN_POINT('',(0.13208,0.10794736546278,-0.0307311125382781));
#1758=CARTESIAN_POINT('',(0.13208,0.10794736546278,-0.0301318763226271));
#1759=CARTESIAN_POINT('',(0.13208,0.10619736546278,-0.0301318763226271));
#1760=CARTESIAN_POINT('',(0.13208,0.10444736546278,-0.0301318763226271));
#1761=CARTESIAN_POINT('',(0.13208,0.10444736546278,-0.0285318763226271));
#1762=CARTESIAN_POINT('',(0.13208,0.10444736546278,-0.0269318763226271));
#1763=CARTESIAN_POINT('',(0.13208,0.10619736546278,-0.0269318763226271));
#1764=CARTESIAN_POINT('',(0.13208,0.10794736546278,-0.0269318763226271));
#1765=CARTESIAN_POINT('',(0.13208,0.10794736546278,-0.0263326401069761));
#1766=CARTESIAN_POINT('',(0.13208,0.10794736546278,-0.0257334038913251));
#1767=CARTESIAN_POINT('',(0.13208,0.10919736546278,-0.0257334038913251));
#1768=CARTESIAN_POINT('',(0.13208,0.11044736546278,-0.0257334038913251));
#1769=CARTESIAN_POINT('',(0.13208,0.11044736546278,-0.0263326401069761));
#1770=CARTESIAN_POINT('',(0.13208,0.11044736546278,-0.0269318763226271));
#1771=CARTESIAN_POINT('',(0.13208,0.11144736546278,-0.0269318763226271));
#1772=CARTESIAN_POINT('',(0.13208,0.11244736546278,-0.0269318763226271));
#1773=CARTESIAN_POINT('',(0.13208,0.11244736546278,-0.0253326401069761));
#1774=CARTESIAN_POINT('',(0.13208,0.11244736546278,-0.0237334038913251));
#1775=CARTESIAN_POINT('',(0.13208,0.10744736546278,-0.0237334038913251));
#1776=CARTESIAN_POINT('',(0.13208,0.10244736546278,-0.0237334038913251));
#1777=CARTESIAN_POINT('',(0.13208,0.10244736546278,-0.0276326401069761));
#1778=CARTESIAN_POINT('',(0.13208,0.10244736546278,-0.0315318763226271));
#1779=CARTESIAN_POINT('',(0.13208,0.10044736546278,-0.0315318763226271));
#1780=CARTESIAN_POINT('',(0.13208,0.08844736546278,-0.0315318763226271));
#1781=CARTESIAN_POINT('',(0.13208,0.08844736546278,0.0332181236773729));
#1782=CARTESIAN_POINT('',(0.13208,0.08844736546278,0.0979681236773729));
#1783=CARTESIAN_POINT('',(0.13208,0.10144736546278,0.0979681236773729));
#1784=CARTESIAN_POINT('',(0.13208,0.10144736546278,0.0979681236773729));
#1785=CARTESIAN_POINT('',(0.13208,0.11344736546278,0.100968123677373));
#1786=CARTESIAN_POINT('',(0.13208,0.08544736546278,0.100968123677373));
#1787=CARTESIAN_POINT('',(0.13208,0.10144736546278,0.0979681236773729));
#1788=CARTESIAN_POINT('',(0.12808,0.09944736546278,0.0979681236773729));
#1789=CARTESIAN_POINT('',(0.12808,0.10109736546278,0.0979681236773729));
#1790=CARTESIAN_POINT('',(0.13208,0.08844736546278,0.0979681236773729));
#1791=CARTESIAN_POINT('',(0.13208,0.10044736546278,-0.0315318763226271));
#1792=CARTESIAN_POINT('',(0.12808,0.09944736546278,-0.0315318763226271));
#1793=CARTESIAN_POINT('',(0.12808,0.09779736546278,-0.0315318763226271));
#1794=CARTESIAN_POINT('',(0.13208,0.10244736546278,-0.0315318763226271));
#1795=CARTESIAN_POINT('',(0.13208,0.08844736546278,-0.0315318763226271));
#1796=CARTESIAN_POINT('',(0.13208,0.10044736546278,-0.0315318763226271));
#1797=CARTESIAN_POINT('',(0.13208,0.11244736546278,-0.0315318763226271));
#1798=CARTESIAN_POINT('',(0.13208,0.08844736546278,0.0332181236773729));
#1799=CARTESIAN_POINT('',(0.12808,0.08844736546278,-0.0217818763226271));
#1800=CARTESIAN_POINT('',(0.12808,0.08844736546278,-0.0201318763226271));
#1801=CARTESIAN_POINT('',(0.12808,0.08844736546278,0.0882181236773729));
#1802=CARTESIAN_POINT('',(0.12808,0.08844736546278,0.0898681236773729));
#1803=CARTESIAN_POINT('',(0.12808,0.08844736546278,0.0332181236773729));
#1804=CARTESIAN_POINT('',(0.12808,0.08844736546278,0.0348681236773729));
#1805=CARTESIAN_POINT('',(0.13208,0.10144736546278,0.0979681236773729));
#1806=CARTESIAN_POINT('',(0.13208,0.11244736546278,-0.0308318763226271));
#1807=CARTESIAN_POINT('',(0.13208,0.11244736546278,-0.0301318763226271));
#1808=CARTESIAN_POINT('',(0.13208,0.11144736546278,-0.0301318763226271));
#1809=CARTESIAN_POINT('',(0.13208,0.11044736546278,-0.0301318763226271));
#1810=CARTESIAN_POINT('',(0.13208,0.11044736546278,-0.0307311125382781));
#1811=CARTESIAN_POINT('',(0.13208,0.11044736546278,-0.0313303487539292));
#1812=CARTESIAN_POINT('',(0.13208,0.10919736546278,-0.0313303487539292));
#1813=CARTESIAN_POINT('',(0.13208,0.10794736546278,-0.0313303487539292));
#1814=CARTESIAN_POINT('',(0.13208,0.10794736546278,-0.0307311125382781));
#1815=CARTESIAN_POINT('',(0.13208,0.10794736546278,-0.0301318763226271));
#1816=CARTESIAN_POINT('',(0.13208,0.10619736546278,-0.0301318763226271));
#1817=CARTESIAN_POINT('',(0.13208,0.10444736546278,-0.0301318763226271));
#1818=CARTESIAN_POINT('',(0.13208,0.10444736546278,-0.0285318763226271));
#1819=CARTESIAN_POINT('',(0.13208,0.10444736546278,-0.0269318763226271));
#1820=CARTESIAN_POINT('',(0.13208,0.10619736546278,-0.0269318763226271));
#1821=CARTESIAN_POINT('',(0.13208,0.10794736546278,-0.0269318763226271));
#1822=CARTESIAN_POINT('',(0.13208,0.10794736546278,-0.0263326401069761));
#1823=CARTESIAN_POINT('',(0.13208,0.10794736546278,-0.0257334038913251));
#1824=CARTESIAN_POINT('',(0.13208,0.10919736546278,-0.0257334038913251));
#1825=CARTESIAN_POINT('',(0.13208,0.11044736546278,-0.0257334038913251));
#1826=CARTESIAN_POINT('',(0.13208,0.11044736546278,-0.0263326401069761));
#1827=CARTESIAN_POINT('',(0.13208,0.11044736546278,-0.0269318763226271));
#1828=CARTESIAN_POINT('',(0.13208,0.11144736546278,-0.0269318763226271));
#1829=CARTESIAN_POINT('',(0.13208,0.11244736546278,-0.0269318763226271));
#1830=CARTESIAN_POINT('',(0.13208,0.11244736546278,-0.0253326401069761));
#1831=CARTESIAN_POINT('',(0.13208,0.11244736546278,-0.0237334038913251));
#1832=CARTESIAN_POINT('',(0.13208,0.10744736546278,-0.0237334038913251));
#1833=CARTESIAN_POINT('',(0.13208,0.10244736546278,-0.0237334038913251));
#1834=CARTESIAN_POINT('',(0.13208,0.10244736546278,-0.0276326401069761));
#1835=CARTESIAN_POINT('',(0.12808,0.08619736546278,0.0332181236773729));
#1836=CARTESIAN_POINT('',(0.12808,0.08619736546278,0.0332181236773729));
#1837=CARTESIAN_POINT('',(0.12808,0.08619736546278,0.0302181236773729));
#1838=CARTESIAN_POINT('',(0.06404,0.08619736546278,0.0332181236773729));
#1839=CARTESIAN_POINT('',(0.12808,0.08619736546278,0.0332181236773729));
#1840=CARTESIAN_POINT('',(0.12808,0.08619736546278,0.0315681236773729));
#1841=CARTESIAN_POINT('',(0.12808,0.08619736546278,0.0882181236773729));
#1842=CARTESIAN_POINT('',(0.12808,0.08619736546278,0.0882181236773729));
#1843=CARTESIAN_POINT('',(0.12808,0.08619736546278,0.0852181236773729));
#1844=CARTESIAN_POINT('',(0.06404,0.08619736546278,0.0882181236773729));
#1845=CARTESIAN_POINT('',(0.12808,0.08619736546278,0.0882181236773729));
#1846=CARTESIAN_POINT('',(0.12808,0.08619736546278,0.0865681236773729));
#1847=CARTESIAN_POINT('',(0.12808,0.08619736546278,-0.0217818763226271));
#1848=CARTESIAN_POINT('',(0.12808,0.08619736546278,-0.0217818763226271));
#1849=CARTESIAN_POINT('',(0.12808,0.08619736546278,-0.0247818763226271));
#1850=CARTESIAN_POINT('',(0.06404,0.08619736546278,-0.0217818763226271));
#1851=CARTESIAN_POINT('',(0.12808,0.08619736546278,-0.0217818763226271));
#1852=CARTESIAN_POINT('',(0.12808,0.08619736546278,-0.0234318763226271));
#1853=CARTESIAN_POINT('',(0.12808,0.09444736546278,-0.0217818763226271));
#1854=CARTESIAN_POINT('',(0.12808,0.09444736546278,0.0882181236773729));
#1855=CARTESIAN_POINT('',(0.12808,0.09444736546278,0.0332181236773729));
#1856=CARTESIAN_POINT('',(0.12808,0.09944736546278,0.100218123677373));
#1857=CARTESIAN_POINT('',(0.12808,0.09944736546278,0.100218123677373));
#1858=CARTESIAN_POINT('',(0.12808,0.09644736546278,0.100218123677373));
#1859=CARTESIAN_POINT('',(0.06404,0.09944736546278,0.100218123677373));
#1860=CARTESIAN_POINT('',(0.12808,0.09944736546278,0.100218123677373));
#1861=CARTESIAN_POINT('',(0.12808,0.09779736546278,0.100218123677373));
#1862=CARTESIAN_POINT('',(0.12808,0.09944736546278,0.0769681236773729));
#1863=CARTESIAN_POINT('',(0.12808,0.09944736546278,-0.0337818763226271));
#1864=CARTESIAN_POINT('',(0.12808,0.09944736546278,-0.0337818763226271));
#1865=CARTESIAN_POINT('',(0.12808,0.10244736546278,-0.0337818763226271));
#1866=CARTESIAN_POINT('',(0.06604,0.09944736546278,-0.0337818763226271));
#1867=CARTESIAN_POINT('',(0.12808,0.09944736546278,-0.0337818763226271));
#1868=CARTESIAN_POINT('',(0.12808,0.10109736546278,-0.0337818763226271));
#1869=CARTESIAN_POINT('',(0.12808,0.09944736546278,-0.0255318763226271));
#1870=CARTESIAN_POINT('',(-0.004,0.11344736546278,-0.0345318763226271));
#1871=CARTESIAN_POINT('',(-0.004,0.11344736546278,0.100968123677373));
#1872=CARTESIAN_POINT('',(-0.004,0.08544736546278,-0.0345318763226271));
#1873=CARTESIAN_POINT('',(-0.004,0.08544736546278,0.100968123677373));
#1874=MECHANICAL_DESIGN_GEOMETRIC_PRESENTATION_REPRESENTATION('',(#1147),
#1875);
#1875=(
GEOMETRIC_REPRESENTATION_CONTEXT(3)
GLOBAL_UNCERTAINTY_ASSIGNED_CONTEXT((#1876))
GLOBAL_UNIT_ASSIGNED_CONTEXT((#1879,#1878,#1877))
REPRESENTATION_CONTEXT('case','TOP_LEVEL_ASSEMBLY_PART')
);
#1876=UNCERTAINTY_MEASURE_WITH_UNIT(LENGTH_MEASURE(1.E-8),#1879,
'DISTANCE_ACCURACY_VALUE','Maximum Tolerance applied to model');
#1877=(
NAMED_UNIT(*)
SI_UNIT($,.STERADIAN.)
SOLID_ANGLE_UNIT()
);
#1878=(
NAMED_UNIT(*)
PLANE_ANGLE_UNIT()
SI_UNIT($,.RADIAN.)
);
#1879=(
LENGTH_UNIT()
NAMED_UNIT(*)
SI_UNIT($,.METRE.)
);
#1880=PRODUCT_DEFINITION_SHAPE('','',#1881);
#1881=PRODUCT_DEFINITION('','',#1883,#1882);
#1882=PRODUCT_DEFINITION_CONTEXT('',#1889,'design');
#1883=PRODUCT_DEFINITION_FORMATION_WITH_SPECIFIED_SOURCE('','',#1885,
 .NOT_KNOWN.);
#1884=PRODUCT_RELATED_PRODUCT_CATEGORY('','',(#1885));
#1885=PRODUCT('case','case','case',(#1887));
#1886=PRODUCT_CATEGORY('','');
#1887=PRODUCT_CONTEXT('',#1889,'mechanical');
#1888=APPLICATION_PROTOCOL_DEFINITION('international standard',
'ap242_managed_model_based_3d_engineering',2020,#1889);
#1889=APPLICATION_CONTEXT('managed model based 3d engineering');
ENDSEC;
END-ISO-10303-21;
