ISO-10303-21;
HEADER;
/* Generated by software containing ST-Developer
 * from STEP Tools, Inc. (www.steptools.com) 
 */
/* OPTION: using custom renumber hook */

FILE_DESCRIPTION(
/* description */ ('STEP AP242 Edition 2',
'CAx-IF Rec.Pracs.---Representation and Presentation of Product Manufa
cturing Information (PMI)---4.0---2014-10-13',
'CAx-IF Rec.Pracs.---3D Tessellated Geometry---0.4---2014-09-14','2;1',
'CAx-IF Rec.Pracs.---User Defined Attributes---1.5---2016-08-15'),
/* implementation_level */ '2;1');

FILE_NAME(
/* name */ 'Eurorack v1 sym - Part 7',
/* time_stamp */ '2026-09-02T16:09:06Z',
/* author */ (''),
/* organization */ (''),
/* preprocessor_version */ 'ST-DEVELOPER v20',
/* originating_system */ 'ONSHAPE BY PTC INC, 1.220',
/* authorisation */ '  ');

FILE_SCHEMA (('AP242_MANAGED_MODEL_BASED_3D_ENGINEERING_MIM_LF { 1 0 10303 442 3 1 4 }'));
ENDSEC;

DATA;
#10=SHAPE_REPRESENTATION_RELATIONSHIP('','',#1367,#11);
#11=ADVANCED_BREP_SHAPE_REPRESENTATION('',(#1365),#2245);
#12=CYLINDRICAL_SURFACE('',#1434,0.003);
#13=CYLINDRICAL_SURFACE('',#1438,0.003);
#14=CYLINDRICAL_SURFACE('',#1442,0.003);
#15=CYLINDRICAL_SURFACE('',#1446,0.00165);
#16=CYLINDRICAL_SURFACE('',#1447,0.00165);
#17=CYLINDRICAL_SURFACE('',#1448,0.00165);
#18=CYLINDRICAL_SURFACE('',#1449,0.003);
#19=CYLINDRICAL_SURFACE('',#1453,0.00165);
#20=CYLINDRICAL_SURFACE('',#1454,0.003);
#21=CYLINDRICAL_SURFACE('',#1458,0.00165);
#22=CYLINDRICAL_SURFACE('',#1459,0.001);
#23=CYLINDRICAL_SURFACE('',#1461,0.001);
#24=CYLINDRICAL_SURFACE('',#1463,0.001);
#25=CYLINDRICAL_SURFACE('',#1465,0.001);
#26=CYLINDRICAL_SURFACE('',#1468,0.003);
#27=CYLINDRICAL_SURFACE('',#1472,0.003);
#28=CYLINDRICAL_SURFACE('',#1476,0.003);
#29=CYLINDRICAL_SURFACE('',#1480,0.00165);
#30=CYLINDRICAL_SURFACE('',#1481,0.00165);
#31=CYLINDRICAL_SURFACE('',#1482,0.00165);
#32=CYLINDRICAL_SURFACE('',#1483,0.003);
#33=CYLINDRICAL_SURFACE('',#1487,0.00165);
#34=CYLINDRICAL_SURFACE('',#1488,0.003);
#35=CYLINDRICAL_SURFACE('',#1492,0.00165);
#36=CIRCLE('',#1372,0.003);
#37=CIRCLE('',#1373,0.003);
#38=CIRCLE('',#1375,0.003);
#39=CIRCLE('',#1376,0.003);
#40=CIRCLE('',#1377,0.003);
#41=CIRCLE('',#1378,0.003);
#42=CIRCLE('',#1379,0.003);
#43=CIRCLE('',#1380,0.003);
#44=CIRCLE('',#1382,0.003);
#45=CIRCLE('',#1383,0.003);
#46=CIRCLE('',#1400,0.001);
#47=CIRCLE('',#1401,0.001);
#48=CIRCLE('',#1402,0.001);
#49=CIRCLE('',#1403,0.001);
#50=CIRCLE('',#1405,0.00165);
#51=CIRCLE('',#1406,0.00165);
#52=CIRCLE('',#1408,0.00165);
#53=CIRCLE('',#1409,0.00165);
#54=CIRCLE('',#1412,0.00165);
#55=CIRCLE('',#1413,0.00165);
#56=CIRCLE('',#1414,0.00165);
#57=CIRCLE('',#1415,0.00165);
#58=CIRCLE('',#1416,0.00165);
#59=CIRCLE('',#1417,0.00165);
#60=CIRCLE('',#1435,0.003);
#61=CIRCLE('',#1437,0.00165);
#62=CIRCLE('',#1439,0.003);
#63=CIRCLE('',#1441,0.00165);
#64=CIRCLE('',#1443,0.003);
#65=CIRCLE('',#1445,0.00165);
#66=CIRCLE('',#1450,0.003);
#67=CIRCLE('',#1452,0.00165);
#68=CIRCLE('',#1455,0.003);
#69=CIRCLE('',#1457,0.00165);
#70=CIRCLE('',#1460,0.001);
#71=CIRCLE('',#1462,0.001);
#72=CIRCLE('',#1464,0.001);
#73=CIRCLE('',#1466,0.001);
#74=CIRCLE('',#1469,0.003);
#75=CIRCLE('',#1471,0.00165);
#76=CIRCLE('',#1473,0.003);
#77=CIRCLE('',#1475,0.00165);
#78=CIRCLE('',#1477,0.003);
#79=CIRCLE('',#1479,0.00165);
#80=CIRCLE('',#1484,0.003);
#81=CIRCLE('',#1486,0.00165);
#82=CIRCLE('',#1489,0.003);
#83=CIRCLE('',#1491,0.00165);
#84=ORIENTED_EDGE('',*,*,#428,.F.);
#85=ORIENTED_EDGE('',*,*,#429,.T.);
#86=ORIENTED_EDGE('',*,*,#430,.F.);
#87=ORIENTED_EDGE('',*,*,#431,.F.);
#88=ORIENTED_EDGE('',*,*,#432,.T.);
#89=ORIENTED_EDGE('',*,*,#433,.T.);
#90=ORIENTED_EDGE('',*,*,#434,.F.);
#91=ORIENTED_EDGE('',*,*,#435,.F.);
#92=ORIENTED_EDGE('',*,*,#436,.T.);
#93=ORIENTED_EDGE('',*,*,#437,.F.);
#94=ORIENTED_EDGE('',*,*,#438,.F.);
#95=ORIENTED_EDGE('',*,*,#439,.F.);
#96=ORIENTED_EDGE('',*,*,#440,.T.);
#97=ORIENTED_EDGE('',*,*,#441,.F.);
#98=ORIENTED_EDGE('',*,*,#442,.F.);
#99=ORIENTED_EDGE('',*,*,#443,.F.);
#100=ORIENTED_EDGE('',*,*,#444,.F.);
#101=ORIENTED_EDGE('',*,*,#445,.T.);
#102=ORIENTED_EDGE('',*,*,#446,.T.);
#103=ORIENTED_EDGE('',*,*,#447,.T.);
#104=ORIENTED_EDGE('',*,*,#448,.T.);
#105=ORIENTED_EDGE('',*,*,#449,.F.);
#106=ORIENTED_EDGE('',*,*,#450,.F.);
#107=ORIENTED_EDGE('',*,*,#451,.F.);
#108=ORIENTED_EDGE('',*,*,#452,.F.);
#109=ORIENTED_EDGE('',*,*,#453,.F.);
#110=ORIENTED_EDGE('',*,*,#454,.F.);
#111=ORIENTED_EDGE('',*,*,#455,.T.);
#112=ORIENTED_EDGE('',*,*,#456,.T.);
#113=ORIENTED_EDGE('',*,*,#457,.F.);
#114=ORIENTED_EDGE('',*,*,#458,.T.);
#115=ORIENTED_EDGE('',*,*,#459,.T.);
#116=ORIENTED_EDGE('',*,*,#460,.F.);
#117=ORIENTED_EDGE('',*,*,#461,.F.);
#118=ORIENTED_EDGE('',*,*,#458,.F.);
#119=ORIENTED_EDGE('',*,*,#462,.T.);
#120=ORIENTED_EDGE('',*,*,#463,.T.);
#121=ORIENTED_EDGE('',*,*,#464,.F.);
#122=ORIENTED_EDGE('',*,*,#463,.F.);
#123=ORIENTED_EDGE('',*,*,#465,.T.);
#124=ORIENTED_EDGE('',*,*,#466,.T.);
#125=ORIENTED_EDGE('',*,*,#467,.F.);
#126=ORIENTED_EDGE('',*,*,#466,.F.);
#127=ORIENTED_EDGE('',*,*,#468,.T.);
#128=ORIENTED_EDGE('',*,*,#469,.T.);
#129=ORIENTED_EDGE('',*,*,#470,.F.);
#130=ORIENTED_EDGE('',*,*,#469,.F.);
#131=ORIENTED_EDGE('',*,*,#471,.T.);
#132=ORIENTED_EDGE('',*,*,#472,.T.);
#133=ORIENTED_EDGE('',*,*,#473,.F.);
#134=ORIENTED_EDGE('',*,*,#472,.F.);
#135=ORIENTED_EDGE('',*,*,#474,.T.);
#136=ORIENTED_EDGE('',*,*,#475,.T.);
#137=ORIENTED_EDGE('',*,*,#476,.F.);
#138=ORIENTED_EDGE('',*,*,#475,.F.);
#139=ORIENTED_EDGE('',*,*,#477,.T.);
#140=ORIENTED_EDGE('',*,*,#478,.T.);
#141=ORIENTED_EDGE('',*,*,#479,.F.);
#142=ORIENTED_EDGE('',*,*,#478,.F.);
#143=ORIENTED_EDGE('',*,*,#480,.T.);
#144=ORIENTED_EDGE('',*,*,#481,.T.);
#145=ORIENTED_EDGE('',*,*,#482,.F.);
#146=ORIENTED_EDGE('',*,*,#481,.F.);
#147=ORIENTED_EDGE('',*,*,#483,.T.);
#148=ORIENTED_EDGE('',*,*,#484,.T.);
#149=ORIENTED_EDGE('',*,*,#485,.F.);
#150=ORIENTED_EDGE('',*,*,#484,.F.);
#151=ORIENTED_EDGE('',*,*,#486,.T.);
#152=ORIENTED_EDGE('',*,*,#487,.T.);
#153=ORIENTED_EDGE('',*,*,#488,.F.);
#154=ORIENTED_EDGE('',*,*,#487,.F.);
#155=ORIENTED_EDGE('',*,*,#489,.T.);
#156=ORIENTED_EDGE('',*,*,#490,.T.);
#157=ORIENTED_EDGE('',*,*,#491,.F.);
#158=ORIENTED_EDGE('',*,*,#490,.F.);
#159=ORIENTED_EDGE('',*,*,#492,.T.);
#160=ORIENTED_EDGE('',*,*,#493,.T.);
#161=ORIENTED_EDGE('',*,*,#494,.F.);
#162=ORIENTED_EDGE('',*,*,#495,.T.);
#163=ORIENTED_EDGE('',*,*,#496,.T.);
#164=ORIENTED_EDGE('',*,*,#493,.F.);
#165=ORIENTED_EDGE('',*,*,#497,.F.);
#166=ORIENTED_EDGE('',*,*,#498,.F.);
#167=ORIENTED_EDGE('',*,*,#499,.T.);
#168=ORIENTED_EDGE('',*,*,#500,.T.);
#169=ORIENTED_EDGE('',*,*,#501,.F.);
#170=ORIENTED_EDGE('',*,*,#460,.T.);
#171=ORIENTED_EDGE('',*,*,#502,.T.);
#172=ORIENTED_EDGE('',*,*,#500,.F.);
#173=ORIENTED_EDGE('',*,*,#503,.F.);
#174=ORIENTED_EDGE('',*,*,#445,.F.);
#175=ORIENTED_EDGE('',*,*,#504,.F.);
#176=ORIENTED_EDGE('',*,*,#455,.F.);
#177=ORIENTED_EDGE('',*,*,#505,.F.);
#178=ORIENTED_EDGE('',*,*,#431,.T.);
#179=ORIENTED_EDGE('',*,*,#506,.T.);
#180=ORIENTED_EDGE('',*,*,#497,.T.);
#181=ORIENTED_EDGE('',*,*,#492,.F.);
#182=ORIENTED_EDGE('',*,*,#489,.F.);
#183=ORIENTED_EDGE('',*,*,#486,.F.);
#184=ORIENTED_EDGE('',*,*,#483,.F.);
#185=ORIENTED_EDGE('',*,*,#480,.F.);
#186=ORIENTED_EDGE('',*,*,#477,.F.);
#187=ORIENTED_EDGE('',*,*,#474,.F.);
#188=ORIENTED_EDGE('',*,*,#471,.F.);
#189=ORIENTED_EDGE('',*,*,#468,.F.);
#190=ORIENTED_EDGE('',*,*,#465,.F.);
#191=ORIENTED_EDGE('',*,*,#462,.F.);
#192=ORIENTED_EDGE('',*,*,#461,.T.);
#193=ORIENTED_EDGE('',*,*,#503,.T.);
#194=ORIENTED_EDGE('',*,*,#499,.F.);
#195=ORIENTED_EDGE('',*,*,#507,.T.);
#196=ORIENTED_EDGE('',*,*,#508,.T.);
#197=ORIENTED_EDGE('',*,*,#509,.T.);
#198=ORIENTED_EDGE('',*,*,#510,.T.);
#199=ORIENTED_EDGE('',*,*,#511,.F.);
#200=ORIENTED_EDGE('',*,*,#512,.F.);
#201=ORIENTED_EDGE('',*,*,#513,.T.);
#202=ORIENTED_EDGE('',*,*,#514,.T.);
#203=ORIENTED_EDGE('',*,*,#515,.T.);
#204=ORIENTED_EDGE('',*,*,#516,.T.);
#205=ORIENTED_EDGE('',*,*,#517,.T.);
#206=ORIENTED_EDGE('',*,*,#518,.T.);
#207=ORIENTED_EDGE('',*,*,#519,.T.);
#208=ORIENTED_EDGE('',*,*,#520,.T.);
#209=ORIENTED_EDGE('',*,*,#521,.T.);
#210=ORIENTED_EDGE('',*,*,#522,.T.);
#211=ORIENTED_EDGE('',*,*,#523,.T.);
#212=ORIENTED_EDGE('',*,*,#524,.F.);
#213=ORIENTED_EDGE('',*,*,#525,.T.);
#214=ORIENTED_EDGE('',*,*,#435,.T.);
#215=ORIENTED_EDGE('',*,*,#526,.F.);
#216=ORIENTED_EDGE('',*,*,#438,.T.);
#217=ORIENTED_EDGE('',*,*,#527,.F.);
#218=ORIENTED_EDGE('',*,*,#498,.T.);
#219=ORIENTED_EDGE('',*,*,#528,.T.);
#220=ORIENTED_EDGE('',*,*,#529,.F.);
#221=ORIENTED_EDGE('',*,*,#507,.F.);
#222=ORIENTED_EDGE('',*,*,#530,.T.);
#223=ORIENTED_EDGE('',*,*,#531,.F.);
#224=ORIENTED_EDGE('',*,*,#532,.T.);
#225=ORIENTED_EDGE('',*,*,#533,.T.);
#226=ORIENTED_EDGE('',*,*,#534,.F.);
#227=ORIENTED_EDGE('',*,*,#509,.F.);
#228=ORIENTED_EDGE('',*,*,#535,.T.);
#229=ORIENTED_EDGE('',*,*,#536,.F.);
#230=ORIENTED_EDGE('',*,*,#537,.T.);
#231=ORIENTED_EDGE('',*,*,#538,.T.);
#232=ORIENTED_EDGE('',*,*,#432,.F.);
#233=ORIENTED_EDGE('',*,*,#525,.F.);
#234=ORIENTED_EDGE('',*,*,#529,.T.);
#235=ORIENTED_EDGE('',*,*,#539,.T.);
#236=ORIENTED_EDGE('',*,*,#532,.F.);
#237=ORIENTED_EDGE('',*,*,#508,.F.);
#238=ORIENTED_EDGE('',*,*,#540,.T.);
#239=ORIENTED_EDGE('',*,*,#541,.T.);
#240=ORIENTED_EDGE('',*,*,#542,.T.);
#241=ORIENTED_EDGE('',*,*,#543,.F.);
#242=ORIENTED_EDGE('',*,*,#544,.F.);
#243=ORIENTED_EDGE('',*,*,#545,.F.);
#244=ORIENTED_EDGE('',*,*,#430,.T.);
#245=ORIENTED_EDGE('',*,*,#546,.T.);
#246=ORIENTED_EDGE('',*,*,#495,.F.);
#247=ORIENTED_EDGE('',*,*,#506,.F.);
#248=ORIENTED_EDGE('',*,*,#537,.F.);
#249=ORIENTED_EDGE('',*,*,#524,.T.);
#250=ORIENTED_EDGE('',*,*,#547,.T.);
#251=ORIENTED_EDGE('',*,*,#548,.F.);
#252=ORIENTED_EDGE('',*,*,#549,.T.);
#253=ORIENTED_EDGE('',*,*,#550,.T.);
#254=ORIENTED_EDGE('',*,*,#547,.F.);
#255=ORIENTED_EDGE('',*,*,#523,.F.);
#256=ORIENTED_EDGE('',*,*,#551,.T.);
#257=ORIENTED_EDGE('',*,*,#552,.T.);
#258=ORIENTED_EDGE('',*,*,#549,.F.);
#259=ORIENTED_EDGE('',*,*,#522,.F.);
#260=ORIENTED_EDGE('',*,*,#553,.T.);
#261=ORIENTED_EDGE('',*,*,#554,.T.);
#262=ORIENTED_EDGE('',*,*,#551,.F.);
#263=ORIENTED_EDGE('',*,*,#521,.F.);
#264=ORIENTED_EDGE('',*,*,#555,.T.);
#265=ORIENTED_EDGE('',*,*,#556,.T.);
#266=ORIENTED_EDGE('',*,*,#553,.F.);
#267=ORIENTED_EDGE('',*,*,#520,.F.);
#268=ORIENTED_EDGE('',*,*,#557,.T.);
#269=ORIENTED_EDGE('',*,*,#558,.T.);
#270=ORIENTED_EDGE('',*,*,#555,.F.);
#271=ORIENTED_EDGE('',*,*,#519,.F.);
#272=ORIENTED_EDGE('',*,*,#559,.T.);
#273=ORIENTED_EDGE('',*,*,#560,.T.);
#274=ORIENTED_EDGE('',*,*,#557,.F.);
#275=ORIENTED_EDGE('',*,*,#518,.F.);
#276=ORIENTED_EDGE('',*,*,#561,.T.);
#277=ORIENTED_EDGE('',*,*,#562,.T.);
#278=ORIENTED_EDGE('',*,*,#559,.F.);
#279=ORIENTED_EDGE('',*,*,#517,.F.);
#280=ORIENTED_EDGE('',*,*,#563,.T.);
#281=ORIENTED_EDGE('',*,*,#564,.T.);
#282=ORIENTED_EDGE('',*,*,#561,.F.);
#283=ORIENTED_EDGE('',*,*,#516,.F.);
#284=ORIENTED_EDGE('',*,*,#565,.T.);
#285=ORIENTED_EDGE('',*,*,#566,.T.);
#286=ORIENTED_EDGE('',*,*,#563,.F.);
#287=ORIENTED_EDGE('',*,*,#515,.F.);
#288=ORIENTED_EDGE('',*,*,#567,.T.);
#289=ORIENTED_EDGE('',*,*,#568,.T.);
#290=ORIENTED_EDGE('',*,*,#565,.F.);
#291=ORIENTED_EDGE('',*,*,#514,.F.);
#292=ORIENTED_EDGE('',*,*,#569,.T.);
#293=ORIENTED_EDGE('',*,*,#570,.T.);
#294=ORIENTED_EDGE('',*,*,#567,.F.);
#295=ORIENTED_EDGE('',*,*,#513,.F.);
#296=ORIENTED_EDGE('',*,*,#569,.F.);
#297=ORIENTED_EDGE('',*,*,#512,.T.);
#298=ORIENTED_EDGE('',*,*,#571,.T.);
#299=ORIENTED_EDGE('',*,*,#572,.F.);
#300=ORIENTED_EDGE('',*,*,#571,.F.);
#301=ORIENTED_EDGE('',*,*,#511,.T.);
#302=ORIENTED_EDGE('',*,*,#573,.T.);
#303=ORIENTED_EDGE('',*,*,#574,.F.);
#304=ORIENTED_EDGE('',*,*,#534,.T.);
#305=ORIENTED_EDGE('',*,*,#575,.T.);
#306=ORIENTED_EDGE('',*,*,#573,.F.);
#307=ORIENTED_EDGE('',*,*,#510,.F.);
#308=ORIENTED_EDGE('',*,*,#576,.T.);
#309=ORIENTED_EDGE('',*,*,#448,.F.);
#310=ORIENTED_EDGE('',*,*,#577,.T.);
#311=ORIENTED_EDGE('',*,*,#576,.F.);
#312=ORIENTED_EDGE('',*,*,#578,.T.);
#313=ORIENTED_EDGE('',*,*,#447,.F.);
#314=ORIENTED_EDGE('',*,*,#579,.T.);
#315=ORIENTED_EDGE('',*,*,#578,.F.);
#316=ORIENTED_EDGE('',*,*,#580,.T.);
#317=ORIENTED_EDGE('',*,*,#446,.F.);
#318=ORIENTED_EDGE('',*,*,#581,.T.);
#319=ORIENTED_EDGE('',*,*,#580,.F.);
#320=ORIENTED_EDGE('',*,*,#540,.F.);
#321=ORIENTED_EDGE('',*,*,#581,.F.);
#322=ORIENTED_EDGE('',*,*,#541,.F.);
#323=ORIENTED_EDGE('',*,*,#579,.F.);
#324=ORIENTED_EDGE('',*,*,#542,.F.);
#325=ORIENTED_EDGE('',*,*,#577,.F.);
#326=ORIENTED_EDGE('',*,*,#582,.T.);
#327=ORIENTED_EDGE('',*,*,#456,.F.);
#328=ORIENTED_EDGE('',*,*,#583,.T.);
#329=ORIENTED_EDGE('',*,*,#582,.F.);
#330=ORIENTED_EDGE('',*,*,#530,.F.);
#331=ORIENTED_EDGE('',*,*,#583,.F.);
#332=ORIENTED_EDGE('',*,*,#584,.T.);
#333=ORIENTED_EDGE('',*,*,#436,.F.);
#334=ORIENTED_EDGE('',*,*,#585,.T.);
#335=ORIENTED_EDGE('',*,*,#584,.F.);
#336=ORIENTED_EDGE('',*,*,#535,.F.);
#337=ORIENTED_EDGE('',*,*,#585,.F.);
#338=ORIENTED_EDGE('',*,*,#434,.T.);
#339=ORIENTED_EDGE('',*,*,#586,.F.);
#340=ORIENTED_EDGE('',*,*,#439,.T.);
#341=ORIENTED_EDGE('',*,*,#526,.T.);
#342=ORIENTED_EDGE('',*,*,#454,.T.);
#343=ORIENTED_EDGE('',*,*,#587,.F.);
#344=ORIENTED_EDGE('',*,*,#428,.T.);
#345=ORIENTED_EDGE('',*,*,#505,.T.);
#346=ORIENTED_EDGE('',*,*,#437,.T.);
#347=ORIENTED_EDGE('',*,*,#588,.F.);
#348=ORIENTED_EDGE('',*,*,#442,.T.);
#349=ORIENTED_EDGE('',*,*,#527,.T.);
#350=ORIENTED_EDGE('',*,*,#444,.T.);
#351=ORIENTED_EDGE('',*,*,#589,.F.);
#352=ORIENTED_EDGE('',*,*,#452,.T.);
#353=ORIENTED_EDGE('',*,*,#504,.T.);
#354=ORIENTED_EDGE('',*,*,#443,.T.);
#355=ORIENTED_EDGE('',*,*,#588,.T.);
#356=ORIENTED_EDGE('',*,*,#440,.F.);
#357=ORIENTED_EDGE('',*,*,#586,.T.);
#358=ORIENTED_EDGE('',*,*,#433,.F.);
#359=ORIENTED_EDGE('',*,*,#538,.F.);
#360=ORIENTED_EDGE('',*,*,#548,.T.);
#361=ORIENTED_EDGE('',*,*,#550,.F.);
#362=ORIENTED_EDGE('',*,*,#552,.F.);
#363=ORIENTED_EDGE('',*,*,#554,.F.);
#364=ORIENTED_EDGE('',*,*,#556,.F.);
#365=ORIENTED_EDGE('',*,*,#558,.F.);
#366=ORIENTED_EDGE('',*,*,#560,.F.);
#367=ORIENTED_EDGE('',*,*,#562,.F.);
#368=ORIENTED_EDGE('',*,*,#564,.F.);
#369=ORIENTED_EDGE('',*,*,#566,.F.);
#370=ORIENTED_EDGE('',*,*,#568,.F.);
#371=ORIENTED_EDGE('',*,*,#570,.F.);
#372=ORIENTED_EDGE('',*,*,#572,.T.);
#373=ORIENTED_EDGE('',*,*,#574,.T.);
#374=ORIENTED_EDGE('',*,*,#575,.F.);
#375=ORIENTED_EDGE('',*,*,#533,.F.);
#376=ORIENTED_EDGE('',*,*,#539,.F.);
#377=ORIENTED_EDGE('',*,*,#528,.F.);
#378=ORIENTED_EDGE('',*,*,#501,.T.);
#379=ORIENTED_EDGE('',*,*,#502,.F.);
#380=ORIENTED_EDGE('',*,*,#459,.F.);
#381=ORIENTED_EDGE('',*,*,#464,.T.);
#382=ORIENTED_EDGE('',*,*,#467,.T.);
#383=ORIENTED_EDGE('',*,*,#470,.T.);
#384=ORIENTED_EDGE('',*,*,#473,.T.);
#385=ORIENTED_EDGE('',*,*,#476,.T.);
#386=ORIENTED_EDGE('',*,*,#479,.T.);
#387=ORIENTED_EDGE('',*,*,#482,.T.);
#388=ORIENTED_EDGE('',*,*,#485,.T.);
#389=ORIENTED_EDGE('',*,*,#488,.T.);
#390=ORIENTED_EDGE('',*,*,#491,.T.);
#391=ORIENTED_EDGE('',*,*,#494,.T.);
#392=ORIENTED_EDGE('',*,*,#496,.F.);
#393=ORIENTED_EDGE('',*,*,#546,.F.);
#394=ORIENTED_EDGE('',*,*,#429,.F.);
#395=ORIENTED_EDGE('',*,*,#587,.T.);
#396=ORIENTED_EDGE('',*,*,#453,.T.);
#397=ORIENTED_EDGE('',*,*,#589,.T.);
#398=ORIENTED_EDGE('',*,*,#590,.F.);
#399=ORIENTED_EDGE('',*,*,#451,.T.);
#400=ORIENTED_EDGE('',*,*,#591,.F.);
#401=ORIENTED_EDGE('',*,*,#590,.T.);
#402=ORIENTED_EDGE('',*,*,#592,.F.);
#403=ORIENTED_EDGE('',*,*,#450,.T.);
#404=ORIENTED_EDGE('',*,*,#593,.F.);
#405=ORIENTED_EDGE('',*,*,#592,.T.);
#406=ORIENTED_EDGE('',*,*,#594,.F.);
#407=ORIENTED_EDGE('',*,*,#449,.T.);
#408=ORIENTED_EDGE('',*,*,#595,.F.);
#409=ORIENTED_EDGE('',*,*,#594,.T.);
#410=ORIENTED_EDGE('',*,*,#543,.T.);
#411=ORIENTED_EDGE('',*,*,#595,.T.);
#412=ORIENTED_EDGE('',*,*,#544,.T.);
#413=ORIENTED_EDGE('',*,*,#593,.T.);
#414=ORIENTED_EDGE('',*,*,#545,.T.);
#415=ORIENTED_EDGE('',*,*,#591,.T.);
#416=ORIENTED_EDGE('',*,*,#596,.F.);
#417=ORIENTED_EDGE('',*,*,#457,.T.);
#418=ORIENTED_EDGE('',*,*,#597,.F.);
#419=ORIENTED_EDGE('',*,*,#596,.T.);
#420=ORIENTED_EDGE('',*,*,#531,.T.);
#421=ORIENTED_EDGE('',*,*,#597,.T.);
#422=ORIENTED_EDGE('',*,*,#598,.F.);
#423=ORIENTED_EDGE('',*,*,#441,.T.);
#424=ORIENTED_EDGE('',*,*,#599,.F.);
#425=ORIENTED_EDGE('',*,*,#598,.T.);
#426=ORIENTED_EDGE('',*,*,#536,.T.);
#427=ORIENTED_EDGE('',*,*,#599,.T.);
#428=EDGE_CURVE('',#600,#601,#728,.T.);
#429=EDGE_CURVE('',#600,#602,#729,.T.);
#430=EDGE_CURVE('',#603,#602,#730,.T.);
#431=EDGE_CURVE('',#601,#603,#731,.T.);
#432=EDGE_CURVE('',#604,#605,#732,.T.);
#433=EDGE_CURVE('',#605,#606,#733,.T.);
#434=EDGE_CURVE('',#607,#606,#734,.F.);
#435=EDGE_CURVE('',#604,#607,#735,.T.);
#436=EDGE_CURVE('',#608,#608,#36,.T.);
#437=EDGE_CURVE('',#609,#610,#736,.F.);
#438=EDGE_CURVE('',#611,#609,#737,.T.);
#439=EDGE_CURVE('',#612,#611,#738,.T.);
#440=EDGE_CURVE('',#612,#610,#739,.T.);
#441=EDGE_CURVE('',#613,#613,#37,.T.);
#442=EDGE_CURVE('',#614,#615,#740,.T.);
#443=EDGE_CURVE('',#616,#614,#741,.T.);
#444=EDGE_CURVE('',#617,#616,#742,.F.);
#445=EDGE_CURVE('',#617,#615,#743,.T.);
#446=EDGE_CURVE('',#618,#618,#38,.T.);
#447=EDGE_CURVE('',#619,#619,#39,.T.);
#448=EDGE_CURVE('',#620,#620,#40,.T.);
#449=EDGE_CURVE('',#621,#621,#41,.T.);
#450=EDGE_CURVE('',#622,#622,#42,.T.);
#451=EDGE_CURVE('',#623,#623,#43,.T.);
#452=EDGE_CURVE('',#624,#625,#744,.T.);
#453=EDGE_CURVE('',#626,#624,#745,.T.);
#454=EDGE_CURVE('',#627,#626,#746,.F.);
#455=EDGE_CURVE('',#627,#625,#747,.T.);
#456=EDGE_CURVE('',#628,#628,#44,.T.);
#457=EDGE_CURVE('',#629,#629,#45,.T.);
#458=EDGE_CURVE('',#630,#631,#748,.T.);
#459=EDGE_CURVE('',#631,#632,#749,.T.);
#460=EDGE_CURVE('',#633,#632,#750,.T.);
#461=EDGE_CURVE('',#630,#633,#751,.T.);
#462=EDGE_CURVE('',#630,#634,#752,.T.);
#463=EDGE_CURVE('',#634,#635,#753,.T.);
#464=EDGE_CURVE('',#631,#635,#754,.T.);
#465=EDGE_CURVE('',#634,#636,#755,.T.);
#466=EDGE_CURVE('',#636,#637,#756,.T.);
#467=EDGE_CURVE('',#635,#637,#757,.T.);
#468=EDGE_CURVE('',#636,#638,#758,.T.);
#469=EDGE_CURVE('',#638,#639,#759,.T.);
#470=EDGE_CURVE('',#637,#639,#760,.T.);
#471=EDGE_CURVE('',#638,#640,#761,.T.);
#472=EDGE_CURVE('',#640,#641,#762,.T.);
#473=EDGE_CURVE('',#639,#641,#763,.T.);
#474=EDGE_CURVE('',#640,#642,#764,.T.);
#475=EDGE_CURVE('',#642,#643,#765,.T.);
#476=EDGE_CURVE('',#641,#643,#766,.T.);
#477=EDGE_CURVE('',#642,#644,#767,.T.);
#478=EDGE_CURVE('',#644,#645,#768,.T.);
#479=EDGE_CURVE('',#643,#645,#769,.T.);
#480=EDGE_CURVE('',#644,#646,#770,.T.);
#481=EDGE_CURVE('',#646,#647,#771,.T.);
#482=EDGE_CURVE('',#645,#647,#772,.T.);
#483=EDGE_CURVE('',#646,#648,#773,.T.);
#484=EDGE_CURVE('',#648,#649,#774,.T.);
#485=EDGE_CURVE('',#647,#649,#775,.T.);
#486=EDGE_CURVE('',#648,#650,#776,.T.);
#487=EDGE_CURVE('',#650,#651,#777,.T.);
#488=EDGE_CURVE('',#649,#651,#778,.T.);
#489=EDGE_CURVE('',#650,#652,#779,.T.);
#490=EDGE_CURVE('',#652,#653,#780,.T.);
#491=EDGE_CURVE('',#651,#653,#781,.T.);
#492=EDGE_CURVE('',#652,#654,#782,.T.);
#493=EDGE_CURVE('',#654,#655,#783,.T.);
#494=EDGE_CURVE('',#653,#655,#784,.T.);
#495=EDGE_CURVE('',#656,#657,#785,.T.);
#496=EDGE_CURVE('',#657,#655,#786,.T.);
#497=EDGE_CURVE('',#656,#654,#787,.T.);
#498=EDGE_CURVE('',#658,#659,#788,.T.);
#499=EDGE_CURVE('',#658,#660,#789,.T.);
#500=EDGE_CURVE('',#660,#661,#790,.T.);
#501=EDGE_CURVE('',#659,#661,#791,.T.);
#502=EDGE_CURVE('',#632,#661,#792,.T.);
#503=EDGE_CURVE('',#633,#660,#793,.T.);
#504=EDGE_CURVE('',#625,#617,#46,.T.);
#505=EDGE_CURVE('',#601,#627,#47,.T.);
#506=EDGE_CURVE('',#603,#656,#794,.T.);
#507=EDGE_CURVE('',#658,#662,#795,.T.);
#508=EDGE_CURVE('',#662,#663,#796,.T.);
#509=EDGE_CURVE('',#663,#664,#797,.T.);
#510=EDGE_CURVE('',#664,#665,#798,.T.);
#511=EDGE_CURVE('',#666,#665,#799,.T.);
#512=EDGE_CURVE('',#667,#666,#800,.T.);
#513=EDGE_CURVE('',#667,#668,#801,.T.);
#514=EDGE_CURVE('',#668,#669,#802,.T.);
#515=EDGE_CURVE('',#669,#670,#803,.T.);
#516=EDGE_CURVE('',#670,#671,#804,.T.);
#517=EDGE_CURVE('',#671,#672,#805,.T.);
#518=EDGE_CURVE('',#672,#673,#806,.T.);
#519=EDGE_CURVE('',#673,#674,#807,.T.);
#520=EDGE_CURVE('',#674,#675,#808,.T.);
#521=EDGE_CURVE('',#675,#676,#809,.T.);
#522=EDGE_CURVE('',#676,#677,#810,.T.);
#523=EDGE_CURVE('',#677,#678,#811,.T.);
#524=EDGE_CURVE('',#679,#678,#812,.T.);
#525=EDGE_CURVE('',#679,#604,#813,.T.);
#526=EDGE_CURVE('',#611,#607,#48,.T.);
#527=EDGE_CURVE('',#615,#609,#49,.T.);
#528=EDGE_CURVE('',#659,#680,#814,.T.);
#529=EDGE_CURVE('',#662,#680,#815,.T.);
#530=EDGE_CURVE('',#681,#681,#50,.T.);
#531=EDGE_CURVE('',#682,#682,#51,.T.);
#532=EDGE_CURVE('',#663,#683,#816,.T.);
#533=EDGE_CURVE('',#683,#684,#817,.T.);
#534=EDGE_CURVE('',#664,#684,#818,.T.);
#535=EDGE_CURVE('',#685,#685,#52,.T.);
#536=EDGE_CURVE('',#686,#686,#53,.T.);
#537=EDGE_CURVE('',#679,#687,#819,.T.);
#538=EDGE_CURVE('',#687,#605,#820,.T.);
#539=EDGE_CURVE('',#680,#683,#821,.T.);
#540=EDGE_CURVE('',#688,#688,#54,.T.);
#541=EDGE_CURVE('',#689,#689,#55,.T.);
#542=EDGE_CURVE('',#690,#690,#56,.T.);
#543=EDGE_CURVE('',#691,#691,#57,.T.);
#544=EDGE_CURVE('',#692,#692,#58,.T.);
#545=EDGE_CURVE('',#693,#693,#59,.T.);
#546=EDGE_CURVE('',#602,#657,#822,.T.);
#547=EDGE_CURVE('',#678,#694,#823,.T.);
#548=EDGE_CURVE('',#687,#694,#824,.T.);
#549=EDGE_CURVE('',#677,#695,#825,.T.);
#550=EDGE_CURVE('',#695,#694,#826,.T.);
#551=EDGE_CURVE('',#676,#696,#827,.T.);
#552=EDGE_CURVE('',#696,#695,#828,.T.);
#553=EDGE_CURVE('',#675,#697,#829,.T.);
#554=EDGE_CURVE('',#697,#696,#830,.T.);
#555=EDGE_CURVE('',#674,#698,#831,.T.);
#556=EDGE_CURVE('',#698,#697,#832,.T.);
#557=EDGE_CURVE('',#673,#699,#833,.T.);
#558=EDGE_CURVE('',#699,#698,#834,.T.);
#559=EDGE_CURVE('',#672,#700,#835,.T.);
#560=EDGE_CURVE('',#700,#699,#836,.T.);
#561=EDGE_CURVE('',#671,#701,#837,.T.);
#562=EDGE_CURVE('',#701,#700,#838,.T.);
#563=EDGE_CURVE('',#670,#702,#839,.T.);
#564=EDGE_CURVE('',#702,#701,#840,.T.);
#565=EDGE_CURVE('',#669,#703,#841,.T.);
#566=EDGE_CURVE('',#703,#702,#842,.T.);
#567=EDGE_CURVE('',#668,#704,#843,.T.);
#568=EDGE_CURVE('',#704,#703,#844,.T.);
#569=EDGE_CURVE('',#667,#705,#845,.T.);
#570=EDGE_CURVE('',#705,#704,#846,.T.);
#571=EDGE_CURVE('',#666,#706,#847,.T.);
#572=EDGE_CURVE('',#705,#706,#848,.T.);
#573=EDGE_CURVE('',#665,#707,#849,.T.);
#574=EDGE_CURVE('',#706,#707,#850,.T.);
#575=EDGE_CURVE('',#684,#707,#851,.T.);
#576=EDGE_CURVE('',#708,#708,#60,.T.);
#577=EDGE_CURVE('',#709,#709,#61,.T.);
#578=EDGE_CURVE('',#710,#710,#62,.T.);
#579=EDGE_CURVE('',#711,#711,#63,.T.);
#580=EDGE_CURVE('',#712,#712,#64,.T.);
#581=EDGE_CURVE('',#713,#713,#65,.T.);
#582=EDGE_CURVE('',#714,#714,#66,.T.);
#583=EDGE_CURVE('',#715,#715,#67,.T.);
#584=EDGE_CURVE('',#716,#716,#68,.T.);
#585=EDGE_CURVE('',#717,#717,#69,.T.);
#586=EDGE_CURVE('',#612,#606,#70,.T.);
#587=EDGE_CURVE('',#600,#626,#71,.T.);
#588=EDGE_CURVE('',#614,#610,#72,.T.);
#589=EDGE_CURVE('',#624,#616,#73,.T.);
#590=EDGE_CURVE('',#718,#718,#74,.T.);
#591=EDGE_CURVE('',#719,#719,#75,.T.);
#592=EDGE_CURVE('',#720,#720,#76,.T.);
#593=EDGE_CURVE('',#721,#721,#77,.T.);
#594=EDGE_CURVE('',#722,#722,#78,.T.);
#595=EDGE_CURVE('',#723,#723,#79,.T.);
#596=EDGE_CURVE('',#724,#724,#80,.T.);
#597=EDGE_CURVE('',#725,#725,#81,.T.);
#598=EDGE_CURVE('',#726,#726,#82,.T.);
#599=EDGE_CURVE('',#727,#727,#83,.T.);
#600=VERTEX_POINT('',#1870);
#601=VERTEX_POINT('',#1871);
#602=VERTEX_POINT('',#1873);
#603=VERTEX_POINT('',#1875);
#604=VERTEX_POINT('',#1879);
#605=VERTEX_POINT('',#1880);
#606=VERTEX_POINT('',#1882);
#607=VERTEX_POINT('',#1884);
#608=VERTEX_POINT('',#1888);
#609=VERTEX_POINT('',#1890);
#610=VERTEX_POINT('',#1891);
#611=VERTEX_POINT('',#1893);
#612=VERTEX_POINT('',#1895);
#613=VERTEX_POINT('',#1898);
#614=VERTEX_POINT('',#1901);
#615=VERTEX_POINT('',#1902);
#616=VERTEX_POINT('',#1904);
#617=VERTEX_POINT('',#1906);
#618=VERTEX_POINT('',#1909);
#619=VERTEX_POINT('',#1911);
#620=VERTEX_POINT('',#1913);
#621=VERTEX_POINT('',#1915);
#622=VERTEX_POINT('',#1917);
#623=VERTEX_POINT('',#1919);
#624=VERTEX_POINT('',#1922);
#625=VERTEX_POINT('',#1923);
#626=VERTEX_POINT('',#1925);
#627=VERTEX_POINT('',#1927);
#628=VERTEX_POINT('',#1930);
#629=VERTEX_POINT('',#1932);
#630=VERTEX_POINT('',#1935);
#631=VERTEX_POINT('',#1936);
#632=VERTEX_POINT('',#1938);
#633=VERTEX_POINT('',#1940);
#634=VERTEX_POINT('',#1944);
#635=VERTEX_POINT('',#1946);
#636=VERTEX_POINT('',#1950);
#637=VERTEX_POINT('',#1952);
#638=VERTEX_POINT('',#1956);
#639=VERTEX_POINT('',#1958);
#640=VERTEX_POINT('',#1962);
#641=VERTEX_POINT('',#1964);
#642=VERTEX_POINT('',#1968);
#643=VERTEX_POINT('',#1970);
#644=VERTEX_POINT('',#1974);
#645=VERTEX_POINT('',#1976);
#646=VERTEX_POINT('',#1980);
#647=VERTEX_POINT('',#1982);
#648=VERTEX_POINT('',#1986);
#649=VERTEX_POINT('',#1988);
#650=VERTEX_POINT('',#1992);
#651=VERTEX_POINT('',#1994);
#652=VERTEX_POINT('',#1998);
#653=VERTEX_POINT('',#2000);
#654=VERTEX_POINT('',#2004);
#655=VERTEX_POINT('',#2006);
#656=VERTEX_POINT('',#2010);
#657=VERTEX_POINT('',#2011);
#658=VERTEX_POINT('',#2016);
#659=VERTEX_POINT('',#2017);
#660=VERTEX_POINT('',#2019);
#661=VERTEX_POINT('',#2021);
#662=VERTEX_POINT('',#2031);
#663=VERTEX_POINT('',#2033);
#664=VERTEX_POINT('',#2035);
#665=VERTEX_POINT('',#2037);
#666=VERTEX_POINT('',#2039);
#667=VERTEX_POINT('',#2041);
#668=VERTEX_POINT('',#2043);
#669=VERTEX_POINT('',#2045);
#670=VERTEX_POINT('',#2047);
#671=VERTEX_POINT('',#2049);
#672=VERTEX_POINT('',#2051);
#673=VERTEX_POINT('',#2053);
#674=VERTEX_POINT('',#2055);
#675=VERTEX_POINT('',#2057);
#676=VERTEX_POINT('',#2059);
#677=VERTEX_POINT('',#2061);
#678=VERTEX_POINT('',#2063);
#679=VERTEX_POINT('',#2065);
#680=VERTEX_POINT('',#2071);
#681=VERTEX_POINT('',#2074);
#682=VERTEX_POINT('',#2076);
#683=VERTEX_POINT('',#2079);
#684=VERTEX_POINT('',#2081);
#685=VERTEX_POINT('',#2084);
#686=VERTEX_POINT('',#2086);
#687=VERTEX_POINT('',#2089);
#688=VERTEX_POINT('',#2094);
#689=VERTEX_POINT('',#2096);
#690=VERTEX_POINT('',#2098);
#691=VERTEX_POINT('',#2100);
#692=VERTEX_POINT('',#2102);
#693=VERTEX_POINT('',#2104);
#694=VERTEX_POINT('',#2109);
#695=VERTEX_POINT('',#2113);
#696=VERTEX_POINT('',#2117);
#697=VERTEX_POINT('',#2121);
#698=VERTEX_POINT('',#2125);
#699=VERTEX_POINT('',#2129);
#700=VERTEX_POINT('',#2133);
#701=VERTEX_POINT('',#2137);
#702=VERTEX_POINT('',#2141);
#703=VERTEX_POINT('',#2145);
#704=VERTEX_POINT('',#2149);
#705=VERTEX_POINT('',#2153);
#706=VERTEX_POINT('',#2157);
#707=VERTEX_POINT('',#2161);
#708=VERTEX_POINT('',#2167);
#709=VERTEX_POINT('',#2170);
#710=VERTEX_POINT('',#2173);
#711=VERTEX_POINT('',#2176);
#712=VERTEX_POINT('',#2179);
#713=VERTEX_POINT('',#2182);
#714=VERTEX_POINT('',#2188);
#715=VERTEX_POINT('',#2191);
#716=VERTEX_POINT('',#2195);
#717=VERTEX_POINT('',#2198);
#718=VERTEX_POINT('',#2211);
#719=VERTEX_POINT('',#2214);
#720=VERTEX_POINT('',#2217);
#721=VERTEX_POINT('',#2220);
#722=VERTEX_POINT('',#2223);
#723=VERTEX_POINT('',#2226);
#724=VERTEX_POINT('',#2232);
#725=VERTEX_POINT('',#2235);
#726=VERTEX_POINT('',#2239);
#727=VERTEX_POINT('',#2242);
#728=LINE('',#1869,#852);
#729=LINE('',#1872,#853);
#730=LINE('',#1874,#854);
#731=LINE('',#1876,#855);
#732=LINE('',#1878,#856);
#733=LINE('',#1881,#857);
#734=LINE('',#1883,#858);
#735=LINE('',#1885,#859);
#736=LINE('',#1889,#860);
#737=LINE('',#1892,#861);
#738=LINE('',#1894,#862);
#739=LINE('',#1896,#863);
#740=LINE('',#1900,#864);
#741=LINE('',#1903,#865);
#742=LINE('',#1905,#866);
#743=LINE('',#1907,#867);
#744=LINE('',#1921,#868);
#745=LINE('',#1924,#869);
#746=LINE('',#1926,#870);
#747=LINE('',#1928,#871);
#748=LINE('',#1934,#872);
#749=LINE('',#1937,#873);
#750=LINE('',#1939,#874);
#751=LINE('',#1941,#875);
#752=LINE('',#1943,#876);
#753=LINE('',#1945,#877);
#754=LINE('',#1947,#878);
#755=LINE('',#1949,#879);
#756=LINE('',#1951,#880);
#757=LINE('',#1953,#881);
#758=LINE('',#1955,#882);
#759=LINE('',#1957,#883);
#760=LINE('',#1959,#884);
#761=LINE('',#1961,#885);
#762=LINE('',#1963,#886);
#763=LINE('',#1965,#887);
#764=LINE('',#1967,#888);
#765=LINE('',#1969,#889);
#766=LINE('',#1971,#890);
#767=LINE('',#1973,#891);
#768=LINE('',#1975,#892);
#769=LINE('',#1977,#893);
#770=LINE('',#1979,#894);
#771=LINE('',#1981,#895);
#772=LINE('',#1983,#896);
#773=LINE('',#1985,#897);
#774=LINE('',#1987,#898);
#775=LINE('',#1989,#899);
#776=LINE('',#1991,#900);
#777=LINE('',#1993,#901);
#778=LINE('',#1995,#902);
#779=LINE('',#1997,#903);
#780=LINE('',#1999,#904);
#781=LINE('',#2001,#905);
#782=LINE('',#2003,#906);
#783=LINE('',#2005,#907);
#784=LINE('',#2007,#908);
#785=LINE('',#2009,#909);
#786=LINE('',#2012,#910);
#787=LINE('',#2013,#911);
#788=LINE('',#2015,#912);
#789=LINE('',#2018,#913);
#790=LINE('',#2020,#914);
#791=LINE('',#2022,#915);
#792=LINE('',#2024,#916);
#793=LINE('',#2025,#917);
#794=LINE('',#2029,#918);
#795=LINE('',#2030,#919);
#796=LINE('',#2032,#920);
#797=LINE('',#2034,#921);
#798=LINE('',#2036,#922);
#799=LINE('',#2038,#923);
#800=LINE('',#2040,#924);
#801=LINE('',#2042,#925);
#802=LINE('',#2044,#926);
#803=LINE('',#2046,#927);
#804=LINE('',#2048,#928);
#805=LINE('',#2050,#929);
#806=LINE('',#2052,#930);
#807=LINE('',#2054,#931);
#808=LINE('',#2056,#932);
#809=LINE('',#2058,#933);
#810=LINE('',#2060,#934);
#811=LINE('',#2062,#935);
#812=LINE('',#2064,#936);
#813=LINE('',#2066,#937);
#814=LINE('',#2070,#938);
#815=LINE('',#2072,#939);
#816=LINE('',#2078,#940);
#817=LINE('',#2080,#941);
#818=LINE('',#2082,#942);
#819=LINE('',#2088,#943);
#820=LINE('',#2090,#944);
#821=LINE('',#2092,#945);
#822=LINE('',#2106,#946);
#823=LINE('',#2108,#947);
#824=LINE('',#2110,#948);
#825=LINE('',#2112,#949);
#826=LINE('',#2114,#950);
#827=LINE('',#2116,#951);
#828=LINE('',#2118,#952);
#829=LINE('',#2120,#953);
#830=LINE('',#2122,#954);
#831=LINE('',#2124,#955);
#832=LINE('',#2126,#956);
#833=LINE('',#2128,#957);
#834=LINE('',#2130,#958);
#835=LINE('',#2132,#959);
#836=LINE('',#2134,#960);
#837=LINE('',#2136,#961);
#838=LINE('',#2138,#962);
#839=LINE('',#2140,#963);
#840=LINE('',#2142,#964);
#841=LINE('',#2144,#965);
#842=LINE('',#2146,#966);
#843=LINE('',#2148,#967);
#844=LINE('',#2150,#968);
#845=LINE('',#2152,#969);
#846=LINE('',#2154,#970);
#847=LINE('',#2156,#971);
#848=LINE('',#2158,#972);
#849=LINE('',#2160,#973);
#850=LINE('',#2162,#974);
#851=LINE('',#2164,#975);
#852=VECTOR('',#1497,1.);
#853=VECTOR('',#1498,1.);
#854=VECTOR('',#1499,1.);
#855=VECTOR('',#1500,1.);
#856=VECTOR('',#1503,1.);
#857=VECTOR('',#1504,1.);
#858=VECTOR('',#1505,1.);
#859=VECTOR('',#1506,1.);
#860=VECTOR('',#1511,1.);
#861=VECTOR('',#1512,1.);
#862=VECTOR('',#1513,1.);
#863=VECTOR('',#1514,1.);
#864=VECTOR('',#1519,1.);
#865=VECTOR('',#1520,1.);
#866=VECTOR('',#1521,1.);
#867=VECTOR('',#1522,1.);
#868=VECTOR('',#1537,1.);
#869=VECTOR('',#1538,1.);
#870=VECTOR('',#1539,1.);
#871=VECTOR('',#1540,1.);
#872=VECTOR('',#1547,1.);
#873=VECTOR('',#1548,1.);
#874=VECTOR('',#1549,1.);
#875=VECTOR('',#1550,1.);
#876=VECTOR('',#1553,1.);
#877=VECTOR('',#1554,1.);
#878=VECTOR('',#1555,1.);
#879=VECTOR('',#1558,1.);
#880=VECTOR('',#1559,1.);
#881=VECTOR('',#1560,1.);
#882=VECTOR('',#1563,1.);
#883=VECTOR('',#1564,1.);
#884=VECTOR('',#1565,1.);
#885=VECTOR('',#1568,1.);
#886=VECTOR('',#1569,1.);
#887=VECTOR('',#1570,1.);
#888=VECTOR('',#1573,1.);
#889=VECTOR('',#1574,1.);
#890=VECTOR('',#1575,1.);
#891=VECTOR('',#1578,1.);
#892=VECTOR('',#1579,1.);
#893=VECTOR('',#1580,1.);
#894=VECTOR('',#1583,1.);
#895=VECTOR('',#1584,1.);
#896=VECTOR('',#1585,1.);
#897=VECTOR('',#1588,1.);
#898=VECTOR('',#1589,1.);
#899=VECTOR('',#1590,1.);
#900=VECTOR('',#1593,1.);
#901=VECTOR('',#1594,1.);
#902=VECTOR('',#1595,1.);
#903=VECTOR('',#1598,1.);
#904=VECTOR('',#1599,1.);
#905=VECTOR('',#1600,1.);
#906=VECTOR('',#1603,1.);
#907=VECTOR('',#1604,1.);
#908=VECTOR('',#1605,1.);
#909=VECTOR('',#1608,1.);
#910=VECTOR('',#1609,1.);
#911=VECTOR('',#1610,1.);
#912=VECTOR('',#1613,1.);
#913=VECTOR('',#1614,1.);
#914=VECTOR('',#1615,1.);
#915=VECTOR('',#1616,1.);
#916=VECTOR('',#1619,1.);
#917=VECTOR('',#1620,1.);
#918=VECTOR('',#1627,1.);
#919=VECTOR('',#1628,1.);
#920=VECTOR('',#1629,1.);
#921=VECTOR('',#1630,1.);
#922=VECTOR('',#1631,1.);
#923=VECTOR('',#1632,1.);
#924=VECTOR('',#1633,1.);
#925=VECTOR('',#1634,1.);
#926=VECTOR('',#1635,1.);
#927=VECTOR('',#1636,1.);
#928=VECTOR('',#1637,1.);
#929=VECTOR('',#1638,1.);
#930=VECTOR('',#1639,1.);
#931=VECTOR('',#1640,1.);
#932=VECTOR('',#1641,1.);
#933=VECTOR('',#1642,1.);
#934=VECTOR('',#1643,1.);
#935=VECTOR('',#1644,1.);
#936=VECTOR('',#1645,1.);
#937=VECTOR('',#1646,1.);
#938=VECTOR('',#1653,1.);
#939=VECTOR('',#1654,1.);
#940=VECTOR('',#1661,1.);
#941=VECTOR('',#1662,1.);
#942=VECTOR('',#1663,1.);
#943=VECTOR('',#1670,1.);
#944=VECTOR('',#1671,1.);
#945=VECTOR('',#1674,1.);
#946=VECTOR('',#1689,1.);
#947=VECTOR('',#1692,1.);
#948=VECTOR('',#1693,1.);
#949=VECTOR('',#1696,1.);
#950=VECTOR('',#1697,1.);
#951=VECTOR('',#1700,1.);
#952=VECTOR('',#1701,1.);
#953=VECTOR('',#1704,1.);
#954=VECTOR('',#1705,1.);
#955=VECTOR('',#1708,1.);
#956=VECTOR('',#1709,1.);
#957=VECTOR('',#1712,1.);
#958=VECTOR('',#1713,1.);
#959=VECTOR('',#1716,1.);
#960=VECTOR('',#1717,1.);
#961=VECTOR('',#1720,1.);
#962=VECTOR('',#1721,1.);
#963=VECTOR('',#1724,1.);
#964=VECTOR('',#1725,1.);
#965=VECTOR('',#1728,1.);
#966=VECTOR('',#1729,1.);
#967=VECTOR('',#1732,1.);
#968=VECTOR('',#1733,1.);
#969=VECTOR('',#1736,1.);
#970=VECTOR('',#1737,1.);
#971=VECTOR('',#1740,1.);
#972=VECTOR('',#1741,1.);
#973=VECTOR('',#1744,1.);
#974=VECTOR('',#1745,1.);
#975=VECTOR('',#1748,1.);
#976=EDGE_LOOP('',(#84,#85,#86,#87));
#977=EDGE_LOOP('',(#88,#89,#90,#91));
#978=EDGE_LOOP('',(#92));
#979=EDGE_LOOP('',(#93,#94,#95,#96));
#980=EDGE_LOOP('',(#97));
#981=EDGE_LOOP('',(#98,#99,#100,#101));
#982=EDGE_LOOP('',(#102));
#983=EDGE_LOOP('',(#103));
#984=EDGE_LOOP('',(#104));
#985=EDGE_LOOP('',(#105));
#986=EDGE_LOOP('',(#106));
#987=EDGE_LOOP('',(#107));
#988=EDGE_LOOP('',(#108,#109,#110,#111));
#989=EDGE_LOOP('',(#112));
#990=EDGE_LOOP('',(#113));
#991=EDGE_LOOP('',(#114,#115,#116,#117));
#992=EDGE_LOOP('',(#118,#119,#120,#121));
#993=EDGE_LOOP('',(#122,#123,#124,#125));
#994=EDGE_LOOP('',(#126,#127,#128,#129));
#995=EDGE_LOOP('',(#130,#131,#132,#133));
#996=EDGE_LOOP('',(#134,#135,#136,#137));
#997=EDGE_LOOP('',(#138,#139,#140,#141));
#998=EDGE_LOOP('',(#142,#143,#144,#145));
#999=EDGE_LOOP('',(#146,#147,#148,#149));
#1000=EDGE_LOOP('',(#150,#151,#152,#153));
#1001=EDGE_LOOP('',(#154,#155,#156,#157));
#1002=EDGE_LOOP('',(#158,#159,#160,#161));
#1003=EDGE_LOOP('',(#162,#163,#164,#165));
#1004=EDGE_LOOP('',(#166,#167,#168,#169));
#1005=EDGE_LOOP('',(#170,#171,#172,#173));
#1006=EDGE_LOOP('',(#174,#175,#176,#177,#178,#179,#180,#181,#182,#183,#184,
#185,#186,#187,#188,#189,#190,#191,#192,#193,#194,#195,#196,#197,#198,#199,
#200,#201,#202,#203,#204,#205,#206,#207,#208,#209,#210,#211,#212,#213,#214,
#215,#216,#217));
#1007=EDGE_LOOP('',(#218,#219,#220,#221));
#1008=EDGE_LOOP('',(#222));
#1009=EDGE_LOOP('',(#223));
#1010=EDGE_LOOP('',(#224,#225,#226,#227));
#1011=EDGE_LOOP('',(#228));
#1012=EDGE_LOOP('',(#229));
#1013=EDGE_LOOP('',(#230,#231,#232,#233));
#1014=EDGE_LOOP('',(#234,#235,#236,#237));
#1015=EDGE_LOOP('',(#238));
#1016=EDGE_LOOP('',(#239));
#1017=EDGE_LOOP('',(#240));
#1018=EDGE_LOOP('',(#241));
#1019=EDGE_LOOP('',(#242));
#1020=EDGE_LOOP('',(#243));
#1021=EDGE_LOOP('',(#244,#245,#246,#247));
#1022=EDGE_LOOP('',(#248,#249,#250,#251));
#1023=EDGE_LOOP('',(#252,#253,#254,#255));
#1024=EDGE_LOOP('',(#256,#257,#258,#259));
#1025=EDGE_LOOP('',(#260,#261,#262,#263));
#1026=EDGE_LOOP('',(#264,#265,#266,#267));
#1027=EDGE_LOOP('',(#268,#269,#270,#271));
#1028=EDGE_LOOP('',(#272,#273,#274,#275));
#1029=EDGE_LOOP('',(#276,#277,#278,#279));
#1030=EDGE_LOOP('',(#280,#281,#282,#283));
#1031=EDGE_LOOP('',(#284,#285,#286,#287));
#1032=EDGE_LOOP('',(#288,#289,#290,#291));
#1033=EDGE_LOOP('',(#292,#293,#294,#295));
#1034=EDGE_LOOP('',(#296,#297,#298,#299));
#1035=EDGE_LOOP('',(#300,#301,#302,#303));
#1036=EDGE_LOOP('',(#304,#305,#306,#307));
#1037=EDGE_LOOP('',(#308));
#1038=EDGE_LOOP('',(#309));
#1039=EDGE_LOOP('',(#310));
#1040=EDGE_LOOP('',(#311));
#1041=EDGE_LOOP('',(#312));
#1042=EDGE_LOOP('',(#313));
#1043=EDGE_LOOP('',(#314));
#1044=EDGE_LOOP('',(#315));
#1045=EDGE_LOOP('',(#316));
#1046=EDGE_LOOP('',(#317));
#1047=EDGE_LOOP('',(#318));
#1048=EDGE_LOOP('',(#319));
#1049=EDGE_LOOP('',(#320));
#1050=EDGE_LOOP('',(#321));
#1051=EDGE_LOOP('',(#322));
#1052=EDGE_LOOP('',(#323));
#1053=EDGE_LOOP('',(#324));
#1054=EDGE_LOOP('',(#325));
#1055=EDGE_LOOP('',(#326));
#1056=EDGE_LOOP('',(#327));
#1057=EDGE_LOOP('',(#328));
#1058=EDGE_LOOP('',(#329));
#1059=EDGE_LOOP('',(#330));
#1060=EDGE_LOOP('',(#331));
#1061=EDGE_LOOP('',(#332));
#1062=EDGE_LOOP('',(#333));
#1063=EDGE_LOOP('',(#334));
#1064=EDGE_LOOP('',(#335));
#1065=EDGE_LOOP('',(#336));
#1066=EDGE_LOOP('',(#337));
#1067=EDGE_LOOP('',(#338,#339,#340,#341));
#1068=EDGE_LOOP('',(#342,#343,#344,#345));
#1069=EDGE_LOOP('',(#346,#347,#348,#349));
#1070=EDGE_LOOP('',(#350,#351,#352,#353));
#1071=EDGE_LOOP('',(#354,#355,#356,#357,#358,#359,#360,#361,#362,#363,#364,
#365,#366,#367,#368,#369,#370,#371,#372,#373,#374,#375,#376,#377,#378,#379,
#380,#381,#382,#383,#384,#385,#386,#387,#388,#389,#390,#391,#392,#393,#394,
#395,#396,#397));
#1072=EDGE_LOOP('',(#398));
#1073=EDGE_LOOP('',(#399));
#1074=EDGE_LOOP('',(#400));
#1075=EDGE_LOOP('',(#401));
#1076=EDGE_LOOP('',(#402));
#1077=EDGE_LOOP('',(#403));
#1078=EDGE_LOOP('',(#404));
#1079=EDGE_LOOP('',(#405));
#1080=EDGE_LOOP('',(#406));
#1081=EDGE_LOOP('',(#407));
#1082=EDGE_LOOP('',(#408));
#1083=EDGE_LOOP('',(#409));
#1084=EDGE_LOOP('',(#410));
#1085=EDGE_LOOP('',(#411));
#1086=EDGE_LOOP('',(#412));
#1087=EDGE_LOOP('',(#413));
#1088=EDGE_LOOP('',(#414));
#1089=EDGE_LOOP('',(#415));
#1090=EDGE_LOOP('',(#416));
#1091=EDGE_LOOP('',(#417));
#1092=EDGE_LOOP('',(#418));
#1093=EDGE_LOOP('',(#419));
#1094=EDGE_LOOP('',(#420));
#1095=EDGE_LOOP('',(#421));
#1096=EDGE_LOOP('',(#422));
#1097=EDGE_LOOP('',(#423));
#1098=EDGE_LOOP('',(#424));
#1099=EDGE_LOOP('',(#425));
#1100=EDGE_LOOP('',(#426));
#1101=EDGE_LOOP('',(#427));
#1102=FACE_BOUND('',#976,.T.);
#1103=FACE_BOUND('',#977,.T.);
#1104=FACE_BOUND('',#978,.T.);
#1105=FACE_BOUND('',#979,.T.);
#1106=FACE_BOUND('',#980,.T.);
#1107=FACE_BOUND('',#981,.T.);
#1108=FACE_BOUND('',#982,.T.);
#1109=FACE_BOUND('',#983,.T.);
#1110=FACE_BOUND('',#984,.T.);
#1111=FACE_BOUND('',#985,.T.);
#1112=FACE_BOUND('',#986,.T.);
#1113=FACE_BOUND('',#987,.T.);
#1114=FACE_BOUND('',#988,.T.);
#1115=FACE_BOUND('',#989,.T.);
#1116=FACE_BOUND('',#990,.T.);
#1117=FACE_BOUND('',#991,.T.);
#1118=FACE_BOUND('',#992,.T.);
#1119=FACE_BOUND('',#993,.T.);
#1120=FACE_BOUND('',#994,.T.);
#1121=FACE_BOUND('',#995,.T.);
#1122=FACE_BOUND('',#996,.T.);
#1123=FACE_BOUND('',#997,.T.);
#1124=FACE_BOUND('',#998,.T.);
#1125=FACE_BOUND('',#999,.T.);
#1126=FACE_BOUND('',#1000,.T.);
#1127=FACE_BOUND('',#1001,.T.);
#1128=FACE_BOUND('',#1002,.T.);
#1129=FACE_BOUND('',#1003,.T.);
#1130=FACE_BOUND('',#1004,.T.);
#1131=FACE_BOUND('',#1005,.T.);
#1132=FACE_BOUND('',#1006,.T.);
#1133=FACE_BOUND('',#1007,.T.);
#1134=FACE_BOUND('',#1008,.T.);
#1135=FACE_BOUND('',#1009,.T.);
#1136=FACE_BOUND('',#1010,.T.);
#1137=FACE_BOUND('',#1011,.T.);
#1138=FACE_BOUND('',#1012,.T.);
#1139=FACE_BOUND('',#1013,.T.);
#1140=FACE_BOUND('',#1014,.T.);
#1141=FACE_BOUND('',#1015,.T.);
#1142=FACE_BOUND('',#1016,.T.);
#1143=FACE_BOUND('',#1017,.T.);
#1144=FACE_BOUND('',#1018,.T.);
#1145=FACE_BOUND('',#1019,.T.);
#1146=FACE_BOUND('',#1020,.T.);
#1147=FACE_BOUND('',#1021,.T.);
#1148=FACE_BOUND('',#1022,.T.);
#1149=FACE_BOUND('',#1023,.T.);
#1150=FACE_BOUND('',#1024,.T.);
#1151=FACE_BOUND('',#1025,.T.);
#1152=FACE_BOUND('',#1026,.T.);
#1153=FACE_BOUND('',#1027,.T.);
#1154=FACE_BOUND('',#1028,.T.);
#1155=FACE_BOUND('',#1029,.T.);
#1156=FACE_BOUND('',#1030,.T.);
#1157=FACE_BOUND('',#1031,.T.);
#1158=FACE_BOUND('',#1032,.T.);
#1159=FACE_BOUND('',#1033,.T.);
#1160=FACE_BOUND('',#1034,.T.);
#1161=FACE_BOUND('',#1035,.T.);
#1162=FACE_BOUND('',#1036,.T.);
#1163=FACE_BOUND('',#1037,.T.);
#1164=FACE_BOUND('',#1038,.T.);
#1165=FACE_BOUND('',#1039,.T.);
#1166=FACE_BOUND('',#1040,.T.);
#1167=FACE_BOUND('',#1041,.T.);
#1168=FACE_BOUND('',#1042,.T.);
#1169=FACE_BOUND('',#1043,.T.);
#1170=FACE_BOUND('',#1044,.T.);
#1171=FACE_BOUND('',#1045,.T.);
#1172=FACE_BOUND('',#1046,.T.);
#1173=FACE_BOUND('',#1047,.T.);
#1174=FACE_BOUND('',#1048,.T.);
#1175=FACE_BOUND('',#1049,.T.);
#1176=FACE_BOUND('',#1050,.T.);
#1177=FACE_BOUND('',#1051,.T.);
#1178=FACE_BOUND('',#1052,.T.);
#1179=FACE_BOUND('',#1053,.T.);
#1180=FACE_BOUND('',#1054,.T.);
#1181=FACE_BOUND('',#1055,.T.);
#1182=FACE_BOUND('',#1056,.T.);
#1183=FACE_BOUND('',#1057,.T.);
#1184=FACE_BOUND('',#1058,.T.);
#1185=FACE_BOUND('',#1059,.T.);
#1186=FACE_BOUND('',#1060,.T.);
#1187=FACE_BOUND('',#1061,.T.);
#1188=FACE_BOUND('',#1062,.T.);
#1189=FACE_BOUND('',#1063,.T.);
#1190=FACE_BOUND('',#1064,.T.);
#1191=FACE_BOUND('',#1065,.T.);
#1192=FACE_BOUND('',#1066,.T.);
#1193=FACE_BOUND('',#1067,.T.);
#1194=FACE_BOUND('',#1068,.T.);
#1195=FACE_BOUND('',#1069,.T.);
#1196=FACE_BOUND('',#1070,.T.);
#1197=FACE_BOUND('',#1071,.T.);
#1198=FACE_BOUND('',#1072,.T.);
#1199=FACE_BOUND('',#1073,.T.);
#1200=FACE_BOUND('',#1074,.T.);
#1201=FACE_BOUND('',#1075,.T.);
#1202=FACE_BOUND('',#1076,.T.);
#1203=FACE_BOUND('',#1077,.T.);
#1204=FACE_BOUND('',#1078,.T.);
#1205=FACE_BOUND('',#1079,.T.);
#1206=FACE_BOUND('',#1080,.T.);
#1207=FACE_BOUND('',#1081,.T.);
#1208=FACE_BOUND('',#1082,.T.);
#1209=FACE_BOUND('',#1083,.T.);
#1210=FACE_BOUND('',#1084,.T.);
#1211=FACE_BOUND('',#1085,.T.);
#1212=FACE_BOUND('',#1086,.T.);
#1213=FACE_BOUND('',#1087,.T.);
#1214=FACE_BOUND('',#1088,.T.);
#1215=FACE_BOUND('',#1089,.T.);
#1216=FACE_BOUND('',#1090,.T.);
#1217=FACE_BOUND('',#1091,.T.);
#1218=FACE_BOUND('',#1092,.T.);
#1219=FACE_BOUND('',#1093,.T.);
#1220=FACE_BOUND('',#1094,.T.);
#1221=FACE_BOUND('',#1095,.T.);
#1222=FACE_BOUND('',#1096,.T.);
#1223=FACE_BOUND('',#1097,.T.);
#1224=FACE_BOUND('',#1098,.T.);
#1225=FACE_BOUND('',#1099,.T.);
#1226=FACE_BOUND('',#1100,.T.);
#1227=FACE_BOUND('',#1101,.T.);
#1228=PLANE('',#1369);
#1229=PLANE('',#1370);
#1230=PLANE('',#1371);
#1231=PLANE('',#1374);
#1232=PLANE('',#1381);
#1233=PLANE('',#1384);
#1234=PLANE('',#1385);
#1235=PLANE('',#1386);
#1236=PLANE('',#1387);
#1237=PLANE('',#1388);
#1238=PLANE('',#1389);
#1239=PLANE('',#1390);
#1240=PLANE('',#1391);
#1241=PLANE('',#1392);
#1242=PLANE('',#1393);
#1243=PLANE('',#1394);
#1244=PLANE('',#1395);
#1245=PLANE('',#1396);
#1246=PLANE('',#1397);
#1247=PLANE('',#1398);
#1248=PLANE('',#1399);
#1249=PLANE('',#1404);
#1250=PLANE('',#1407);
#1251=PLANE('',#1410);
#1252=PLANE('',#1411);
#1253=PLANE('',#1418);
#1254=PLANE('',#1419);
#1255=PLANE('',#1420);
#1256=PLANE('',#1421);
#1257=PLANE('',#1422);
#1258=PLANE('',#1423);
#1259=PLANE('',#1424);
#1260=PLANE('',#1425);
#1261=PLANE('',#1426);
#1262=PLANE('',#1427);
#1263=PLANE('',#1428);
#1264=PLANE('',#1429);
#1265=PLANE('',#1430);
#1266=PLANE('',#1431);
#1267=PLANE('',#1432);
#1268=PLANE('',#1433);
#1269=PLANE('',#1436);
#1270=PLANE('',#1440);
#1271=PLANE('',#1444);
#1272=PLANE('',#1451);
#1273=PLANE('',#1456);
#1274=PLANE('',#1467);
#1275=PLANE('',#1470);
#1276=PLANE('',#1474);
#1277=PLANE('',#1478);
#1278=PLANE('',#1485);
#1279=PLANE('',#1490);
#1280=ADVANCED_FACE('',(#1102),#1228,.T.);
#1281=ADVANCED_FACE('',(#1103),#1229,.T.);
#1282=ADVANCED_FACE('',(#1104,#1105,#1106),#1230,.F.);
#1283=ADVANCED_FACE('',(#1107,#1108,#1109,#1110,#1111,#1112,#1113),#1231,
 .T.);
#1284=ADVANCED_FACE('',(#1114,#1115,#1116),#1232,.T.);
#1285=ADVANCED_FACE('',(#1117),#1233,.T.);
#1286=ADVANCED_FACE('',(#1118),#1234,.F.);
#1287=ADVANCED_FACE('',(#1119),#1235,.F.);
#1288=ADVANCED_FACE('',(#1120),#1236,.F.);
#1289=ADVANCED_FACE('',(#1121),#1237,.F.);
#1290=ADVANCED_FACE('',(#1122),#1238,.F.);
#1291=ADVANCED_FACE('',(#1123),#1239,.F.);
#1292=ADVANCED_FACE('',(#1124),#1240,.F.);
#1293=ADVANCED_FACE('',(#1125),#1241,.F.);
#1294=ADVANCED_FACE('',(#1126),#1242,.F.);
#1295=ADVANCED_FACE('',(#1127),#1243,.F.);
#1296=ADVANCED_FACE('',(#1128),#1244,.F.);
#1297=ADVANCED_FACE('',(#1129),#1245,.T.);
#1298=ADVANCED_FACE('',(#1130),#1246,.F.);
#1299=ADVANCED_FACE('',(#1131),#1247,.T.);
#1300=ADVANCED_FACE('',(#1132),#1248,.T.);
#1301=ADVANCED_FACE('',(#1133,#1134,#1135),#1249,.T.);
#1302=ADVANCED_FACE('',(#1136,#1137,#1138),#1250,.T.);
#1303=ADVANCED_FACE('',(#1139),#1251,.T.);
#1304=ADVANCED_FACE('',(#1140,#1141,#1142,#1143,#1144,#1145,#1146),#1252,
 .T.);
#1305=ADVANCED_FACE('',(#1147),#1253,.T.);
#1306=ADVANCED_FACE('',(#1148),#1254,.F.);
#1307=ADVANCED_FACE('',(#1149),#1255,.T.);
#1308=ADVANCED_FACE('',(#1150),#1256,.T.);
#1309=ADVANCED_FACE('',(#1151),#1257,.T.);
#1310=ADVANCED_FACE('',(#1152),#1258,.T.);
#1311=ADVANCED_FACE('',(#1153),#1259,.T.);
#1312=ADVANCED_FACE('',(#1154),#1260,.T.);
#1313=ADVANCED_FACE('',(#1155),#1261,.T.);
#1314=ADVANCED_FACE('',(#1156),#1262,.T.);
#1315=ADVANCED_FACE('',(#1157),#1263,.T.);
#1316=ADVANCED_FACE('',(#1158),#1264,.T.);
#1317=ADVANCED_FACE('',(#1159),#1265,.T.);
#1318=ADVANCED_FACE('',(#1160),#1266,.F.);
#1319=ADVANCED_FACE('',(#1161),#1267,.F.);
#1320=ADVANCED_FACE('',(#1162),#1268,.T.);
#1321=ADVANCED_FACE('',(#1163,#1164),#12,.F.);
#1322=ADVANCED_FACE('',(#1165,#1166),#1269,.T.);
#1323=ADVANCED_FACE('',(#1167,#1168),#13,.F.);
#1324=ADVANCED_FACE('',(#1169,#1170),#1270,.T.);
#1325=ADVANCED_FACE('',(#1171,#1172),#14,.F.);
#1326=ADVANCED_FACE('',(#1173,#1174),#1271,.T.);
#1327=ADVANCED_FACE('',(#1175,#1176),#15,.F.);
#1328=ADVANCED_FACE('',(#1177,#1178),#16,.F.);
#1329=ADVANCED_FACE('',(#1179,#1180),#17,.F.);
#1330=ADVANCED_FACE('',(#1181,#1182),#18,.F.);
#1331=ADVANCED_FACE('',(#1183,#1184),#1272,.T.);
#1332=ADVANCED_FACE('',(#1185,#1186),#19,.F.);
#1333=ADVANCED_FACE('',(#1187,#1188),#20,.F.);
#1334=ADVANCED_FACE('',(#1189,#1190),#1273,.T.);
#1335=ADVANCED_FACE('',(#1191,#1192),#21,.F.);
#1336=ADVANCED_FACE('',(#1193),#22,.T.);
#1337=ADVANCED_FACE('',(#1194),#23,.T.);
#1338=ADVANCED_FACE('',(#1195),#24,.T.);
#1339=ADVANCED_FACE('',(#1196),#25,.T.);
#1340=ADVANCED_FACE('',(#1197),#1274,.T.);
#1341=ADVANCED_FACE('',(#1198,#1199),#26,.F.);
#1342=ADVANCED_FACE('',(#1200,#1201),#1275,.T.);
#1343=ADVANCED_FACE('',(#1202,#1203),#27,.F.);
#1344=ADVANCED_FACE('',(#1204,#1205),#1276,.T.);
#1345=ADVANCED_FACE('',(#1206,#1207),#28,.F.);
#1346=ADVANCED_FACE('',(#1208,#1209),#1277,.T.);
#1347=ADVANCED_FACE('',(#1210,#1211),#29,.F.);
#1348=ADVANCED_FACE('',(#1212,#1213),#30,.F.);
#1349=ADVANCED_FACE('',(#1214,#1215),#31,.F.);
#1350=ADVANCED_FACE('',(#1216,#1217),#32,.F.);
#1351=ADVANCED_FACE('',(#1218,#1219),#1278,.T.);
#1352=ADVANCED_FACE('',(#1220,#1221),#33,.F.);
#1353=ADVANCED_FACE('',(#1222,#1223),#34,.F.);
#1354=ADVANCED_FACE('',(#1224,#1225),#1279,.T.);
#1355=ADVANCED_FACE('',(#1226,#1227),#35,.F.);
#1356=CLOSED_SHELL('',(#1280,#1281,#1282,#1283,#1284,#1285,#1286,#1287,
#1288,#1289,#1290,#1291,#1292,#1293,#1294,#1295,#1296,#1297,#1298,#1299,
#1300,#1301,#1302,#1303,#1304,#1305,#1306,#1307,#1308,#1309,#1310,#1311,
#1312,#1313,#1314,#1315,#1316,#1317,#1318,#1319,#1320,#1321,#1322,#1323,
#1324,#1325,#1326,#1327,#1328,#1329,#1330,#1331,#1332,#1333,#1334,#1335,
#1336,#1337,#1338,#1339,#1340,#1341,#1342,#1343,#1344,#1345,#1346,#1347,
#1348,#1349,#1350,#1351,#1352,#1353,#1354,#1355));
#1357=STYLED_ITEM('',(#1358),#1365);
#1358=PRESENTATION_STYLE_ASSIGNMENT((#1359));
#1359=SURFACE_STYLE_USAGE(.BOTH.,#1360);
#1360=SURFACE_SIDE_STYLE('',(#1361));
#1361=SURFACE_STYLE_FILL_AREA(#1362);
#1362=FILL_AREA_STYLE('',(#1363));
#1363=FILL_AREA_STYLE_COLOUR('',#1364);
#1364=COLOUR_RGB('',0.231372549019608,0.380392156862745,0.705882352941177);
#1365=MANIFOLD_SOLID_BREP('Part 7',#1356);
#1366=SHAPE_DEFINITION_REPRESENTATION(#2250,#1367);
#1367=SHAPE_REPRESENTATION('Part 7',(#1368),#2245);
#1368=AXIS2_PLACEMENT_3D('',#1867,#1493,#1494);
#1369=AXIS2_PLACEMENT_3D('',#1868,#1495,#1496);
#1370=AXIS2_PLACEMENT_3D('',#1877,#1501,#1502);
#1371=AXIS2_PLACEMENT_3D('',#1886,#1507,#1508);
#1372=AXIS2_PLACEMENT_3D('',#1887,#1509,#1510);
#1373=AXIS2_PLACEMENT_3D('',#1897,#1515,#1516);
#1374=AXIS2_PLACEMENT_3D('',#1899,#1517,#1518);
#1375=AXIS2_PLACEMENT_3D('',#1908,#1523,#1524);
#1376=AXIS2_PLACEMENT_3D('',#1910,#1525,#1526);
#1377=AXIS2_PLACEMENT_3D('',#1912,#1527,#1528);
#1378=AXIS2_PLACEMENT_3D('',#1914,#1529,#1530);
#1379=AXIS2_PLACEMENT_3D('',#1916,#1531,#1532);
#1380=AXIS2_PLACEMENT_3D('',#1918,#1533,#1534);
#1381=AXIS2_PLACEMENT_3D('',#1920,#1535,#1536);
#1382=AXIS2_PLACEMENT_3D('',#1929,#1541,#1542);
#1383=AXIS2_PLACEMENT_3D('',#1931,#1543,#1544);
#1384=AXIS2_PLACEMENT_3D('',#1933,#1545,#1546);
#1385=AXIS2_PLACEMENT_3D('',#1942,#1551,#1552);
#1386=AXIS2_PLACEMENT_3D('',#1948,#1556,#1557);
#1387=AXIS2_PLACEMENT_3D('',#1954,#1561,#1562);
#1388=AXIS2_PLACEMENT_3D('',#1960,#1566,#1567);
#1389=AXIS2_PLACEMENT_3D('',#1966,#1571,#1572);
#1390=AXIS2_PLACEMENT_3D('',#1972,#1576,#1577);
#1391=AXIS2_PLACEMENT_3D('',#1978,#1581,#1582);
#1392=AXIS2_PLACEMENT_3D('',#1984,#1586,#1587);
#1393=AXIS2_PLACEMENT_3D('',#1990,#1591,#1592);
#1394=AXIS2_PLACEMENT_3D('',#1996,#1596,#1597);
#1395=AXIS2_PLACEMENT_3D('',#2002,#1601,#1602);
#1396=AXIS2_PLACEMENT_3D('',#2008,#1606,#1607);
#1397=AXIS2_PLACEMENT_3D('',#2014,#1611,#1612);
#1398=AXIS2_PLACEMENT_3D('',#2023,#1617,#1618);
#1399=AXIS2_PLACEMENT_3D('',#2026,#1621,#1622);
#1400=AXIS2_PLACEMENT_3D('',#2027,#1623,#1624);
#1401=AXIS2_PLACEMENT_3D('',#2028,#1625,#1626);
#1402=AXIS2_PLACEMENT_3D('',#2067,#1647,#1648);
#1403=AXIS2_PLACEMENT_3D('',#2068,#1649,#1650);
#1404=AXIS2_PLACEMENT_3D('',#2069,#1651,#1652);
#1405=AXIS2_PLACEMENT_3D('',#2073,#1655,#1656);
#1406=AXIS2_PLACEMENT_3D('',#2075,#1657,#1658);
#1407=AXIS2_PLACEMENT_3D('',#2077,#1659,#1660);
#1408=AXIS2_PLACEMENT_3D('',#2083,#1664,#1665);
#1409=AXIS2_PLACEMENT_3D('',#2085,#1666,#1667);
#1410=AXIS2_PLACEMENT_3D('',#2087,#1668,#1669);
#1411=AXIS2_PLACEMENT_3D('',#2091,#1672,#1673);
#1412=AXIS2_PLACEMENT_3D('',#2093,#1675,#1676);
#1413=AXIS2_PLACEMENT_3D('',#2095,#1677,#1678);
#1414=AXIS2_PLACEMENT_3D('',#2097,#1679,#1680);
#1415=AXIS2_PLACEMENT_3D('',#2099,#1681,#1682);
#1416=AXIS2_PLACEMENT_3D('',#2101,#1683,#1684);
#1417=AXIS2_PLACEMENT_3D('',#2103,#1685,#1686);
#1418=AXIS2_PLACEMENT_3D('',#2105,#1687,#1688);
#1419=AXIS2_PLACEMENT_3D('',#2107,#1690,#1691);
#1420=AXIS2_PLACEMENT_3D('',#2111,#1694,#1695);
#1421=AXIS2_PLACEMENT_3D('',#2115,#1698,#1699);
#1422=AXIS2_PLACEMENT_3D('',#2119,#1702,#1703);
#1423=AXIS2_PLACEMENT_3D('',#2123,#1706,#1707);
#1424=AXIS2_PLACEMENT_3D('',#2127,#1710,#1711);
#1425=AXIS2_PLACEMENT_3D('',#2131,#1714,#1715);
#1426=AXIS2_PLACEMENT_3D('',#2135,#1718,#1719);
#1427=AXIS2_PLACEMENT_3D('',#2139,#1722,#1723);
#1428=AXIS2_PLACEMENT_3D('',#2143,#1726,#1727);
#1429=AXIS2_PLACEMENT_3D('',#2147,#1730,#1731);
#1430=AXIS2_PLACEMENT_3D('',#2151,#1734,#1735);
#1431=AXIS2_PLACEMENT_3D('',#2155,#1738,#1739);
#1432=AXIS2_PLACEMENT_3D('',#2159,#1742,#1743);
#1433=AXIS2_PLACEMENT_3D('',#2163,#1746,#1747);
#1434=AXIS2_PLACEMENT_3D('',#2165,#1749,#1750);
#1435=AXIS2_PLACEMENT_3D('',#2166,#1751,#1752);
#1436=AXIS2_PLACEMENT_3D('',#2168,#1753,#1754);
#1437=AXIS2_PLACEMENT_3D('',#2169,#1755,#1756);
#1438=AXIS2_PLACEMENT_3D('',#2171,#1757,#1758);
#1439=AXIS2_PLACEMENT_3D('',#2172,#1759,#1760);
#1440=AXIS2_PLACEMENT_3D('',#2174,#1761,#1762);
#1441=AXIS2_PLACEMENT_3D('',#2175,#1763,#1764);
#1442=AXIS2_PLACEMENT_3D('',#2177,#1765,#1766);
#1443=AXIS2_PLACEMENT_3D('',#2178,#1767,#1768);
#1444=AXIS2_PLACEMENT_3D('',#2180,#1769,#1770);
#1445=AXIS2_PLACEMENT_3D('',#2181,#1771,#1772);
#1446=AXIS2_PLACEMENT_3D('',#2183,#1773,#1774);
#1447=AXIS2_PLACEMENT_3D('',#2184,#1775,#1776);
#1448=AXIS2_PLACEMENT_3D('',#2185,#1777,#1778);
#1449=AXIS2_PLACEMENT_3D('',#2186,#1779,#1780);
#1450=AXIS2_PLACEMENT_3D('',#2187,#1781,#1782);
#1451=AXIS2_PLACEMENT_3D('',#2189,#1783,#1784);
#1452=AXIS2_PLACEMENT_3D('',#2190,#1785,#1786);
#1453=AXIS2_PLACEMENT_3D('',#2192,#1787,#1788);
#1454=AXIS2_PLACEMENT_3D('',#2193,#1789,#1790);
#1455=AXIS2_PLACEMENT_3D('',#2194,#1791,#1792);
#1456=AXIS2_PLACEMENT_3D('',#2196,#1793,#1794);
#1457=AXIS2_PLACEMENT_3D('',#2197,#1795,#1796);
#1458=AXIS2_PLACEMENT_3D('',#2199,#1797,#1798);
#1459=AXIS2_PLACEMENT_3D('',#2200,#1799,#1800);
#1460=AXIS2_PLACEMENT_3D('',#2201,#1801,#1802);
#1461=AXIS2_PLACEMENT_3D('',#2202,#1803,#1804);
#1462=AXIS2_PLACEMENT_3D('',#2203,#1805,#1806);
#1463=AXIS2_PLACEMENT_3D('',#2204,#1807,#1808);
#1464=AXIS2_PLACEMENT_3D('',#2205,#1809,#1810);
#1465=AXIS2_PLACEMENT_3D('',#2206,#1811,#1812);
#1466=AXIS2_PLACEMENT_3D('',#2207,#1813,#1814);
#1467=AXIS2_PLACEMENT_3D('',#2208,#1815,#1816);
#1468=AXIS2_PLACEMENT_3D('',#2209,#1817,#1818);
#1469=AXIS2_PLACEMENT_3D('',#2210,#1819,#1820);
#1470=AXIS2_PLACEMENT_3D('',#2212,#1821,#1822);
#1471=AXIS2_PLACEMENT_3D('',#2213,#1823,#1824);
#1472=AXIS2_PLACEMENT_3D('',#2215,#1825,#1826);
#1473=AXIS2_PLACEMENT_3D('',#2216,#1827,#1828);
#1474=AXIS2_PLACEMENT_3D('',#2218,#1829,#1830);
#1475=AXIS2_PLACEMENT_3D('',#2219,#1831,#1832);
#1476=AXIS2_PLACEMENT_3D('',#2221,#1833,#1834);
#1477=AXIS2_PLACEMENT_3D('',#2222,#1835,#1836);
#1478=AXIS2_PLACEMENT_3D('',#2224,#1837,#1838);
#1479=AXIS2_PLACEMENT_3D('',#2225,#1839,#1840);
#1480=AXIS2_PLACEMENT_3D('',#2227,#1841,#1842);
#1481=AXIS2_PLACEMENT_3D('',#2228,#1843,#1844);
#1482=AXIS2_PLACEMENT_3D('',#2229,#1845,#1846);
#1483=AXIS2_PLACEMENT_3D('',#2230,#1847,#1848);
#1484=AXIS2_PLACEMENT_3D('',#2231,#1849,#1850);
#1485=AXIS2_PLACEMENT_3D('',#2233,#1851,#1852);
#1486=AXIS2_PLACEMENT_3D('',#2234,#1853,#1854);
#1487=AXIS2_PLACEMENT_3D('',#2236,#1855,#1856);
#1488=AXIS2_PLACEMENT_3D('',#2237,#1857,#1858);
#1489=AXIS2_PLACEMENT_3D('',#2238,#1859,#1860);
#1490=AXIS2_PLACEMENT_3D('',#2240,#1861,#1862);
#1491=AXIS2_PLACEMENT_3D('',#2241,#1863,#1864);
#1492=AXIS2_PLACEMENT_3D('',#2243,#1865,#1866);
#1493=DIRECTION('',(0.,0.,1.));
#1494=DIRECTION('',(1.,0.,0.));
#1495=DIRECTION('',(0.,1.,2.01858731750028E-16));
#1496=DIRECTION('',(0.,-2.01858731750028E-16,1.));
#1497=DIRECTION('',(-1.,0.,0.));
#1498=DIRECTION('',(0.,0.,-1.));
#1499=DIRECTION('',(1.,0.,0.));
#1500=DIRECTION('',(0.,0.,-1.));
#1501=DIRECTION('',(0.,1.,2.01858731750028E-16));
#1502=DIRECTION('',(0.,-2.01858731750028E-16,1.));
#1503=DIRECTION('',(1.,0.,0.));
#1504=DIRECTION('',(0.,0.,-1.));
#1505=DIRECTION('',(-1.,0.,0.));
#1506=DIRECTION('',(0.,0.,-1.));
#1507=DIRECTION('',(0.,0.,1.));
#1508=DIRECTION('',(0.,-1.,0.));
#1509=DIRECTION('',(0.,0.,1.));
#1510=DIRECTION('',(0.,1.,0.));
#1511=DIRECTION('',(-1.,0.,0.));
#1512=DIRECTION('',(0.,-1.,0.));
#1513=DIRECTION('',(-1.,0.,0.));
#1514=DIRECTION('',(0.,-1.,0.));
#1515=DIRECTION('',(0.,0.,-1.));
#1516=DIRECTION('',(0.,1.,0.));
#1517=DIRECTION('',(0.,-1.,-2.01858731750028E-16));
#1518=DIRECTION('',(0.,2.01858731750028E-16,-1.));
#1519=DIRECTION('',(-1.,0.,0.));
#1520=DIRECTION('',(0.,2.01858731750028E-16,-1.));
#1521=DIRECTION('',(-1.,0.,0.));
#1522=DIRECTION('',(0.,2.01858731750028E-16,-1.));
#1523=DIRECTION('',(0.,1.,2.01858731750028E-16));
#1524=DIRECTION('',(0.,2.01858731750028E-16,-1.));
#1525=DIRECTION('',(0.,1.,2.01858731750028E-16));
#1526=DIRECTION('',(0.,2.01858731750028E-16,-1.));
#1527=DIRECTION('',(0.,1.,2.01858731750028E-16));
#1528=DIRECTION('',(0.,2.01858731750028E-16,-1.));
#1529=DIRECTION('',(0.,-1.,-2.01858731750028E-16));
#1530=DIRECTION('',(0.,2.01858731750028E-16,-1.));
#1531=DIRECTION('',(0.,-1.,-2.01858731750028E-16));
#1532=DIRECTION('',(0.,2.01858731750028E-16,-1.));
#1533=DIRECTION('',(0.,-1.,-2.01858731750028E-16));
#1534=DIRECTION('',(0.,2.01858731750028E-16,-1.));
#1535=DIRECTION('',(0.,0.,1.));
#1536=DIRECTION('',(0.,-1.,0.));
#1537=DIRECTION('',(-1.,0.,0.));
#1538=DIRECTION('',(0.,-1.,0.));
#1539=DIRECTION('',(-1.,0.,0.));
#1540=DIRECTION('',(0.,-1.,0.));
#1541=DIRECTION('',(0.,0.,-1.));
#1542=DIRECTION('',(0.,-1.,0.));
#1543=DIRECTION('',(0.,0.,1.));
#1544=DIRECTION('',(0.,-1.,0.));
#1545=DIRECTION('',(0.,1.,0.));
#1546=DIRECTION('',(-1.,0.,0.));
#1547=DIRECTION('',(1.,0.,0.));
#1548=DIRECTION('',(0.,0.,-1.));
#1549=DIRECTION('',(1.,0.,0.));
#1550=DIRECTION('',(0.,0.,-1.));
#1551=DIRECTION('',(0.,0.,-1.));
#1552=DIRECTION('',(0.,1.,0.));
#1553=DIRECTION('',(0.,-1.,0.));
#1554=DIRECTION('',(1.,0.,0.));
#1555=DIRECTION('',(0.,-1.,0.));
#1556=DIRECTION('',(0.,1.,0.));
#1557=DIRECTION('',(-1.,0.,0.));
#1558=DIRECTION('',(0.,0.,-1.));
#1559=DIRECTION('',(1.,0.,0.));
#1560=DIRECTION('',(0.,0.,-1.));
#1561=DIRECTION('',(0.,0.,-1.));
#1562=DIRECTION('',(0.,1.,0.));
#1563=DIRECTION('',(0.,-1.,0.));
#1564=DIRECTION('',(1.,0.,0.));
#1565=DIRECTION('',(0.,-1.,0.));
#1566=DIRECTION('',(0.,-1.,0.));
#1567=DIRECTION('',(1.,0.,0.));
#1568=DIRECTION('',(0.,0.,1.));
#1569=DIRECTION('',(1.,0.,0.));
#1570=DIRECTION('',(0.,0.,1.));
#1571=DIRECTION('',(0.,0.,-1.));
#1572=DIRECTION('',(0.,1.,0.));
#1573=DIRECTION('',(0.,-1.,0.));
#1574=DIRECTION('',(1.,0.,0.));
#1575=DIRECTION('',(0.,-1.,0.));
#1576=DIRECTION('',(0.,-1.,0.));
#1577=DIRECTION('',(1.,0.,0.));
#1578=DIRECTION('',(0.,0.,1.));
#1579=DIRECTION('',(1.,0.,0.));
#1580=DIRECTION('',(0.,0.,1.));
#1581=DIRECTION('',(0.,0.,1.));
#1582=DIRECTION('',(0.,-1.,0.));
#1583=DIRECTION('',(0.,1.,0.));
#1584=DIRECTION('',(1.,0.,0.));
#1585=DIRECTION('',(0.,1.,0.));
#1586=DIRECTION('',(0.,-1.,0.));
#1587=DIRECTION('',(1.,0.,0.));
#1588=DIRECTION('',(0.,0.,1.));
#1589=DIRECTION('',(1.,0.,0.));
#1590=DIRECTION('',(0.,0.,1.));
#1591=DIRECTION('',(0.,0.,1.));
#1592=DIRECTION('',(0.,-1.,0.));
#1593=DIRECTION('',(0.,1.,0.));
#1594=DIRECTION('',(1.,0.,0.));
#1595=DIRECTION('',(0.,1.,0.));
#1596=DIRECTION('',(0.,1.,0.));
#1597=DIRECTION('',(-1.,0.,0.));
#1598=DIRECTION('',(0.,0.,-1.));
#1599=DIRECTION('',(1.,0.,0.));
#1600=DIRECTION('',(0.,0.,-1.));
#1601=DIRECTION('',(0.,0.,1.));
#1602=DIRECTION('',(0.,-1.,0.));
#1603=DIRECTION('',(0.,1.,0.));
#1604=DIRECTION('',(1.,0.,0.));
#1605=DIRECTION('',(0.,1.,0.));
#1606=DIRECTION('',(0.,1.,0.));
#1607=DIRECTION('',(-1.,0.,0.));
#1608=DIRECTION('',(1.,0.,0.));
#1609=DIRECTION('',(0.,0.,-1.));
#1610=DIRECTION('',(0.,0.,-1.));
#1611=DIRECTION('',(0.,1.,0.));
#1612=DIRECTION('',(-1.,0.,0.));
#1613=DIRECTION('',(1.,0.,0.));
#1614=DIRECTION('',(0.,0.,-1.));
#1615=DIRECTION('',(1.,0.,0.));
#1616=DIRECTION('',(0.,0.,-1.));
#1617=DIRECTION('',(0.,0.,-1.));
#1618=DIRECTION('',(0.,1.,0.));
#1619=DIRECTION('',(0.,-1.,0.));
#1620=DIRECTION('',(0.,-1.,0.));
#1621=DIRECTION('',(-1.,0.,0.));
#1622=DIRECTION('',(0.,0.,-1.));
#1623=DIRECTION('',(1.,0.,0.));
#1624=DIRECTION('',(0.,-1.,0.));
#1625=DIRECTION('',(1.,0.,0.));
#1626=DIRECTION('',(0.,-1.,0.));
#1627=DIRECTION('',(0.,-1.,0.));
#1628=DIRECTION('',(0.,-1.,0.));
#1629=DIRECTION('',(0.,2.14328769232655E-16,-1.));
#1630=DIRECTION('',(0.,1.,2.89120579329468E-16));
#1631=DIRECTION('',(0.,0.,1.));
#1632=DIRECTION('',(0.,-1.,-3.46944695195361E-16));
#1633=DIRECTION('',(0.,0.,1.));
#1634=DIRECTION('',(0.,-1.,0.));
#1635=DIRECTION('',(0.,0.,1.));
#1636=DIRECTION('',(0.,-1.,0.));
#1637=DIRECTION('',(0.,0.,-1.));
#1638=DIRECTION('',(0.,-1.,0.));
#1639=DIRECTION('',(0.,0.,-1.));
#1640=DIRECTION('',(0.,1.,0.));
#1641=DIRECTION('',(0.,0.,-1.));
#1642=DIRECTION('',(0.,1.,0.));
#1643=DIRECTION('',(0.,0.,1.));
#1644=DIRECTION('',(0.,1.,0.));
#1645=DIRECTION('',(0.,0.,1.));
#1646=DIRECTION('',(0.,1.,2.89120579329468E-16));
#1647=DIRECTION('',(1.,0.,0.));
#1648=DIRECTION('',(0.,-1.,0.));
#1649=DIRECTION('',(1.,0.,0.));
#1650=DIRECTION('',(0.,-1.,0.));
#1651=DIRECTION('',(0.,0.,-1.));
#1652=DIRECTION('',(0.,1.,0.));
#1653=DIRECTION('',(0.,-1.,0.));
#1654=DIRECTION('',(1.,0.,0.));
#1655=DIRECTION('',(0.,0.,1.));
#1656=DIRECTION('',(0.,1.,0.));
#1657=DIRECTION('',(0.,0.,-1.));
#1658=DIRECTION('',(0.,1.,0.));
#1659=DIRECTION('',(0.,-2.89120579329468E-16,1.));
#1660=DIRECTION('',(0.,-1.,-2.89120579329468E-16));
#1661=DIRECTION('',(1.,0.,0.));
#1662=DIRECTION('',(0.,1.,2.89120579329468E-16));
#1663=DIRECTION('',(1.,0.,0.));
#1664=DIRECTION('',(0.,2.89120579329468E-16,-1.));
#1665=DIRECTION('',(0.,-1.,-2.89120579329468E-16));
#1666=DIRECTION('',(0.,-2.89120579329468E-16,1.));
#1667=DIRECTION('',(0.,-1.,-2.89120579329468E-16));
#1668=DIRECTION('',(0.,-2.89120579329468E-16,1.));
#1669=DIRECTION('',(0.,-1.,-2.89120579329468E-16));
#1670=DIRECTION('',(1.,0.,0.));
#1671=DIRECTION('',(0.,1.,2.89120579329468E-16));
#1672=DIRECTION('',(0.,1.,2.14328769232655E-16));
#1673=DIRECTION('',(0.,-2.14328769232655E-16,1.));
#1674=DIRECTION('',(0.,2.14328769232655E-16,-1.));
#1675=DIRECTION('',(0.,-1.,-2.14328769232655E-16));
#1676=DIRECTION('',(0.,-2.14328769232655E-16,1.));
#1677=DIRECTION('',(0.,-1.,-2.14328769232655E-16));
#1678=DIRECTION('',(0.,-2.14328769232655E-16,1.));
#1679=DIRECTION('',(0.,-1.,-2.14328769232655E-16));
#1680=DIRECTION('',(0.,-2.14328769232655E-16,1.));
#1681=DIRECTION('',(0.,1.,2.14328769232655E-16));
#1682=DIRECTION('',(0.,-2.14328769232655E-16,1.));
#1683=DIRECTION('',(0.,1.,2.14328769232655E-16));
#1684=DIRECTION('',(0.,-2.14328769232655E-16,1.));
#1685=DIRECTION('',(0.,1.,2.14328769232655E-16));
#1686=DIRECTION('',(0.,-2.14328769232655E-16,1.));
#1687=DIRECTION('',(0.,0.,-1.));
#1688=DIRECTION('',(0.,1.,0.));
#1689=DIRECTION('',(0.,-1.,0.));
#1690=DIRECTION('',(0.,-1.,0.));
#1691=DIRECTION('',(1.,0.,0.));
#1692=DIRECTION('',(1.,0.,0.));
#1693=DIRECTION('',(0.,0.,1.));
#1694=DIRECTION('',(0.,0.,1.));
#1695=DIRECTION('',(0.,-1.,0.));
#1696=DIRECTION('',(1.,0.,0.));
#1697=DIRECTION('',(0.,1.,0.));
#1698=DIRECTION('',(0.,-1.,0.));
#1699=DIRECTION('',(1.,0.,0.));
#1700=DIRECTION('',(1.,0.,0.));
#1701=DIRECTION('',(0.,0.,1.));
#1702=DIRECTION('',(0.,0.,1.));
#1703=DIRECTION('',(0.,-1.,0.));
#1704=DIRECTION('',(1.,0.,0.));
#1705=DIRECTION('',(0.,1.,0.));
#1706=DIRECTION('',(0.,1.,0.));
#1707=DIRECTION('',(-1.,0.,0.));
#1708=DIRECTION('',(1.,0.,0.));
#1709=DIRECTION('',(0.,0.,-1.));
#1710=DIRECTION('',(0.,0.,1.));
#1711=DIRECTION('',(0.,-1.,0.));
#1712=DIRECTION('',(1.,0.,0.));
#1713=DIRECTION('',(0.,1.,0.));
#1714=DIRECTION('',(0.,1.,0.));
#1715=DIRECTION('',(-1.,0.,0.));
#1716=DIRECTION('',(1.,0.,0.));
#1717=DIRECTION('',(0.,0.,-1.));
#1718=DIRECTION('',(0.,0.,-1.));
#1719=DIRECTION('',(0.,1.,0.));
#1720=DIRECTION('',(1.,0.,0.));
#1721=DIRECTION('',(0.,-1.,0.));
#1722=DIRECTION('',(0.,1.,0.));
#1723=DIRECTION('',(-1.,0.,0.));
#1724=DIRECTION('',(1.,0.,0.));
#1725=DIRECTION('',(0.,0.,-1.));
#1726=DIRECTION('',(0.,0.,-1.));
#1727=DIRECTION('',(0.,1.,0.));
#1728=DIRECTION('',(1.,0.,0.));
#1729=DIRECTION('',(0.,-1.,0.));
#1730=DIRECTION('',(0.,-1.,0.));
#1731=DIRECTION('',(1.,0.,0.));
#1732=DIRECTION('',(1.,0.,0.));
#1733=DIRECTION('',(0.,0.,1.));
#1734=DIRECTION('',(0.,0.,-1.));
#1735=DIRECTION('',(0.,1.,0.));
#1736=DIRECTION('',(1.,0.,0.));
#1737=DIRECTION('',(0.,-1.,0.));
#1738=DIRECTION('',(0.,-1.,0.));
#1739=DIRECTION('',(1.,0.,0.));
#1740=DIRECTION('',(1.,0.,0.));
#1741=DIRECTION('',(0.,0.,1.));
#1742=DIRECTION('',(0.,3.46944695195361E-16,-1.));
#1743=DIRECTION('',(0.,1.,3.46944695195361E-16));
#1744=DIRECTION('',(1.,0.,0.));
#1745=DIRECTION('',(0.,-1.,-3.46944695195361E-16));
#1746=DIRECTION('',(0.,-1.,0.));
#1747=DIRECTION('',(1.,0.,0.));
#1748=DIRECTION('',(0.,0.,1.));
#1749=DIRECTION('',(0.,-1.,-2.01858731750028E-16));
#1750=DIRECTION('',(0.,2.01858731750028E-16,-1.));
#1751=DIRECTION('',(0.,1.,2.01858731750028E-16));
#1752=DIRECTION('',(0.,2.01858731750028E-16,-1.));
#1753=DIRECTION('',(0.,-1.,-2.01858731750028E-16));
#1754=DIRECTION('',(-1.,0.,0.));
#1755=DIRECTION('',(0.,1.,2.01858731750028E-16));
#1756=DIRECTION('',(0.,2.01858731750028E-16,-1.));
#1757=DIRECTION('',(0.,-1.,-2.01858731750028E-16));
#1758=DIRECTION('',(0.,2.01858731750028E-16,-1.));
#1759=DIRECTION('',(0.,1.,2.01858731750028E-16));
#1760=DIRECTION('',(0.,2.01858731750028E-16,-1.));
#1761=DIRECTION('',(0.,-1.,-2.01858731750028E-16));
#1762=DIRECTION('',(-1.,0.,0.));
#1763=DIRECTION('',(0.,1.,2.01858731750028E-16));
#1764=DIRECTION('',(0.,2.01858731750028E-16,-1.));
#1765=DIRECTION('',(0.,-1.,-2.01858731750028E-16));
#1766=DIRECTION('',(0.,2.01858731750028E-16,-1.));
#1767=DIRECTION('',(0.,1.,2.01858731750028E-16));
#1768=DIRECTION('',(0.,2.01858731750028E-16,-1.));
#1769=DIRECTION('',(0.,-1.,-2.01858731750028E-16));
#1770=DIRECTION('',(-1.,0.,0.));
#1771=DIRECTION('',(0.,1.,2.01858731750028E-16));
#1772=DIRECTION('',(0.,2.01858731750028E-16,-1.));
#1773=DIRECTION('',(0.,-1.,-2.01858731750028E-16));
#1774=DIRECTION('',(0.,2.01858731750028E-16,-1.));
#1775=DIRECTION('',(0.,-1.,-2.01858731750028E-16));
#1776=DIRECTION('',(0.,2.01858731750028E-16,-1.));
#1777=DIRECTION('',(0.,-1.,-2.01858731750028E-16));
#1778=DIRECTION('',(0.,2.01858731750028E-16,-1.));
#1779=DIRECTION('',(0.,0.,1.));
#1780=DIRECTION('',(0.,-1.,0.));
#1781=DIRECTION('',(0.,0.,-1.));
#1782=DIRECTION('',(0.,-1.,0.));
#1783=DIRECTION('',(0.,0.,1.));
#1784=DIRECTION('',(-1.,0.,0.));
#1785=DIRECTION('',(0.,0.,-1.));
#1786=DIRECTION('',(0.,-1.,0.));
#1787=DIRECTION('',(0.,0.,1.));
#1788=DIRECTION('',(0.,-1.,0.));
#1789=DIRECTION('',(0.,0.,-1.));
#1790=DIRECTION('',(0.,1.,0.));
#1791=DIRECTION('',(0.,0.,1.));
#1792=DIRECTION('',(0.,1.,0.));
#1793=DIRECTION('',(0.,0.,-1.));
#1794=DIRECTION('',(1.,0.,0.));
#1795=DIRECTION('',(0.,0.,1.));
#1796=DIRECTION('',(0.,1.,0.));
#1797=DIRECTION('',(0.,0.,-1.));
#1798=DIRECTION('',(0.,1.,0.));
#1799=DIRECTION('',(1.,0.,0.));
#1800=DIRECTION('',(0.,1.,0.));
#1801=DIRECTION('',(1.,0.,0.));
#1802=DIRECTION('',(0.,-1.,0.));
#1803=DIRECTION('',(-1.,0.,0.));
#1804=DIRECTION('',(0.,-1.,0.));
#1805=DIRECTION('',(1.,0.,0.));
#1806=DIRECTION('',(0.,-1.,0.));
#1807=DIRECTION('',(1.,0.,0.));
#1808=DIRECTION('',(0.,1.,0.));
#1809=DIRECTION('',(1.,0.,0.));
#1810=DIRECTION('',(0.,-1.,0.));
#1811=DIRECTION('',(-1.,0.,0.));
#1812=DIRECTION('',(0.,-1.,0.));
#1813=DIRECTION('',(1.,0.,0.));
#1814=DIRECTION('',(0.,-1.,0.));
#1815=DIRECTION('',(1.,0.,0.));
#1816=DIRECTION('',(0.,0.,-1.));
#1817=DIRECTION('',(0.,-1.,-2.01858731750028E-16));
#1818=DIRECTION('',(0.,2.01858731750028E-16,-1.));
#1819=DIRECTION('',(0.,-1.,-2.01858731750028E-16));
#1820=DIRECTION('',(0.,2.01858731750028E-16,-1.));
#1821=DIRECTION('',(0.,-1.,-2.01858731750028E-16));
#1822=DIRECTION('',(1.,0.,0.));
#1823=DIRECTION('',(0.,-1.,-2.01858731750028E-16));
#1824=DIRECTION('',(0.,2.01858731750028E-16,-1.));
#1825=DIRECTION('',(0.,-1.,-2.01858731750028E-16));
#1826=DIRECTION('',(0.,2.01858731750028E-16,-1.));
#1827=DIRECTION('',(0.,-1.,-2.01858731750028E-16));
#1828=DIRECTION('',(0.,2.01858731750028E-16,-1.));
#1829=DIRECTION('',(0.,-1.,-2.01858731750028E-16));
#1830=DIRECTION('',(1.,0.,0.));
#1831=DIRECTION('',(0.,-1.,-2.01858731750028E-16));
#1832=DIRECTION('',(0.,2.01858731750028E-16,-1.));
#1833=DIRECTION('',(0.,-1.,-2.01858731750028E-16));
#1834=DIRECTION('',(0.,2.01858731750028E-16,-1.));
#1835=DIRECTION('',(0.,-1.,-2.01858731750028E-16));
#1836=DIRECTION('',(0.,2.01858731750028E-16,-1.));
#1837=DIRECTION('',(0.,-1.,-2.01858731750028E-16));
#1838=DIRECTION('',(1.,0.,0.));
#1839=DIRECTION('',(0.,-1.,-2.01858731750028E-16));
#1840=DIRECTION('',(0.,2.01858731750028E-16,-1.));
#1841=DIRECTION('',(0.,-1.,-2.01858731750028E-16));
#1842=DIRECTION('',(0.,2.01858731750028E-16,-1.));
#1843=DIRECTION('',(0.,-1.,-2.01858731750028E-16));
#1844=DIRECTION('',(0.,2.01858731750028E-16,-1.));
#1845=DIRECTION('',(0.,-1.,-2.01858731750028E-16));
#1846=DIRECTION('',(0.,2.01858731750028E-16,-1.));
#1847=DIRECTION('',(0.,0.,1.));
#1848=DIRECTION('',(0.,-1.,0.));
#1849=DIRECTION('',(0.,0.,1.));
#1850=DIRECTION('',(0.,-1.,0.));
#1851=DIRECTION('',(0.,0.,1.));
#1852=DIRECTION('',(1.,0.,0.));
#1853=DIRECTION('',(0.,0.,1.));
#1854=DIRECTION('',(0.,-1.,0.));
#1855=DIRECTION('',(0.,0.,1.));
#1856=DIRECTION('',(0.,-1.,0.));
#1857=DIRECTION('',(0.,0.,-1.));
#1858=DIRECTION('',(0.,1.,0.));
#1859=DIRECTION('',(0.,0.,-1.));
#1860=DIRECTION('',(0.,1.,0.));
#1861=DIRECTION('',(0.,0.,-1.));
#1862=DIRECTION('',(-1.,0.,0.));
#1863=DIRECTION('',(0.,0.,-1.));
#1864=DIRECTION('',(0.,1.,0.));
#1865=DIRECTION('',(0.,0.,-1.));
#1866=DIRECTION('',(0.,1.,0.));
#1867=CARTESIAN_POINT('',(0.,0.,0.));
#1868=CARTESIAN_POINT('',(0.13608,0.11444736546278,0.0332181236773729));
#1869=CARTESIAN_POINT('',(0.13608,0.11444736546278,0.100968123677373));
#1870=CARTESIAN_POINT('',(0.13208,0.11444736546278,0.100968123677373));
#1871=CARTESIAN_POINT('',(0.,0.11444736546278,0.100968123677373));
#1872=CARTESIAN_POINT('',(0.13208,0.11444736546278,0.0999681236773729));
#1873=CARTESIAN_POINT('',(0.13208,0.11444736546278,0.0979681236773729));
#1874=CARTESIAN_POINT('',(0.,0.11444736546278,0.0979681236773729));
#1875=CARTESIAN_POINT('',(0.,0.11444736546278,0.0979681236773729));
#1876=CARTESIAN_POINT('',(0.,0.11444736546278,0.0999681236773729));
#1877=CARTESIAN_POINT('',(0.13608,0.11444736546278,0.0332181236773729));
#1878=CARTESIAN_POINT('',(0.,0.11444736546278,-0.0315318763226271));
#1879=CARTESIAN_POINT('',(0.,0.11444736546278,-0.0315318763226271));
#1880=CARTESIAN_POINT('',(0.13208,0.11444736546278,-0.0315318763226271));
#1881=CARTESIAN_POINT('',(0.13208,0.11444736546278,-0.0335318763226271));
#1882=CARTESIAN_POINT('',(0.13208,0.11444736546278,-0.0345318763226271));
#1883=CARTESIAN_POINT('',(0.13608,0.11444736546278,-0.0345318763226271));
#1884=CARTESIAN_POINT('',(0.,0.11444736546278,-0.0345318763226271));
#1885=CARTESIAN_POINT('',(0.,0.11444736546278,-0.0335318763226271));
#1886=CARTESIAN_POINT('',(0.13608,0.09944736546278,-0.0355318763226271));
#1887=CARTESIAN_POINT('',(0.004,0.09944736546278,-0.0355318763226271));
#1888=CARTESIAN_POINT('',(0.004,0.10244736546278,-0.0355318763226271));
#1889=CARTESIAN_POINT('',(0.13608,0.08544736546278,-0.0355318763226271));
#1890=CARTESIAN_POINT('',(0.,0.08544736546278,-0.0355318763226271));
#1891=CARTESIAN_POINT('',(0.13208,0.08544736546278,-0.0355318763226271));
#1892=CARTESIAN_POINT('',(0.,0.09944736546278,-0.0355318763226271));
#1893=CARTESIAN_POINT('',(0.,0.11344736546278,-0.0355318763226271));
#1894=CARTESIAN_POINT('',(0.,0.11344736546278,-0.0355318763226271));
#1895=CARTESIAN_POINT('',(0.13208,0.11344736546278,-0.0355318763226271));
#1896=CARTESIAN_POINT('',(0.13208,0.09944736546278,-0.0355318763226271));
#1897=CARTESIAN_POINT('',(0.12808,0.09944736546278,-0.0355318763226271));
#1898=CARTESIAN_POINT('',(0.12808,0.10244736546278,-0.0355318763226271));
#1899=CARTESIAN_POINT('',(0.13608,0.08444736546278,0.033218123677373));
#1900=CARTESIAN_POINT('',(0.,0.08444736546278,-0.0345318763226271));
#1901=CARTESIAN_POINT('',(0.13208,0.08444736546278,-0.0345318763226271));
#1902=CARTESIAN_POINT('',(0.,0.08444736546278,-0.0345318763226271));
#1903=CARTESIAN_POINT('',(0.13208,0.08444736546278,0.033218123677373));
#1904=CARTESIAN_POINT('',(0.13208,0.08444736546278,0.100968123677373));
#1905=CARTESIAN_POINT('',(0.13608,0.08444736546278,0.100968123677373));
#1906=CARTESIAN_POINT('',(0.,0.08444736546278,0.100968123677373));
#1907=CARTESIAN_POINT('',(0.,0.08444736546278,0.033218123677373));
#1908=CARTESIAN_POINT('',(0.004,0.08444736546278,-0.0217818763226271));
#1909=CARTESIAN_POINT('',(0.004,0.08444736546278,-0.0247818763226271));
#1910=CARTESIAN_POINT('',(0.004,0.08444736546278,0.0882181236773729));
#1911=CARTESIAN_POINT('',(0.004,0.08444736546278,0.0852181236773729));
#1912=CARTESIAN_POINT('',(0.004,0.08444736546278,0.0332181236773729));
#1913=CARTESIAN_POINT('',(0.004,0.08444736546278,0.0302181236773729));
#1914=CARTESIAN_POINT('',(0.12808,0.08444736546278,-0.0217818763226271));
#1915=CARTESIAN_POINT('',(0.12808,0.08444736546278,-0.0247818763226271));
#1916=CARTESIAN_POINT('',(0.12808,0.08444736546278,0.0882181236773729));
#1917=CARTESIAN_POINT('',(0.12808,0.08444736546278,0.0852181236773729));
#1918=CARTESIAN_POINT('',(0.12808,0.08444736546278,0.0332181236773729));
#1919=CARTESIAN_POINT('',(0.12808,0.08444736546278,0.0302181236773729));
#1920=CARTESIAN_POINT('',(0.13608,0.09944736546278,0.101968123677373));
#1921=CARTESIAN_POINT('',(0.13608,0.08544736546278,0.101968123677373));
#1922=CARTESIAN_POINT('',(0.13208,0.08544736546278,0.101968123677373));
#1923=CARTESIAN_POINT('',(0.,0.08544736546278,0.101968123677373));
#1924=CARTESIAN_POINT('',(0.13208,0.09944736546278,0.101968123677373));
#1925=CARTESIAN_POINT('',(0.13208,0.11344736546278,0.101968123677373));
#1926=CARTESIAN_POINT('',(0.13608,0.11344736546278,0.101968123677373));
#1927=CARTESIAN_POINT('',(0.,0.11344736546278,0.101968123677373));
#1928=CARTESIAN_POINT('',(0.,0.09944736546278,0.101968123677373));
#1929=CARTESIAN_POINT('',(0.004,0.09944736546278,0.101968123677373));
#1930=CARTESIAN_POINT('',(0.004,0.09644736546278,0.101968123677373));
#1931=CARTESIAN_POINT('',(0.12808,0.09944736546278,0.101968123677373));
#1932=CARTESIAN_POINT('',(0.12808,0.09644736546278,0.101968123677373));
#1933=CARTESIAN_POINT('',(0.,0.11244736546278,0.0917688874617219));
#1934=CARTESIAN_POINT('',(0.,0.11244736546278,0.0933681236773729));
#1935=CARTESIAN_POINT('',(0.,0.11244736546278,0.0933681236773729));
#1936=CARTESIAN_POINT('',(0.13208,0.11244736546278,0.0933681236773729));
#1937=CARTESIAN_POINT('',(0.13208,0.11244736546278,0.0917688874617219));
#1938=CARTESIAN_POINT('',(0.13208,0.11244736546278,0.0901696512460709));
#1939=CARTESIAN_POINT('',(0.,0.11244736546278,0.0901696512460709));
#1940=CARTESIAN_POINT('',(0.,0.11244736546278,0.0901696512460709));
#1941=CARTESIAN_POINT('',(0.,0.11244736546278,0.0917688874617219));
#1942=CARTESIAN_POINT('',(0.,0.11144736546278,0.0933681236773729));
#1943=CARTESIAN_POINT('',(0.,0.11144736546278,0.0933681236773729));
#1944=CARTESIAN_POINT('',(0.,0.11044736546278,0.0933681236773729));
#1945=CARTESIAN_POINT('',(0.,0.11044736546278,0.0933681236773729));
#1946=CARTESIAN_POINT('',(0.13208,0.11044736546278,0.0933681236773729));
#1947=CARTESIAN_POINT('',(0.13208,0.11144736546278,0.0933681236773729));
#1948=CARTESIAN_POINT('',(0.,0.11044736546278,0.0927688874617219));
#1949=CARTESIAN_POINT('',(0.,0.11044736546278,0.0927688874617219));
#1950=CARTESIAN_POINT('',(0.,0.11044736546278,0.0921696512460709));
#1951=CARTESIAN_POINT('',(0.,0.11044736546278,0.0921696512460709));
#1952=CARTESIAN_POINT('',(0.13208,0.11044736546278,0.0921696512460709));
#1953=CARTESIAN_POINT('',(0.13208,0.11044736546278,0.0927688874617219));
#1954=CARTESIAN_POINT('',(0.,0.10919736546278,0.0921696512460709));
#1955=CARTESIAN_POINT('',(0.,0.10919736546278,0.0921696512460709));
#1956=CARTESIAN_POINT('',(0.,0.10794736546278,0.0921696512460709));
#1957=CARTESIAN_POINT('',(0.,0.10794736546278,0.0921696512460709));
#1958=CARTESIAN_POINT('',(0.13208,0.10794736546278,0.0921696512460709));
#1959=CARTESIAN_POINT('',(0.13208,0.10919736546278,0.0921696512460709));
#1960=CARTESIAN_POINT('',(0.,0.10794736546278,0.0927688874617219));
#1961=CARTESIAN_POINT('',(0.,0.10794736546278,0.0927688874617219));
#1962=CARTESIAN_POINT('',(0.,0.10794736546278,0.0933681236773729));
#1963=CARTESIAN_POINT('',(0.,0.10794736546278,0.0933681236773729));
#1964=CARTESIAN_POINT('',(0.13208,0.10794736546278,0.0933681236773729));
#1965=CARTESIAN_POINT('',(0.13208,0.10794736546278,0.0927688874617219));
#1966=CARTESIAN_POINT('',(0.,0.10619736546278,0.0933681236773729));
#1967=CARTESIAN_POINT('',(0.,0.10619736546278,0.0933681236773729));
#1968=CARTESIAN_POINT('',(0.,0.10444736546278,0.0933681236773729));
#1969=CARTESIAN_POINT('',(0.,0.10444736546278,0.0933681236773729));
#1970=CARTESIAN_POINT('',(0.13208,0.10444736546278,0.0933681236773729));
#1971=CARTESIAN_POINT('',(0.13208,0.10619736546278,0.0933681236773729));
#1972=CARTESIAN_POINT('',(0.,0.10444736546278,0.0949681236773729));
#1973=CARTESIAN_POINT('',(0.,0.10444736546278,0.0949681236773729));
#1974=CARTESIAN_POINT('',(0.,0.10444736546278,0.0965681236773729));
#1975=CARTESIAN_POINT('',(0.,0.10444736546278,0.0965681236773729));
#1976=CARTESIAN_POINT('',(0.13208,0.10444736546278,0.0965681236773729));
#1977=CARTESIAN_POINT('',(0.13208,0.10444736546278,0.0949681236773729));
#1978=CARTESIAN_POINT('',(0.,0.10619736546278,0.0965681236773729));
#1979=CARTESIAN_POINT('',(0.,0.10619736546278,0.0965681236773729));
#1980=CARTESIAN_POINT('',(0.,0.10794736546278,0.0965681236773729));
#1981=CARTESIAN_POINT('',(0.,0.10794736546278,0.0965681236773729));
#1982=CARTESIAN_POINT('',(0.13208,0.10794736546278,0.0965681236773729));
#1983=CARTESIAN_POINT('',(0.13208,0.10619736546278,0.0965681236773729));
#1984=CARTESIAN_POINT('',(0.,0.10794736546278,0.0971673598930239));
#1985=CARTESIAN_POINT('',(0.,0.10794736546278,0.0971673598930239));
#1986=CARTESIAN_POINT('',(0.,0.10794736546278,0.097766596108675));
#1987=CARTESIAN_POINT('',(0.,0.10794736546278,0.097766596108675));
#1988=CARTESIAN_POINT('',(0.13208,0.10794736546278,0.097766596108675));
#1989=CARTESIAN_POINT('',(0.13208,0.10794736546278,0.0971673598930239));
#1990=CARTESIAN_POINT('',(0.,0.10919736546278,0.097766596108675));
#1991=CARTESIAN_POINT('',(0.,0.10919736546278,0.097766596108675));
#1992=CARTESIAN_POINT('',(0.,0.11044736546278,0.097766596108675));
#1993=CARTESIAN_POINT('',(0.,0.11044736546278,0.097766596108675));
#1994=CARTESIAN_POINT('',(0.13208,0.11044736546278,0.097766596108675));
#1995=CARTESIAN_POINT('',(0.13208,0.10919736546278,0.097766596108675));
#1996=CARTESIAN_POINT('',(0.,0.11044736546278,0.0971673598930239));
#1997=CARTESIAN_POINT('',(0.,0.11044736546278,0.0971673598930239));
#1998=CARTESIAN_POINT('',(0.,0.11044736546278,0.0965681236773729));
#1999=CARTESIAN_POINT('',(0.,0.11044736546278,0.0965681236773729));
#2000=CARTESIAN_POINT('',(0.13208,0.11044736546278,0.0965681236773729));
#2001=CARTESIAN_POINT('',(0.13208,0.11044736546278,0.0971673598930239));
#2002=CARTESIAN_POINT('',(0.,0.11144736546278,0.0965681236773729));
#2003=CARTESIAN_POINT('',(0.,0.11144736546278,0.0965681236773729));
#2004=CARTESIAN_POINT('',(0.,0.11244736546278,0.0965681236773729));
#2005=CARTESIAN_POINT('',(0.,0.11244736546278,0.0965681236773729));
#2006=CARTESIAN_POINT('',(0.13208,0.11244736546278,0.0965681236773729));
#2007=CARTESIAN_POINT('',(0.13208,0.11144736546278,0.0965681236773729));
#2008=CARTESIAN_POINT('',(0.,0.11244736546278,0.0972681236773729));
#2009=CARTESIAN_POINT('',(0.,0.11244736546278,0.0979681236773729));
#2010=CARTESIAN_POINT('',(0.,0.11244736546278,0.0979681236773729));
#2011=CARTESIAN_POINT('',(0.13208,0.11244736546278,0.0979681236773729));
#2012=CARTESIAN_POINT('',(0.13208,0.11244736546278,0.0972681236773729));
#2013=CARTESIAN_POINT('',(0.,0.11244736546278,0.0972681236773729));
#2014=CARTESIAN_POINT('',(0.,0.10244736546278,0.0940688874617219));
#2015=CARTESIAN_POINT('',(0.,0.10244736546278,0.0979681236773729));
#2016=CARTESIAN_POINT('',(0.,0.10244736546278,0.0979681236773729));
#2017=CARTESIAN_POINT('',(0.13208,0.10244736546278,0.0979681236773729));
#2018=CARTESIAN_POINT('',(0.,0.10244736546278,0.0940688874617219));
#2019=CARTESIAN_POINT('',(0.,0.10244736546278,0.0901696512460708));
#2020=CARTESIAN_POINT('',(0.,0.10244736546278,0.0901696512460708));
#2021=CARTESIAN_POINT('',(0.13208,0.10244736546278,0.0901696512460708));
#2022=CARTESIAN_POINT('',(0.13208,0.10244736546278,0.0940688874617219));
#2023=CARTESIAN_POINT('',(0.,0.10744736546278,0.0901696512460708));
#2024=CARTESIAN_POINT('',(0.13208,0.10744736546278,0.0901696512460708));
#2025=CARTESIAN_POINT('',(0.,0.10744736546278,0.0901696512460708));
#2026=CARTESIAN_POINT('',(0.,0.106214843094349,0.0332181236773729));
#2027=CARTESIAN_POINT('',(0.,0.08544736546278,0.100968123677373));
#2028=CARTESIAN_POINT('',(0.,0.11344736546278,0.100968123677373));
#2029=CARTESIAN_POINT('',(0.,0.10144736546278,0.0979681236773729));
#2030=CARTESIAN_POINT('',(0.,0.10144736546278,0.0979681236773729));
#2031=CARTESIAN_POINT('',(0.,0.08844736546278,0.0979681236773729));
#2032=CARTESIAN_POINT('',(0.,0.08844736546278,0.0332181236773729));
#2033=CARTESIAN_POINT('',(0.,0.08844736546278,-0.0315318763226271));
#2034=CARTESIAN_POINT('',(0.,0.10044736546278,-0.0315318763226271));
#2035=CARTESIAN_POINT('',(0.,0.10244736546278,-0.0315318763226271));
#2036=CARTESIAN_POINT('',(0.,0.10244736546278,-0.0276326401069761));
#2037=CARTESIAN_POINT('',(0.,0.10244736546278,-0.0237334038913251));
#2038=CARTESIAN_POINT('',(0.,0.10744736546278,-0.0237334038913251));
#2039=CARTESIAN_POINT('',(0.,0.11244736546278,-0.0237334038913251));
#2040=CARTESIAN_POINT('',(0.,0.11244736546278,-0.0253326401069761));
#2041=CARTESIAN_POINT('',(0.,0.11244736546278,-0.0269318763226271));
#2042=CARTESIAN_POINT('',(0.,0.11144736546278,-0.0269318763226271));
#2043=CARTESIAN_POINT('',(0.,0.11044736546278,-0.0269318763226271));
#2044=CARTESIAN_POINT('',(0.,0.11044736546278,-0.0263326401069761));
#2045=CARTESIAN_POINT('',(0.,0.11044736546278,-0.0257334038913251));
#2046=CARTESIAN_POINT('',(0.,0.10919736546278,-0.0257334038913251));
#2047=CARTESIAN_POINT('',(0.,0.10794736546278,-0.0257334038913251));
#2048=CARTESIAN_POINT('',(0.,0.10794736546278,-0.0263326401069761));
#2049=CARTESIAN_POINT('',(0.,0.10794736546278,-0.0269318763226271));
#2050=CARTESIAN_POINT('',(0.,0.10619736546278,-0.0269318763226271));
#2051=CARTESIAN_POINT('',(0.,0.10444736546278,-0.0269318763226271));
#2052=CARTESIAN_POINT('',(0.,0.10444736546278,-0.0285318763226271));
#2053=CARTESIAN_POINT('',(0.,0.10444736546278,-0.0301318763226271));
#2054=CARTESIAN_POINT('',(0.,0.10619736546278,-0.0301318763226271));
#2055=CARTESIAN_POINT('',(0.,0.10794736546278,-0.0301318763226271));
#2056=CARTESIAN_POINT('',(0.,0.10794736546278,-0.0307311125382781));
#2057=CARTESIAN_POINT('',(0.,0.10794736546278,-0.0313303487539292));
#2058=CARTESIAN_POINT('',(0.,0.10919736546278,-0.0313303487539292));
#2059=CARTESIAN_POINT('',(0.,0.11044736546278,-0.0313303487539292));
#2060=CARTESIAN_POINT('',(0.,0.11044736546278,-0.0307311125382781));
#2061=CARTESIAN_POINT('',(0.,0.11044736546278,-0.0301318763226271));
#2062=CARTESIAN_POINT('',(0.,0.11144736546278,-0.0301318763226271));
#2063=CARTESIAN_POINT('',(0.,0.11244736546278,-0.0301318763226271));
#2064=CARTESIAN_POINT('',(0.,0.11244736546278,-0.0308318763226271));
#2065=CARTESIAN_POINT('',(0.,0.11244736546278,-0.0315318763226271));
#2066=CARTESIAN_POINT('',(0.,0.10044736546278,-0.0315318763226271));
#2067=CARTESIAN_POINT('',(0.,0.11344736546278,-0.0345318763226271));
#2068=CARTESIAN_POINT('',(0.,0.08544736546278,-0.0345318763226271));
#2069=CARTESIAN_POINT('',(0.,0.10144736546278,0.0979681236773729));
#2070=CARTESIAN_POINT('',(0.13208,0.10144736546278,0.0979681236773729));
#2071=CARTESIAN_POINT('',(0.13208,0.08844736546278,0.0979681236773729));
#2072=CARTESIAN_POINT('',(0.,0.08844736546278,0.0979681236773729));
#2073=CARTESIAN_POINT('',(0.004,0.09944736546278,0.0979681236773729));
#2074=CARTESIAN_POINT('',(0.004,0.10109736546278,0.0979681236773729));
#2075=CARTESIAN_POINT('',(0.12808,0.09944736546278,0.0979681236773729));
#2076=CARTESIAN_POINT('',(0.12808,0.10109736546278,0.0979681236773729));
#2077=CARTESIAN_POINT('',(0.,0.10044736546278,-0.0315318763226271));
#2078=CARTESIAN_POINT('',(0.,0.08844736546278,-0.0315318763226271));
#2079=CARTESIAN_POINT('',(0.13208,0.08844736546278,-0.0315318763226271));
#2080=CARTESIAN_POINT('',(0.13208,0.10044736546278,-0.0315318763226271));
#2081=CARTESIAN_POINT('',(0.13208,0.10244736546278,-0.0315318763226271));
#2082=CARTESIAN_POINT('',(0.,0.10244736546278,-0.0315318763226271));
#2083=CARTESIAN_POINT('',(0.004,0.09944736546278,-0.0315318763226271));
#2084=CARTESIAN_POINT('',(0.004,0.09779736546278,-0.0315318763226271));
#2085=CARTESIAN_POINT('',(0.12808,0.09944736546278,-0.0315318763226271));
#2086=CARTESIAN_POINT('',(0.12808,0.09779736546278,-0.0315318763226271));
#2087=CARTESIAN_POINT('',(0.,0.10044736546278,-0.0315318763226271));
#2088=CARTESIAN_POINT('',(0.,0.11244736546278,-0.0315318763226271));
#2089=CARTESIAN_POINT('',(0.13208,0.11244736546278,-0.0315318763226271));
#2090=CARTESIAN_POINT('',(0.13208,0.10044736546278,-0.0315318763226271));
#2091=CARTESIAN_POINT('',(0.,0.08844736546278,0.0332181236773729));
#2092=CARTESIAN_POINT('',(0.13208,0.08844736546278,0.0332181236773729));
#2093=CARTESIAN_POINT('',(0.004,0.08844736546278,-0.0217818763226271));
#2094=CARTESIAN_POINT('',(0.004,0.08844736546278,-0.0201318763226271));
#2095=CARTESIAN_POINT('',(0.004,0.08844736546278,0.0882181236773729));
#2096=CARTESIAN_POINT('',(0.004,0.08844736546278,0.0898681236773729));
#2097=CARTESIAN_POINT('',(0.004,0.08844736546278,0.0332181236773729));
#2098=CARTESIAN_POINT('',(0.004,0.08844736546278,0.0348681236773729));
#2099=CARTESIAN_POINT('',(0.12808,0.08844736546278,-0.0217818763226271));
#2100=CARTESIAN_POINT('',(0.12808,0.08844736546278,-0.0201318763226271));
#2101=CARTESIAN_POINT('',(0.12808,0.08844736546278,0.0882181236773729));
#2102=CARTESIAN_POINT('',(0.12808,0.08844736546278,0.0898681236773729));
#2103=CARTESIAN_POINT('',(0.12808,0.08844736546278,0.0332181236773729));
#2104=CARTESIAN_POINT('',(0.12808,0.08844736546278,0.0348681236773729));
#2105=CARTESIAN_POINT('',(0.,0.10144736546278,0.0979681236773729));
#2106=CARTESIAN_POINT('',(0.13208,0.10144736546278,0.0979681236773729));
#2107=CARTESIAN_POINT('',(0.,0.11244736546278,-0.0308318763226271));
#2108=CARTESIAN_POINT('',(0.,0.11244736546278,-0.0301318763226271));
#2109=CARTESIAN_POINT('',(0.13208,0.11244736546278,-0.0301318763226271));
#2110=CARTESIAN_POINT('',(0.13208,0.11244736546278,-0.0308318763226271));
#2111=CARTESIAN_POINT('',(0.,0.11144736546278,-0.0301318763226271));
#2112=CARTESIAN_POINT('',(0.,0.11044736546278,-0.0301318763226271));
#2113=CARTESIAN_POINT('',(0.13208,0.11044736546278,-0.0301318763226271));
#2114=CARTESIAN_POINT('',(0.13208,0.11144736546278,-0.0301318763226271));
#2115=CARTESIAN_POINT('',(0.,0.11044736546278,-0.0307311125382781));
#2116=CARTESIAN_POINT('',(0.,0.11044736546278,-0.0313303487539292));
#2117=CARTESIAN_POINT('',(0.13208,0.11044736546278,-0.0313303487539292));
#2118=CARTESIAN_POINT('',(0.13208,0.11044736546278,-0.0307311125382781));
#2119=CARTESIAN_POINT('',(0.,0.10919736546278,-0.0313303487539292));
#2120=CARTESIAN_POINT('',(0.,0.10794736546278,-0.0313303487539292));
#2121=CARTESIAN_POINT('',(0.13208,0.10794736546278,-0.0313303487539292));
#2122=CARTESIAN_POINT('',(0.13208,0.10919736546278,-0.0313303487539292));
#2123=CARTESIAN_POINT('',(0.,0.10794736546278,-0.0307311125382781));
#2124=CARTESIAN_POINT('',(0.,0.10794736546278,-0.0301318763226271));
#2125=CARTESIAN_POINT('',(0.13208,0.10794736546278,-0.0301318763226271));
#2126=CARTESIAN_POINT('',(0.13208,0.10794736546278,-0.0307311125382781));
#2127=CARTESIAN_POINT('',(0.,0.10619736546278,-0.0301318763226271));
#2128=CARTESIAN_POINT('',(0.,0.10444736546278,-0.0301318763226271));
#2129=CARTESIAN_POINT('',(0.13208,0.10444736546278,-0.0301318763226271));
#2130=CARTESIAN_POINT('',(0.13208,0.10619736546278,-0.0301318763226271));
#2131=CARTESIAN_POINT('',(0.,0.10444736546278,-0.0285318763226271));
#2132=CARTESIAN_POINT('',(0.,0.10444736546278,-0.0269318763226271));
#2133=CARTESIAN_POINT('',(0.13208,0.10444736546278,-0.0269318763226271));
#2134=CARTESIAN_POINT('',(0.13208,0.10444736546278,-0.0285318763226271));
#2135=CARTESIAN_POINT('',(0.,0.10619736546278,-0.0269318763226271));
#2136=CARTESIAN_POINT('',(0.,0.10794736546278,-0.0269318763226271));
#2137=CARTESIAN_POINT('',(0.13208,0.10794736546278,-0.0269318763226271));
#2138=CARTESIAN_POINT('',(0.13208,0.10619736546278,-0.0269318763226271));
#2139=CARTESIAN_POINT('',(0.,0.10794736546278,-0.0263326401069761));
#2140=CARTESIAN_POINT('',(0.,0.10794736546278,-0.0257334038913251));
#2141=CARTESIAN_POINT('',(0.13208,0.10794736546278,-0.0257334038913251));
#2142=CARTESIAN_POINT('',(0.13208,0.10794736546278,-0.0263326401069761));
#2143=CARTESIAN_POINT('',(0.,0.10919736546278,-0.0257334038913251));
#2144=CARTESIAN_POINT('',(0.,0.11044736546278,-0.0257334038913251));
#2145=CARTESIAN_POINT('',(0.13208,0.11044736546278,-0.0257334038913251));
#2146=CARTESIAN_POINT('',(0.13208,0.10919736546278,-0.0257334038913251));
#2147=CARTESIAN_POINT('',(0.,0.11044736546278,-0.0263326401069761));
#2148=CARTESIAN_POINT('',(0.,0.11044736546278,-0.0269318763226271));
#2149=CARTESIAN_POINT('',(0.13208,0.11044736546278,-0.0269318763226271));
#2150=CARTESIAN_POINT('',(0.13208,0.11044736546278,-0.0263326401069761));
#2151=CARTESIAN_POINT('',(0.,0.11144736546278,-0.0269318763226271));
#2152=CARTESIAN_POINT('',(0.,0.11244736546278,-0.0269318763226271));
#2153=CARTESIAN_POINT('',(0.13208,0.11244736546278,-0.0269318763226271));
#2154=CARTESIAN_POINT('',(0.13208,0.11144736546278,-0.0269318763226271));
#2155=CARTESIAN_POINT('',(0.,0.11244736546278,-0.0253326401069761));
#2156=CARTESIAN_POINT('',(0.,0.11244736546278,-0.0237334038913251));
#2157=CARTESIAN_POINT('',(0.13208,0.11244736546278,-0.0237334038913251));
#2158=CARTESIAN_POINT('',(0.13208,0.11244736546278,-0.0253326401069761));
#2159=CARTESIAN_POINT('',(0.,0.10744736546278,-0.0237334038913251));
#2160=CARTESIAN_POINT('',(0.,0.10244736546278,-0.0237334038913251));
#2161=CARTESIAN_POINT('',(0.13208,0.10244736546278,-0.0237334038913251));
#2162=CARTESIAN_POINT('',(0.13208,0.10744736546278,-0.0237334038913251));
#2163=CARTESIAN_POINT('',(0.,0.10244736546278,-0.0276326401069761));
#2164=CARTESIAN_POINT('',(0.13208,0.10244736546278,-0.0276326401069761));
#2165=CARTESIAN_POINT('',(0.004,0.08619736546278,0.0332181236773729));
#2166=CARTESIAN_POINT('',(0.004,0.08619736546278,0.0332181236773729));
#2167=CARTESIAN_POINT('',(0.004,0.08619736546278,0.0302181236773729));
#2168=CARTESIAN_POINT('',(0.06804,0.08619736546278,0.0332181236773729));
#2169=CARTESIAN_POINT('',(0.004,0.08619736546278,0.0332181236773729));
#2170=CARTESIAN_POINT('',(0.004,0.08619736546278,0.0315681236773729));
#2171=CARTESIAN_POINT('',(0.004,0.08619736546278,0.0882181236773729));
#2172=CARTESIAN_POINT('',(0.004,0.08619736546278,0.0882181236773729));
#2173=CARTESIAN_POINT('',(0.004,0.08619736546278,0.0852181236773729));
#2174=CARTESIAN_POINT('',(0.06804,0.08619736546278,0.0882181236773729));
#2175=CARTESIAN_POINT('',(0.004,0.08619736546278,0.0882181236773729));
#2176=CARTESIAN_POINT('',(0.004,0.08619736546278,0.0865681236773729));
#2177=CARTESIAN_POINT('',(0.004,0.08619736546278,-0.0217818763226271));
#2178=CARTESIAN_POINT('',(0.004,0.08619736546278,-0.0217818763226271));
#2179=CARTESIAN_POINT('',(0.004,0.08619736546278,-0.0247818763226271));
#2180=CARTESIAN_POINT('',(0.06804,0.08619736546278,-0.0217818763226271));
#2181=CARTESIAN_POINT('',(0.004,0.08619736546278,-0.0217818763226271));
#2182=CARTESIAN_POINT('',(0.004,0.08619736546278,-0.0234318763226271));
#2183=CARTESIAN_POINT('',(0.004,0.09444736546278,-0.0217818763226271));
#2184=CARTESIAN_POINT('',(0.004,0.09444736546278,0.0882181236773729));
#2185=CARTESIAN_POINT('',(0.004,0.09444736546278,0.0332181236773729));
#2186=CARTESIAN_POINT('',(0.004,0.09944736546278,0.100218123677373));
#2187=CARTESIAN_POINT('',(0.004,0.09944736546278,0.100218123677373));
#2188=CARTESIAN_POINT('',(0.004,0.09644736546278,0.100218123677373));
#2189=CARTESIAN_POINT('',(0.06804,0.09944736546278,0.100218123677373));
#2190=CARTESIAN_POINT('',(0.004,0.09944736546278,0.100218123677373));
#2191=CARTESIAN_POINT('',(0.004,0.09779736546278,0.100218123677373));
#2192=CARTESIAN_POINT('',(0.004,0.09944736546278,0.0769681236773729));
#2193=CARTESIAN_POINT('',(0.004,0.09944736546278,-0.0337818763226271));
#2194=CARTESIAN_POINT('',(0.004,0.09944736546278,-0.0337818763226271));
#2195=CARTESIAN_POINT('',(0.004,0.10244736546278,-0.0337818763226271));
#2196=CARTESIAN_POINT('',(0.06604,0.09944736546278,-0.0337818763226271));
#2197=CARTESIAN_POINT('',(0.004,0.09944736546278,-0.0337818763226271));
#2198=CARTESIAN_POINT('',(0.004,0.10109736546278,-0.0337818763226271));
#2199=CARTESIAN_POINT('',(0.004,0.09944736546278,-0.0255318763226271));
#2200=CARTESIAN_POINT('',(0.13608,0.11344736546278,-0.0345318763226271));
#2201=CARTESIAN_POINT('',(0.13208,0.11344736546278,-0.0345318763226271));
#2202=CARTESIAN_POINT('',(0.13608,0.11344736546278,0.100968123677373));
#2203=CARTESIAN_POINT('',(0.13208,0.11344736546278,0.100968123677373));
#2204=CARTESIAN_POINT('',(0.13608,0.08544736546278,-0.0345318763226271));
#2205=CARTESIAN_POINT('',(0.13208,0.08544736546278,-0.0345318763226271));
#2206=CARTESIAN_POINT('',(0.13608,0.08544736546278,0.100968123677373));
#2207=CARTESIAN_POINT('',(0.13208,0.08544736546278,0.100968123677373));
#2208=CARTESIAN_POINT('',(0.13208,0.106214843094349,0.0332181236773729));
#2209=CARTESIAN_POINT('',(0.12808,0.08619736546278,0.0332181236773729));
#2210=CARTESIAN_POINT('',(0.12808,0.08619736546278,0.0332181236773729));
#2211=CARTESIAN_POINT('',(0.12808,0.08619736546278,0.0302181236773729));
#2212=CARTESIAN_POINT('',(0.06404,0.08619736546278,0.0332181236773729));
#2213=CARTESIAN_POINT('',(0.12808,0.08619736546278,0.0332181236773729));
#2214=CARTESIAN_POINT('',(0.12808,0.08619736546278,0.0315681236773729));
#2215=CARTESIAN_POINT('',(0.12808,0.08619736546278,0.0882181236773729));
#2216=CARTESIAN_POINT('',(0.12808,0.08619736546278,0.0882181236773729));
#2217=CARTESIAN_POINT('',(0.12808,0.08619736546278,0.0852181236773729));
#2218=CARTESIAN_POINT('',(0.06404,0.08619736546278,0.0882181236773729));
#2219=CARTESIAN_POINT('',(0.12808,0.08619736546278,0.0882181236773729));
#2220=CARTESIAN_POINT('',(0.12808,0.08619736546278,0.0865681236773729));
#2221=CARTESIAN_POINT('',(0.12808,0.08619736546278,-0.0217818763226271));
#2222=CARTESIAN_POINT('',(0.12808,0.08619736546278,-0.0217818763226271));
#2223=CARTESIAN_POINT('',(0.12808,0.08619736546278,-0.0247818763226271));
#2224=CARTESIAN_POINT('',(0.06404,0.08619736546278,-0.0217818763226271));
#2225=CARTESIAN_POINT('',(0.12808,0.08619736546278,-0.0217818763226271));
#2226=CARTESIAN_POINT('',(0.12808,0.08619736546278,-0.0234318763226271));
#2227=CARTESIAN_POINT('',(0.12808,0.09444736546278,-0.0217818763226271));
#2228=CARTESIAN_POINT('',(0.12808,0.09444736546278,0.0882181236773729));
#2229=CARTESIAN_POINT('',(0.12808,0.09444736546278,0.0332181236773729));
#2230=CARTESIAN_POINT('',(0.12808,0.09944736546278,0.100218123677373));
#2231=CARTESIAN_POINT('',(0.12808,0.09944736546278,0.100218123677373));
#2232=CARTESIAN_POINT('',(0.12808,0.09644736546278,0.100218123677373));
#2233=CARTESIAN_POINT('',(0.06404,0.09944736546278,0.100218123677373));
#2234=CARTESIAN_POINT('',(0.12808,0.09944736546278,0.100218123677373));
#2235=CARTESIAN_POINT('',(0.12808,0.09779736546278,0.100218123677373));
#2236=CARTESIAN_POINT('',(0.12808,0.09944736546278,0.0769681236773729));
#2237=CARTESIAN_POINT('',(0.12808,0.09944736546278,-0.0337818763226271));
#2238=CARTESIAN_POINT('',(0.12808,0.09944736546278,-0.0337818763226271));
#2239=CARTESIAN_POINT('',(0.12808,0.10244736546278,-0.0337818763226271));
#2240=CARTESIAN_POINT('',(0.06604,0.09944736546278,-0.0337818763226271));
#2241=CARTESIAN_POINT('',(0.12808,0.09944736546278,-0.0337818763226271));
#2242=CARTESIAN_POINT('',(0.12808,0.10109736546278,-0.0337818763226271));
#2243=CARTESIAN_POINT('',(0.12808,0.09944736546278,-0.0255318763226271));
#2244=MECHANICAL_DESIGN_GEOMETRIC_PRESENTATION_REPRESENTATION('',(#1357),
#2245);
#2245=(
GEOMETRIC_REPRESENTATION_CONTEXT(3)
GLOBAL_UNCERTAINTY_ASSIGNED_CONTEXT((#2246))
GLOBAL_UNIT_ASSIGNED_CONTEXT((#2249,#2248,#2247))
REPRESENTATION_CONTEXT('Part 7','TOP_LEVEL_ASSEMBLY_PART')
);
#2246=UNCERTAINTY_MEASURE_WITH_UNIT(LENGTH_MEASURE(1.E-8),#2249,
'DISTANCE_ACCURACY_VALUE','Maximum Tolerance applied to model');
#2247=(
NAMED_UNIT(*)
SI_UNIT($,.STERADIAN.)
SOLID_ANGLE_UNIT()
);
#2248=(
NAMED_UNIT(*)
PLANE_ANGLE_UNIT()
SI_UNIT($,.RADIAN.)
);
#2249=(
LENGTH_UNIT()
NAMED_UNIT(*)
SI_UNIT($,.METRE.)
);
#2250=PRODUCT_DEFINITION_SHAPE('','',#2251);
#2251=PRODUCT_DEFINITION('','',#2253,#2252);
#2252=PRODUCT_DEFINITION_CONTEXT('',#2259,'design');
#2253=PRODUCT_DEFINITION_FORMATION_WITH_SPECIFIED_SOURCE('','',#2255,
 .NOT_KNOWN.);
#2254=PRODUCT_RELATED_PRODUCT_CATEGORY('','',(#2255));
#2255=PRODUCT('Part 7','Part 7','Part 7',(#2257));
#2256=PRODUCT_CATEGORY('','');
#2257=PRODUCT_CONTEXT('',#2259,'mechanical');
#2258=APPLICATION_PROTOCOL_DEFINITION('international standard',
'ap242_managed_model_based_3d_engineering',2020,#2259);
#2259=APPLICATION_CONTEXT('managed model based 3d engineering');
ENDSEC;
END-ISO-10303-21;
